<?xml version="1.0" encoding="UTF-8" standalone="no"?>
<!-- Created with Inkscape (http://www.inkscape.org/) -->

<svg
   xmlns:dc="http://purl.org/dc/elements/1.1/"
   xmlns:cc="http://creativecommons.org/ns#"
   xmlns:rdf="http://www.w3.org/1999/02/22-rdf-syntax-ns#"
   xmlns:svg="http://www.w3.org/2000/svg"
   xmlns="http://www.w3.org/2000/svg"
   xmlns:sodipodi="http://sodipodi.sourceforge.net/DTD/sodipodi-0.dtd"
   xmlns:inkscape="http://www.inkscape.org/namespaces/inkscape"
   width="655"
   height="532"
   viewBox="0 0 173.3021 140.75833"
   version="1.1"
   id="svg8"
   inkscape:version="0.92.2 (5c3e80d, 2017-08-06)"
   sodipodi:docname="Asciugatura.svg"
   enable-background="new">
  <sodipodi:namedview
     id="base"
     pagecolor="#ffffff"
     bordercolor="#666666"
     borderopacity="1.0"
     inkscape:pageopacity="0.0"
     inkscape:pageshadow="2"
     inkscape:zoom="8.0000007"
     inkscape:cx="137.62198"
     inkscape:cy="396.06494"
     inkscape:document-units="mm"
     inkscape:current-layer="layer1"
     showgrid="false"
     units="px"
     inkscape:window-width="1920"
     inkscape:window-height="1003"
     inkscape:window-x="-9"
     inkscape:window-y="-9"
     inkscape:window-maximized="1"
     showguides="false"
     inkscape:guide-bbox="true"
     inkscape:snap-bbox="true"
     inkscape:snap-bbox-edge-midpoints="true"
     inkscape:snap-midpoints="true"
     inkscape:snap-bbox-midpoints="true"
     inkscape:snap-grids="false"
     inkscape:snap-center="true"
     inkscape:snap-object-midpoints="true"
     inkscape:bbox-nodes="true"
     inkscape:bbox-paths="true"
     inkscape:snap-intersection-paths="true"
     inkscape:snap-smooth-nodes="true"
     inkscape:object-nodes="true"
     inkscape:object-paths="true"
     inkscape:snap-to-guides="false"
     inkscape:snap-page="false"
     inkscape:snap-others="true"
     inkscape:snap-global="true"
     inkscape:measure-start="0,0"
     inkscape:measure-end="0,0">
    <inkscape:grid
       type="xygrid"
       id="grid1756"
       spacingx="28.883682"
       spacingy="12.796214"
       empspacing="1" />
    <sodipodi:guide
       position="86.651049,153.55457"
       orientation="1,0"
       id="guide3733"
       inkscape:locked="false" />
    <sodipodi:guide
       position="-252.10351,16.204667"
       orientation="1,0"
       id="guide4174"
       inkscape:locked="false" />
    <sodipodi:guide
       position="-110.58353,48.08179"
       orientation="1,0"
       id="guide4176"
       inkscape:locked="false" />
    <sodipodi:guide
       position="-310.92954,118.20855"
       orientation="1,0"
       id="guide4207"
       inkscape:locked="false" />
    <sodipodi:guide
       position="86.645443,124.64198"
       orientation="0,1"
       id="guide7233"
       inkscape:locked="false" />
    <sodipodi:guide
       position="86.65105,16.10651"
       orientation="0,1"
       id="guide7235"
       inkscape:locked="false" />
    <sodipodi:guide
       position="0,51.184858"
       orientation="0,1"
       id="guide1656"
       inkscape:locked="false" />
    <sodipodi:guide
       position="10.779695,63.764586"
       orientation="1,0"
       id="guide2091"
       inkscape:locked="false" />
    <sodipodi:guide
       position="162.5224,86.972468"
       orientation="1,0"
       id="guide2093"
       inkscape:locked="false" />
  </sodipodi:namedview>
  <defs
     id="defs2" />
  <metadata
     id="metadata5">
    <rdf:RDF>
      <cc:Work
         rdf:about="">
        <dc:format>image/svg+xml</dc:format>
        <dc:type
           rdf:resource="http://purl.org/dc/dcmitype/StillImage" />
        <dc:title />
      </cc:Work>
    </rdf:RDF>
  </metadata>
  <g
     inkscape:label="Sezione Lavaggio"
     inkscape:groupmode="layer"
     id="layer1"
     transform="translate(0,-156.24165)">
    <path
       style="opacity:1;fill:#0000ff;fill-opacity:1;fill-rule:nonzero;stroke:none;stroke-width:1.42512119;stroke-linecap:round;stroke-linejoin:round;stroke-miterlimit:4;stroke-dasharray:none;stroke-opacity:1;paint-order:markers fill stroke"
       d="m 143.54714,239.77861 c -2.86004,0 -5.16252,2.30249 -5.16252,5.16253 v 28.19488 c 0,2.86005 2.30248,5.16252 5.16252,5.16252 h 18.65746 c 2.86004,0 5.16253,-2.30247 5.16253,-5.16252 v -28.19488 c 0,-2.86004 -2.30249,-5.16253 -5.16253,-5.16253 z"
       id="path2744"
       inkscape:connector-curvature="0" />
    <path
       style="opacity:1;fill:#ffffff;fill-opacity:1;fill-rule:nonzero;stroke:none;stroke-width:22.96142578;stroke-linecap:round;stroke-linejoin:round;stroke-miterlimit:4;stroke-dasharray:none;stroke-opacity:1;paint-order:markers fill stroke"
       d="M 577.79883,331.02344 A 36.727382,36.727382 0 0 0 541.07227,367.75 v 4.26562 h 73.45312 V 367.75 a 36.727382,36.727382 0 0 0 -36.72656,-36.72656 z"
       transform="matrix(0.26458333,0,0,0.26458333,0,156.24165)"
       id="path2746"
       inkscape:connector-curvature="0" />
    <path
       style="opacity:1;fill:#0000ff;fill-opacity:1;fill-rule:nonzero;stroke:none;stroke-width:5.36876678;stroke-linecap:round;stroke-linejoin:round;stroke-miterlimit:4;stroke-dasharray:none;stroke-opacity:1;paint-order:markers fill stroke"
       d="m 152.87586,244.95495 a 8.5874776,8.5874776 0 0 0 -8.58741,8.58743 h 17.17483 a 8.5874776,8.5874776 0 0 0 -8.58742,-8.58743 z"
       id="path2748"
       inkscape:connector-curvature="0" />
    <circle
       inkscape:transform-center-y="-1.7530472"
       inkscape:transform-center-x="6.819974"
       r="0.79512674"
       cy="260.92801"
       cx="129.02252"
       id="circle2750"
       style="opacity:1;fill:#ffffff;fill-opacity:1;fill-rule:nonzero;stroke:none;stroke-width:1.3599999;stroke-linecap:round;stroke-linejoin:round;stroke-miterlimit:4;stroke-dasharray:none;stroke-opacity:1;paint-order:markers fill stroke"
       transform="rotate(-3.8055679)" />
    <circle
       inkscape:transform-center-y="-4.9280907"
       inkscape:transform-center-x="5.0297663"
       r="0.79512674"
       cy="157.81981"
       cx="242.40565"
       id="circle2752"
       style="opacity:1;fill:#ffffff;fill-opacity:1;fill-rule:nonzero;stroke:none;stroke-width:1.3599999;stroke-linecap:round;stroke-linejoin:round;stroke-miterlimit:4;stroke-dasharray:none;stroke-opacity:1;paint-order:markers fill stroke"
       transform="rotate(26.194432)" />
    <circle
       style="opacity:1;fill:#ffffff;fill-opacity:1;fill-rule:nonzero;stroke:none;stroke-width:1.3599999;stroke-linecap:round;stroke-linejoin:round;stroke-miterlimit:4;stroke-dasharray:none;stroke-opacity:1;paint-order:markers fill stroke"
       id="circle2754"
       cx="289.04416"
       cy="11.833951"
       r="0.79512674"
       inkscape:transform-center-x="1.8918824"
       inkscape:transform-center-y="-6.7826418"
       transform="rotate(56.194432)" />
    <circle
       transform="rotate(86.194432)"
       inkscape:transform-center-y="-6.8197807"
       inkscape:transform-center-x="-1.7528902"
       r="0.79512674"
       cy="-137.91278"
       cx="256.44144"
       id="circle2758"
       style="opacity:1;fill:#ffffff;fill-opacity:1;fill-rule:nonzero;stroke:none;stroke-width:1.3599999;stroke-linecap:round;stroke-linejoin:round;stroke-miterlimit:4;stroke-dasharray:none;stroke-opacity:1;paint-order:markers fill stroke" />
    <circle
       style="opacity:1;fill:#ffffff;fill-opacity:1;fill-rule:nonzero;stroke:none;stroke-width:1.3599999;stroke-linecap:round;stroke-linejoin:round;stroke-miterlimit:4;stroke-dasharray:none;stroke-opacity:1;paint-order:markers fill stroke"
       id="circle2760"
       cx="153.33325"
       cy="-251.29588"
       r="0.79512674"
       inkscape:transform-center-x="-4.9279087"
       inkscape:transform-center-y="-5.0295916"
       transform="rotate(116.19443)" />
    <circle
       transform="rotate(146.19443)"
       inkscape:transform-center-y="-1.8917156"
       inkscape:transform-center-x="-6.7824722"
       r="0.79512674"
       cy="-297.93439"
       cx="7.3473768"
       id="circle2762"
       style="opacity:1;fill:#ffffff;fill-opacity:1;fill-rule:nonzero;stroke:none;stroke-width:1.3599999;stroke-linecap:round;stroke-linejoin:round;stroke-miterlimit:4;stroke-dasharray:none;stroke-opacity:1;paint-order:markers fill stroke" />
    <circle
       style="opacity:1;fill:#ffffff;fill-opacity:1;fill-rule:nonzero;stroke:none;stroke-width:1.3599999;stroke-linecap:round;stroke-linejoin:round;stroke-miterlimit:4;stroke-dasharray:none;stroke-opacity:1;paint-order:markers fill stroke"
       id="circle2764"
       cx="7.3473768"
       cy="-297.93439"
       r="0.79512674"
       inkscape:transform-center-x="-6.7824722"
       inkscape:transform-center-y="-1.8917156"
       transform="rotate(146.19443)" />
    <path
       style="opacity:1;fill:#ffffff;fill-opacity:1;fill-rule:nonzero;stroke:none;stroke-width:1.3599999;stroke-linecap:round;stroke-linejoin:round;stroke-miterlimit:4;stroke-dasharray:none;stroke-opacity:1;paint-order:markers fill stroke"
       inkscape:transform-center-x="1.6199748"
       inkscape:transform-center-y="-0.86637421"
       d="m 153.47865,252.3011 c -0.2873,0.33214 -0.78943,0.36846 -1.12156,0.0812 -0.33212,-0.28729 -3.57633,-3.11242 -3.57633,-3.11242 0,0 4.28458,1.62244 4.6167,1.90973 0.33212,0.2873 0.36847,0.78943 0.0812,1.12155 z"
       id="path2766"
       inkscape:connector-curvature="0"
       sodipodi:nodetypes="ccccc" />
    <path
       inkscape:connector-curvature="0"
       id="path2768"
       d="m 145.73869,259.03906 a 2.6942363,2.1943443 0 0 0 -2.69422,2.19434 h 0.6302 a 2.0639737,1.6810214 0 0 1 2.06402,-1.68098 2.0639737,1.6810214 0 0 1 2.06403,1.68098 2.6942363,2.1943443 0 0 0 2.69421,2.19432 2.6942363,2.1943443 0 0 0 2.69421,-2.19432 2.0639737,1.6810214 0 0 1 0.01,-0.16784 2.0639737,1.6810214 0 0 1 2.05368,-1.51313 2.0639737,1.6810214 0 0 1 2.06402,1.68098 2.6942363,2.1943443 0 0 0 2.5037,2.18882 2.6942363,2.1943443 0 0 0 0.19052,0.005 2.6942363,2.1943443 0 0 0 2.69422,-2.19431 h -0.6302 a 2.0639737,1.6810214 0 0 1 -2.06402,1.68096 2.0639737,1.6810214 0 0 1 -2.06403,-1.68096 2.6942363,2.1943443 0 0 0 -2.69421,-2.19434 2.6942363,2.1943443 0 0 0 -2.68748,2.03908 2.6942363,2.1943443 0 0 0 -0.006,0.15526 2.0639737,1.6810214 0 0 1 -2.06402,1.68096 2.0639737,1.6810214 0 0 1 -2.06402,-1.68096 2.6942363,2.1943443 0 0 0 -2.69422,-2.19434 z"
       style="opacity:1;fill:#ffffff;fill-opacity:1;fill-rule:nonzero;stroke:none;stroke-width:0.7600615;stroke-linecap:round;stroke-linejoin:round;stroke-miterlimit:4;stroke-dasharray:none;stroke-opacity:1;paint-order:markers fill stroke" />
    <path
       inkscape:connector-curvature="0"
       id="path2770"
       d="m 145.73869,263.42772 a 2.6942363,2.1943443 0 0 0 -2.69422,2.19434 h 0.6302 a 2.0639737,1.6810214 0 0 1 2.06402,-1.68097 2.0639737,1.6810214 0 0 1 2.06403,1.68097 2.6942363,2.1943443 0 0 0 2.69421,2.19433 2.6942363,2.1943443 0 0 0 2.69421,-2.19433 2.0639737,1.6810214 0 0 1 0.01,-0.16784 2.0639737,1.6810214 0 0 1 2.05368,-1.51313 2.0639737,1.6810214 0 0 1 2.06402,1.68097 2.6942363,2.1943443 0 0 0 2.5037,2.18882 2.6942363,2.1943443 0 0 0 0.19052,0.005 2.6942363,2.1943443 0 0 0 2.69422,-2.19431 h -0.6302 a 2.0639737,1.6810214 0 0 1 -2.06402,1.68097 2.0639737,1.6810214 0 0 1 -2.06403,-1.68097 2.6942363,2.1943443 0 0 0 -2.69421,-2.19434 2.6942363,2.1943443 0 0 0 -2.68748,2.03908 2.6942363,2.1943443 0 0 0 -0.006,0.15526 2.0639737,1.6810214 0 0 1 -2.06402,1.68097 2.0639737,1.6810214 0 0 1 -2.06402,-1.68097 2.6942363,2.1943443 0 0 0 -2.69422,-2.19434 z"
       style="opacity:1;fill:#ffffff;fill-opacity:1;fill-rule:nonzero;stroke:none;stroke-width:0.7600615;stroke-linecap:round;stroke-linejoin:round;stroke-miterlimit:4;stroke-dasharray:none;stroke-opacity:1;paint-order:markers fill stroke" />
    <path
       inkscape:connector-curvature="0"
       id="path2772"
       d="m 145.73869,267.81638 a 2.6942363,2.1943443 0 0 0 -2.69422,2.19433 h 0.6302 a 2.0639737,1.6810214 0 0 1 2.06402,-1.68097 2.0639737,1.6810214 0 0 1 2.06403,1.68097 2.6942363,2.1943443 0 0 0 2.69421,2.19432 2.6942363,2.1943443 0 0 0 2.69421,-2.19432 2.0639737,1.6810214 0 0 1 0.01,-0.16784 2.0639737,1.6810214 0 0 1 2.05368,-1.51313 2.0639737,1.6810214 0 0 1 2.06402,1.68097 2.6942363,2.1943443 0 0 0 2.5037,2.18883 2.6942363,2.1943443 0 0 0 0.19052,0.005 2.6942363,2.1943443 0 0 0 2.69422,-2.19432 h -0.6302 a 2.0639737,1.6810214 0 0 1 -2.06402,1.68097 2.0639737,1.6810214 0 0 1 -2.06403,-1.68097 2.6942363,2.1943443 0 0 0 -2.69421,-2.19434 2.6942363,2.1943443 0 0 0 -2.68748,2.03908 2.6942363,2.1943443 0 0 0 -0.006,0.15526 2.0639737,1.6810214 0 0 1 -2.06402,1.68097 2.0639737,1.6810214 0 0 1 -2.06402,-1.68097 2.6942363,2.1943443 0 0 0 -2.69422,-2.19434 z"
       style="opacity:1;fill:#ffffff;fill-opacity:1;fill-rule:nonzero;stroke:none;stroke-width:0.7600615;stroke-linecap:round;stroke-linejoin:round;stroke-miterlimit:4;stroke-dasharray:none;stroke-opacity:1;paint-order:markers fill stroke" />
    <circle
       transform="rotate(-3.8055679)"
       style="opacity:1;fill:#ffffff;fill-opacity:1;fill-rule:nonzero;stroke:none;stroke-width:0.58333373;stroke-linecap:round;stroke-linejoin:round;stroke-miterlimit:4;stroke-dasharray:none;stroke-opacity:1;paint-order:markers fill stroke"
       id="circle2774"
       cx="132.48691"
       cy="269.9361"
       r="0.34104726"
       inkscape:transform-center-x="2.925238"
       inkscape:transform-center-y="-0.75192081" />
    <circle
       transform="rotate(-3.8055679)"
       style="opacity:1;fill:#ffffff;fill-opacity:1;fill-rule:nonzero;stroke:none;stroke-width:0.58333373;stroke-linecap:round;stroke-linejoin:round;stroke-miterlimit:4;stroke-dasharray:none;stroke-opacity:1;paint-order:markers fill stroke"
       id="circle2776"
       cx="128.94962"
       cy="271.78903"
       r="0.34104726"
       inkscape:transform-center-x="2.925238"
       inkscape:transform-center-y="-0.75191324" />
    <circle
       transform="rotate(-3.8055679)"
       style="opacity:1;fill:#ffffff;fill-opacity:1;fill-rule:nonzero;stroke:none;stroke-width:0.58333373;stroke-linecap:round;stroke-linejoin:round;stroke-miterlimit:4;stroke-dasharray:none;stroke-opacity:1;paint-order:markers fill stroke"
       id="circle2778"
       cx="131.79889"
       cy="273.80157"
       r="0.34104726"
       inkscape:transform-center-x="2.9252352"
       inkscape:transform-center-y="-0.7519273" />
    <circle
       transform="rotate(-3.8055679)"
       style="opacity:1;fill:#ffffff;fill-opacity:1;fill-rule:nonzero;stroke:none;stroke-width:0.58333373;stroke-linecap:round;stroke-linejoin:round;stroke-miterlimit:4;stroke-dasharray:none;stroke-opacity:1;paint-order:markers fill stroke"
       id="circle2780"
       cx="128.76968"
       cy="274.99222"
       r="0.34104726"
       inkscape:transform-center-x="2.9252323"
       inkscape:transform-center-y="-0.75192187" />
    <circle
       transform="rotate(-3.8055679)"
       style="opacity:1;fill:#ffffff;fill-opacity:1;fill-rule:nonzero;stroke:none;stroke-width:0.58333373;stroke-linecap:round;stroke-linejoin:round;stroke-miterlimit:4;stroke-dasharray:none;stroke-opacity:1;paint-order:markers fill stroke"
       id="circle2782"
       cx="127.93021"
       cy="281.13467"
       r="0.34104726"
       inkscape:transform-center-x="2.925246"
       inkscape:transform-center-y="-0.75192735" />
    <circle
       transform="rotate(-3.8055679)"
       style="opacity:1;fill:#ffffff;fill-opacity:1;fill-rule:nonzero;stroke:none;stroke-width:0.58333373;stroke-linecap:round;stroke-linejoin:round;stroke-miterlimit:4;stroke-dasharray:none;stroke-opacity:1;paint-order:markers fill stroke"
       id="circle2784"
       cx="132.17578"
       cy="278.59967"
       r="0.34104726"
       inkscape:transform-center-x="2.9252364"
       inkscape:transform-center-y="-0.75192696" />
    <circle
       transform="rotate(-3.8055679)"
       style="opacity:1;fill:#ffffff;fill-opacity:1;fill-rule:nonzero;stroke:none;stroke-width:0.58333373;stroke-linecap:round;stroke-linejoin:round;stroke-miterlimit:4;stroke-dasharray:none;stroke-opacity:1;paint-order:markers fill stroke"
       id="circle2786"
       cx="138.06683"
       cy="275.24603"
       r="0.34104726"
       inkscape:transform-center-x="2.9252416"
       inkscape:transform-center-y="-0.75192359" />
    <circle
       transform="rotate(-3.8055679)"
       style="opacity:1;fill:#ffffff;fill-opacity:1;fill-rule:nonzero;stroke:none;stroke-width:0.58333373;stroke-linecap:round;stroke-linejoin:round;stroke-miterlimit:4;stroke-dasharray:none;stroke-opacity:1;paint-order:markers fill stroke"
       id="circle2788"
       cx="138.24222"
       cy="271.11444"
       r="0.34104726"
       inkscape:transform-center-x="2.9252414"
       inkscape:transform-center-y="-0.75191593" />
    <circle
       transform="rotate(-3.8055679)"
       style="opacity:1;fill:#ffffff;fill-opacity:1;fill-rule:nonzero;stroke:none;stroke-width:0.58333373;stroke-linecap:round;stroke-linejoin:round;stroke-miterlimit:4;stroke-dasharray:none;stroke-opacity:1;paint-order:markers fill stroke"
       id="circle2790"
       cx="142.82437"
       cy="268.50238"
       r="0.34104726"
       inkscape:transform-center-x="2.925239"
       inkscape:transform-center-y="-0.75192276" />
    <circle
       transform="rotate(-3.8055679)"
       style="opacity:1;fill:#ffffff;fill-opacity:1;fill-rule:nonzero;stroke:none;stroke-width:0.58333373;stroke-linecap:round;stroke-linejoin:round;stroke-miterlimit:4;stroke-dasharray:none;stroke-opacity:1;paint-order:markers fill stroke"
       id="circle2792"
       cx="141.54742"
       cy="276.73709"
       r="0.34104726"
       inkscape:transform-center-x="2.9252366"
       inkscape:transform-center-y="-0.75191842" />
    <circle
       transform="rotate(-3.8055679)"
       style="opacity:1;fill:#ffffff;fill-opacity:1;fill-rule:nonzero;stroke:none;stroke-width:0.58333373;stroke-linecap:round;stroke-linejoin:round;stroke-miterlimit:4;stroke-dasharray:none;stroke-opacity:1;paint-order:markers fill stroke"
       id="circle2794"
       cx="141.03961"
       cy="279.38815"
       r="0.34104726"
       inkscape:transform-center-x="2.9252327"
       inkscape:transform-center-y="-0.75192048" />
    <circle
       transform="rotate(-3.8055679)"
       style="opacity:1;fill:#ffffff;fill-opacity:1;fill-rule:nonzero;stroke:none;stroke-width:0.58333373;stroke-linecap:round;stroke-linejoin:round;stroke-miterlimit:4;stroke-dasharray:none;stroke-opacity:1;paint-order:markers fill stroke"
       id="circle2796"
       cx="137.07339"
       cy="281.70972"
       r="0.34104726"
       inkscape:transform-center-x="2.9252347"
       inkscape:transform-center-y="-0.751922" />
    <circle
       transform="rotate(-3.8055679)"
       style="opacity:1;fill:#ffffff;fill-opacity:1;fill-rule:nonzero;stroke:none;stroke-width:0.58333373;stroke-linecap:round;stroke-linejoin:round;stroke-miterlimit:4;stroke-dasharray:none;stroke-opacity:1;paint-order:markers fill stroke"
       id="circle2798"
       cx="135.36703"
       cy="272.48105"
       r="0.34104726"
       inkscape:transform-center-x="2.9252416"
       inkscape:transform-center-y="-0.75192131" />
    <circle
       transform="rotate(-3.8055679)"
       style="opacity:1;fill:#ffffff;fill-opacity:1;fill-rule:nonzero;stroke:none;stroke-width:0.58333373;stroke-linecap:round;stroke-linejoin:round;stroke-miterlimit:4;stroke-dasharray:none;stroke-opacity:1;paint-order:markers fill stroke"
       id="circle2800"
       cx="142.68887"
       cy="274.52594"
       r="0.34104726"
       inkscape:transform-center-x="2.9252328"
       inkscape:transform-center-y="-0.75192272" />
    <circle
       transform="rotate(-3.8055679)"
       style="opacity:1;fill:#ffffff;fill-opacity:1;fill-rule:nonzero;stroke:none;stroke-width:0.58333373;stroke-linecap:round;stroke-linejoin:round;stroke-miterlimit:4;stroke-dasharray:none;stroke-opacity:1;paint-order:markers fill stroke"
       id="circle2802"
       cx="142.10767"
       cy="271.80246"
       r="0.34104726"
       inkscape:transform-center-x="2.9252391"
       inkscape:transform-center-y="-0.75191757" />
    <circle
       transform="rotate(-3.8055679)"
       style="opacity:1;fill:#ffffff;fill-opacity:1;fill-rule:nonzero;stroke:none;stroke-width:0.58333373;stroke-linecap:round;stroke-linejoin:round;stroke-miterlimit:4;stroke-dasharray:none;stroke-opacity:1;paint-order:markers fill stroke"
       id="circle2804"
       cx="135.27396"
       cy="267.90073"
       r="0.34104726"
       inkscape:transform-center-x="2.9252389"
       inkscape:transform-center-y="-0.75192041" />
    <circle
       transform="rotate(-3.8055679)"
       style="opacity:1;fill:#ffffff;fill-opacity:1;fill-rule:nonzero;stroke:none;stroke-width:0.58333373;stroke-linecap:round;stroke-linejoin:round;stroke-miterlimit:4;stroke-dasharray:none;stroke-opacity:1;paint-order:markers fill stroke"
       id="circle2806"
       cx="136.61972"
       cy="278.56381"
       r="0.34104726"
       inkscape:transform-center-x="2.9252447"
       inkscape:transform-center-y="-0.75192629" />
    <g
       id="g6046"
       transform="matrix(0.35369677,0,0,0.35369677,77.391848,168.88184)">
      <path
         style="opacity:1;fill:#0000ff;fill-opacity:1;fill-rule:nonzero;stroke:none;stroke-width:4.01548481;stroke-linecap:round;stroke-linejoin:round;stroke-miterlimit:4;stroke-dasharray:none;stroke-opacity:1;paint-order:markers fill stroke"
         d="m 56.460829,172.35801 c -8.058575,0 -14.546142,6.4876 -14.546142,14.54617 v 79.44312 c 0,8.0586 6.487567,14.54617 14.546142,14.54617 h 52.570091 c 8.05857,0 14.54617,-6.48757 14.54617,-14.54617 v -79.44312 c 0,-8.05857 -6.4876,-14.54617 -14.54617,-14.54617 z"
         id="path2105"
         inkscape:connector-curvature="0" />
      <path
         inkscape:connector-curvature="0"
         id="rect6434-8"
         d="m 81.02046,186.58486 c -3.118853,0 -5.629113,2.51024 -5.629113,5.62912 v 45.22079 a 15.161644,15.161644 0 0 0 -9.531361,14.07135 15.161644,15.161644 0 0 0 15.160474,15.16047 15.161644,15.161644 0 0 0 15.161947,-15.16047 15.161644,15.161644 0 0 0 -9.531361,-14.06552 v -45.22662 c 0,-3.11888 -2.511707,-5.62912 -5.630586,-5.62912 z m 8.611146,5.75289 c -0.186528,0 -0.336339,0.1499 -0.336339,0.33635 0,0.18652 0.149899,0.33634 0.336339,0.33634 h 9.663844 c 0.186528,0 0.336371,-0.1499 0.336371,-0.33634 0,-0.18653 -0.149899,-0.33635 -0.336371,-0.33635 z m 0,7.61227 c -0.186528,0 -0.336339,0.14989 -0.336339,0.33634 0,0.18653 0.149899,0.33634 0.336339,0.33634 h 9.663844 c 0.186528,0 0.336371,-0.1499 0.336371,-0.33634 0,-0.18653 -0.149899,-0.33634 -0.336371,-0.33634 z m 0,7.61226 c -0.186528,0 -0.336339,0.14989 -0.336339,0.33637 0,0.18652 0.149899,0.33634 0.336339,0.33634 h 9.663844 c 0.186528,0 0.336371,-0.1499 0.336371,-0.33634 0,-0.18653 -0.149899,-0.33637 -0.336371,-0.33637 z m 0,7.61228 c -0.186528,0 -0.336339,0.1499 -0.336339,0.33635 0,0.18652 0.149899,0.33634 0.336339,0.33634 h 9.663844 c 0.186528,0 0.336371,-0.1499 0.336371,-0.33634 0,-0.18653 -0.149899,-0.33635 -0.336371,-0.33635 z m 0,7.61227 c -0.186528,0 -0.336339,0.14989 -0.336339,0.33634 0,0.18653 0.149899,0.33637 0.336339,0.33637 h 9.663844 c 0.186528,0 0.336371,-0.1499 0.336371,-0.33637 0,-0.18653 -0.149899,-0.33634 -0.336371,-0.33634 z m 0,7.61226 c -0.186528,0 -0.336339,0.14989 -0.336339,0.33637 0,0.18652 0.149899,0.33634 0.336339,0.33634 h 9.663844 c 0.186528,0 0.336371,-0.1499 0.336371,-0.33634 0,-0.18653 -0.149899,-0.33637 -0.336371,-0.33637 z"
         style="opacity:1;fill:#ffffff;fill-opacity:1;fill-rule:nonzero;stroke:none;stroke-width:10.59788513;stroke-linecap:round;stroke-linejoin:round;stroke-miterlimit:4;stroke-dasharray:none;stroke-opacity:1;paint-order:markers fill stroke" />
    </g>
    <path
       style="opacity:1;fill:#0000ff;fill-opacity:1;fill-rule:nonzero;stroke:none;stroke-width:3.19999981;stroke-linecap:round;stroke-linejoin:round;stroke-miterlimit:4;stroke-dasharray:none;stroke-opacity:1;paint-order:markers fill stroke"
       d="m 38.008008,166.59954 c -8.60569,0.0967 -11.60291,2.53842 -11.60291,5.826 0.0967,5.12473 3.751697,6.98395 6.47454,7.48274 2.722843,0.49879 3.988235,0.88002 5.41207,2.15853 1.423835,1.27851 -0.022,6.80683 1.8557,6.88847 2.63234,0 2.11977,-1.53858 2.11977,-9.4356 0,-3.99978 0.86758,-12.82344 -4.25917,-12.92014 z m 22.89214,12.86019 c -5.12472,0.0967 -6.98394,3.75171 -7.48274,6.47454 -0.4988,2.72283 -0.88003,3.98824 -2.15853,5.41208 -1.2785,1.42384 -6.80682,-0.022 -6.88847,1.8557 0,2.63234 1.53858,2.11976 9.4356,2.11976 3.99978,0 12.82345,0.86758 12.92014,-4.25917 -0.0967,-8.6057 -2.53841,-11.60291 -5.826,-11.60291 z m -48.26837,6.50968 c -2.19869,0 -3.9687497,1.77006 -3.9687497,3.96875 v 4.85862 c 0,1.77417 1.15306,3.2679 2.7533197,3.7791 -0.0648,-0.89317 -0.10479,-1.84622 -0.11627,-2.86804 0.0871,-4.61734 6.06909,-5.18557 11.08098,-5.18056 1.67062,0.001 3.23306,0.0661 4.43383,0.0661 6.75386,0 9.63331,-0.31107 10.73217,0.65112 v -1.30638 c 0,-2.19869 -1.77007,-3.96875 -3.96875,-3.96875 z m 27.50375,4.70669 c -1.388486,-2e-5 -2.514081,1.12557 -2.51406,2.51406 -2.1e-5,1.38849 1.125574,2.51408 2.51406,2.51406 1.388486,2e-5 2.514081,-1.12557 2.51406,-2.51406 2.1e-5,-1.38849 -1.125574,-2.51408 -2.51406,-2.51406 z m -17.36277,0.32711 c -4.17362,-0.004 -9.15533,0.46889 -9.22786,4.31395 0.0967,8.6057 2.53842,11.60343 5.82601,11.60343 5.12471,-0.0967 6.983946,-3.75171 7.48274,-6.47454 0.498794,-2.72283 0.88002,-3.98824 2.15853,-5.41207 1.27851,-1.42383 6.80682,0.022 6.88847,-1.8557 0,-2.63234 -1.53858,-2.11977 -9.4356,-2.11977 -0.99995,0 -2.30108,-0.0541 -3.69229,-0.0553 z m 14.7743,3.00344 c -1.71313,0.96049 -6.25121,-0.22273 -7.67344,1.36116 -1.42223,1.58389 -1.993113,3.22912 -2.59209,6.49882 -0.598977,3.2697 -2.83148,7.6586 -8.98549,7.77472 -1.76584,0 -3.32752,-0.72288 -4.52583,-2.44377 v 67.69767 c 0,1.75895 1.41605,3.175 3.175,3.175 h 12.48813 c 0.15887,0 0.31363,-0.0154 0.46612,-0.0377 v -8.8315 c 0,-1.84057 1.11485,-3.41077 2.70888,-4.07572 v -66.3598 h 0.96997 c 2.19868,0 3.96875,-1.77006 3.96875,-3.96875 z m 2.57658,3.4184 c -2.63234,0 -2.11976,1.53857 -2.11976,9.43559 0,3.99979 -0.8681,12.82345 4.25865,12.92015 8.6057,-0.0967 11.60343,-2.53842 11.60343,-5.826 -0.0967,-5.12474 -3.751692,-6.98396 -6.47454,-7.48275 -2.722848,-0.49879 -3.98825,-0.88053 -5.41208,-2.15904 -1.42383,-1.27851 0.022,-6.80632 -1.8557,-6.88795 z"
       id="rect7005"
       inkscape:connector-curvature="0"
       sodipodi:nodetypes="cczzcscczzcscccsscccscscccccccccczzcscczzccssscsccssccscczzc" />
    <rect
       style="opacity:1;fill:#0000ff;fill-opacity:1;fill-rule:nonzero;stroke:none;stroke-width:3.96683002;stroke-linecap:round;stroke-linejoin:round;stroke-miterlimit:4;stroke-dasharray:none;stroke-opacity:1;paint-order:markers fill stroke"
       id="rect6472"
       width="28.88368"
       height="38.388649"
       x="45.983234"
       y="222.91664"
       ry="5.1449385" />
    <path
       style="opacity:1;fill:#ffffff;fill-opacity:1;fill-rule:nonzero;stroke:none;stroke-width:22.96142578;stroke-linecap:round;stroke-linejoin:round;stroke-miterlimit:4;stroke-dasharray:none;stroke-opacity:1;paint-order:markers fill stroke"
       d="m 228.37891,267.04492 a 36.727382,36.727382 0 0 0 -36.72657,36.72656 v 4.26563 h 73.45313 v -4.26563 a 36.727382,36.727382 0 0 0 -36.72656,-36.72656 z"
       transform="matrix(0.26458333,0,0,0.26458333,0,156.24165)"
       id="path6474"
       inkscape:connector-curvature="0" />
    <path
       style="opacity:1;fill:#0000ff;fill-opacity:1;fill-rule:nonzero;stroke:none;stroke-width:5.36876678;stroke-linecap:round;stroke-linejoin:round;stroke-miterlimit:4;stroke-dasharray:none;stroke-opacity:1;paint-order:markers fill stroke"
       d="m 60.425062,228.02734 a 8.5874776,8.5874776 0 0 0 -8.58741,8.58742 h 17.17483 a 8.5874776,8.5874776 0 0 0 -8.58742,-8.58742 z"
       id="path6476"
       inkscape:connector-curvature="0" />
    <circle
       inkscape:transform-center-y="-1.7530472"
       inkscape:transform-center-x="6.819974"
       r="0.79512674"
       cy="237.90169"
       cx="37.899097"
       id="circle6478"
       style="opacity:1;fill:#ffffff;fill-opacity:1;fill-rule:nonzero;stroke:none;stroke-width:1.3599999;stroke-linecap:round;stroke-linejoin:round;stroke-miterlimit:4;stroke-dasharray:none;stroke-opacity:1;paint-order:markers fill stroke"
       transform="rotate(-3.8055679)" />
    <circle
       inkscape:transform-center-y="-4.9280907"
       inkscape:transform-center-x="5.0297663"
       r="0.79512674"
       cy="183.44017"
       cx="151.97725"
       id="circle6480"
       style="opacity:1;fill:#ffffff;fill-opacity:1;fill-rule:nonzero;stroke:none;stroke-width:1.3599999;stroke-linecap:round;stroke-linejoin:round;stroke-miterlimit:4;stroke-dasharray:none;stroke-opacity:1;paint-order:markers fill stroke"
       transform="rotate(26.194432)" />
    <circle
       style="opacity:1;fill:#ffffff;fill-opacity:1;fill-rule:nonzero;stroke:none;stroke-width:1.3599999;stroke-linecap:round;stroke-linejoin:round;stroke-miterlimit:4;stroke-dasharray:none;stroke-opacity:1;paint-order:markers fill stroke"
       id="circle6482"
       cx="223.54108"
       cy="79.236023"
       r="0.79512674"
       inkscape:transform-center-x="1.8918824"
       inkscape:transform-center-y="-6.7826418"
       transform="rotate(56.194432)" />
    <circle
       transform="rotate(86.194432)"
       inkscape:transform-center-y="-6.8197807"
       inkscape:transform-center-x="-1.7528902"
       r="0.79512674"
       cy="-46.789341"
       cx="233.41512"
       id="circle6486"
       style="opacity:1;fill:#ffffff;fill-opacity:1;fill-rule:nonzero;stroke:none;stroke-width:1.3599999;stroke-linecap:round;stroke-linejoin:round;stroke-miterlimit:4;stroke-dasharray:none;stroke-opacity:1;paint-order:markers fill stroke" />
    <circle
       style="opacity:1;fill:#ffffff;fill-opacity:1;fill-rule:nonzero;stroke:none;stroke-width:1.3599999;stroke-linecap:round;stroke-linejoin:round;stroke-miterlimit:4;stroke-dasharray:none;stroke-opacity:1;paint-order:markers fill stroke"
       id="circle6488"
       cx="178.9536"
       cy="-160.86748"
       r="0.79512674"
       inkscape:transform-center-x="-4.9279087"
       inkscape:transform-center-y="-5.0295916"
       transform="rotate(116.19443)" />
    <circle
       transform="rotate(146.19443)"
       inkscape:transform-center-y="-1.8917156"
       inkscape:transform-center-x="-6.7824722"
       r="0.79512674"
       cy="-232.4313"
       cx="74.749435"
       id="circle6490"
       style="opacity:1;fill:#ffffff;fill-opacity:1;fill-rule:nonzero;stroke:none;stroke-width:1.3599999;stroke-linecap:round;stroke-linejoin:round;stroke-miterlimit:4;stroke-dasharray:none;stroke-opacity:1;paint-order:markers fill stroke" />
    <circle
       style="opacity:1;fill:#ffffff;fill-opacity:1;fill-rule:nonzero;stroke:none;stroke-width:1.3599999;stroke-linecap:round;stroke-linejoin:round;stroke-miterlimit:4;stroke-dasharray:none;stroke-opacity:1;paint-order:markers fill stroke"
       id="circle6492"
       cx="74.749435"
       cy="-232.4313"
       r="0.79512674"
       inkscape:transform-center-x="-6.7824722"
       inkscape:transform-center-y="-1.8917156"
       transform="rotate(146.19443)" />
    <path
       style="opacity:1;fill:#ffffff;fill-opacity:1;fill-rule:nonzero;stroke:none;stroke-width:1.3599999;stroke-linecap:round;stroke-linejoin:round;stroke-miterlimit:4;stroke-dasharray:none;stroke-opacity:1;paint-order:markers fill stroke"
       inkscape:transform-center-x="1.6199748"
       inkscape:transform-center-y="-0.86637421"
       d="m 61.027852,235.37349 c -0.2873,0.33213 -0.78943,0.36846 -1.12156,0.0812 -0.33212,-0.2873 -3.57633,-3.11243 -3.57633,-3.11243 0,0 4.28458,1.62244 4.6167,1.90974 0.33212,0.28729 0.36847,0.78942 0.0812,1.12154 z"
       id="path6494"
       inkscape:connector-curvature="0"
       sodipodi:nodetypes="ccccc" />
    <path
       style="opacity:1;fill:#ffffff;fill-opacity:1;fill-rule:nonzero;stroke:none;stroke-width:1.20776594;stroke-linecap:round;stroke-linejoin:round;stroke-miterlimit:4;stroke-dasharray:none;stroke-opacity:1;paint-order:markers fill stroke"
       d="m 52.213392,246.1397 a 2.0529393,2.0529393 0 0 1 -1.50553,1.97634 v 0.81685 a 2.0529393,2.0529393 0 0 0 1.50553,-1.97633 2.0529393,2.0529393 0 0 0 2.05287,2.05289 2.0529393,2.0529393 0 0 0 2.05304,-2.05289 2.0529393,2.0529393 0 0 0 2.05288,2.05289 2.0529393,2.0529393 0 0 0 2.05289,-2.05289 2.0529393,2.0529393 0 0 0 2.05304,2.05289 2.0529393,2.0529393 0 0 0 2.05289,-2.05289 2.0529393,2.0529393 0 0 0 2.05288,2.05289 2.0529393,2.0529393 0 0 0 2.05304,-2.05149 2.0529393,2.0529393 0 0 0 1.50536,1.97697 v -0.81687 a 2.0529393,2.0529393 0 0 1 -1.50536,-1.97695 2.0529393,2.0529393 0 0 1 -2.05304,2.05148 2.0529393,2.0529393 0 0 1 -2.05288,-2.05289 2.0529393,2.0529393 0 0 1 -2.05289,2.05289 2.0529393,2.0529393 0 0 1 -2.05304,-2.05289 2.0529393,2.0529393 0 0 1 -2.05289,2.05289 2.0529393,2.0529393 0 0 1 -2.05288,-2.05289 2.0529393,2.0529393 0 0 1 -2.05304,2.05289 2.0529393,2.0529393 0 0 1 -2.05287,-2.05289 z"
       id="path6496"
       inkscape:connector-curvature="0" />
    <path
       inkscape:connector-curvature="0"
       id="path6498"
       d="m 52.213392,249.00945 a 2.0529393,2.0529393 0 0 1 -1.50553,1.97633 v 0.81686 a 2.0529393,2.0529393 0 0 0 1.50553,-1.97633 2.0529393,2.0529393 0 0 0 2.05287,2.05289 2.0529393,2.0529393 0 0 0 2.05304,-2.05289 2.0529393,2.0529393 0 0 0 2.05288,2.05289 2.0529393,2.0529393 0 0 0 2.05289,-2.05289 2.0529393,2.0529393 0 0 0 2.05304,2.05289 2.0529393,2.0529393 0 0 0 2.05289,-2.05289 2.0529393,2.0529393 0 0 0 2.05288,2.05289 2.0529393,2.0529393 0 0 0 2.05304,-2.0515 2.0529393,2.0529393 0 0 0 1.50536,1.97696 v -0.81686 a 2.0529393,2.0529393 0 0 1 -1.50536,-1.97695 2.0529393,2.0529393 0 0 1 -2.05304,2.05148 2.0529393,2.0529393 0 0 1 -2.05288,-2.05288 2.0529393,2.0529393 0 0 1 -2.05289,2.05288 2.0529393,2.0529393 0 0 1 -2.05304,-2.05288 2.0529393,2.0529393 0 0 1 -2.05289,2.05288 2.0529393,2.0529393 0 0 1 -2.05288,-2.05288 2.0529393,2.0529393 0 0 1 -2.05304,2.05288 2.0529393,2.0529393 0 0 1 -2.05287,-2.05288 z"
       style="opacity:1;fill:#ffffff;fill-opacity:1;fill-rule:nonzero;stroke:none;stroke-width:1.20776594;stroke-linecap:round;stroke-linejoin:round;stroke-miterlimit:4;stroke-dasharray:none;stroke-opacity:1;paint-order:markers fill stroke" />
    <rect
       ry="4.018846"
       y="30.296175"
       x="-286.71338"
       height="8.0376921"
       width="21.491604"
       id="rect6680"
       style="opacity:1;fill:#0000ff;fill-opacity:1;fill-rule:nonzero;stroke:none;stroke-width:4.26990795;stroke-linecap:round;stroke-linejoin:round;stroke-miterlimit:4;stroke-dasharray:none;stroke-opacity:1;paint-order:markers fill stroke"
       transform="rotate(-90)" />
    <path
       style="opacity:1;fill:#0000ff;fill-opacity:1;fill-rule:nonzero;stroke:none;stroke-width:4;stroke-linecap:round;stroke-linejoin:round;stroke-miterlimit:4;stroke-dasharray:none;stroke-opacity:1;paint-order:markers fill stroke"
       d="m 55.794608,261.56759 c 0,1.19194 0.95935,2.15129 2.15129,2.15129 h 4.95784 c 1.19194,0 2.1518,-0.95935 2.1518,-2.15129 z"
       id="rect6683"
       inkscape:connector-curvature="0" />
    <path
       inkscape:connector-curvature="0"
       id="path6688"
       d="m 102.02,268.48987 c 0,1.19194 0.95935,2.15129 2.15129,2.15129 h 4.95784 c 1.19194,0 2.1518,-0.95935 2.1518,-2.15129 z"
       style="opacity:1;fill:#0000ff;fill-opacity:1;fill-rule:nonzero;stroke:none;stroke-width:4;stroke-linecap:round;stroke-linejoin:round;stroke-miterlimit:4;stroke-dasharray:none;stroke-opacity:1;paint-order:markers fill stroke" />
    <path
       style="opacity:1;fill:#0000ff;fill-opacity:1;fill-rule:nonzero;stroke:none;stroke-width:4;stroke-linecap:round;stroke-linejoin:round;stroke-miterlimit:4;stroke-dasharray:none;stroke-opacity:1;paint-order:markers fill stroke"
       d="m 148.2454,278.59266 c 0,1.19194 0.95935,2.15129 2.15129,2.15129 h 4.95784 c 1.19194,0 2.1518,-0.95935 2.1518,-2.15129 z"
       id="path6690"
       inkscape:connector-curvature="0" />
    <rect
       ry="2.8638601e-006"
       y="-153.30557"
       x="289.4321"
       height="38.424835"
       width="0.85989583"
       id="rect6694"
       style="opacity:1;fill:#0000ff;fill-opacity:1;fill-rule:nonzero;stroke:none;stroke-width:4.58567858;stroke-linecap:round;stroke-linejoin:round;stroke-miterlimit:4;stroke-dasharray:none;stroke-opacity:1;paint-order:markers fill stroke"
       transform="rotate(90)" />
    <path
       style="opacity:1;fill:#0000ff;fill-opacity:1;fill-rule:nonzero;stroke:none;stroke-width:1.73574257;stroke-linecap:round;stroke-linejoin:round;stroke-miterlimit:4;stroke-dasharray:none;stroke-opacity:1;paint-order:markers fill stroke"
       d="m 39.608568,269.90228 c 0,-0.51723 -0.41657,-0.9338 -0.93379,-0.9338 v 4.01888 c 0.51722,0 0.93379,-0.41657 0.93379,-0.93379 z m 0,5.1263 c 0,-0.51723 -0.41657,-0.93379 -0.93379,-0.93379 v 4.01887 c 0.51722,0 0.93379,-0.41657 0.93379,-0.93379 z m 0,5.1263 c 0,-0.51722 -0.41657,-0.93379 -0.93379,-0.93379 v 4.01887 c 0.51722,0 0.93379,-0.41656 0.93379,-0.93379 z"
       id="path6696"
       inkscape:connector-curvature="0" />
    <rect
       ry="5.6074703e-007"
       y="263.88428"
       x="59.995121"
       height="7.5236259"
       width="0.85989583"
       id="rect6705"
       style="opacity:1;fill:#0000ff;fill-opacity:1;fill-rule:nonzero;stroke:none;stroke-width:2.02913594;stroke-linecap:round;stroke-linejoin:round;stroke-miterlimit:4;stroke-dasharray:none;stroke-opacity:1;paint-order:markers fill stroke" />
    <rect
       style="opacity:1;fill:#0000ff;fill-opacity:1;fill-rule:nonzero;stroke:none;stroke-width:2.2268784;stroke-linecap:round;stroke-linejoin:round;stroke-miterlimit:4;stroke-dasharray:none;stroke-opacity:1;paint-order:markers fill stroke"
       id="rect6707"
       width="0.85989583"
       height="9.061451"
       x="114.02084"
       y="281.23053"
       ry="6.7536348e-007" />
    <rect
       style="opacity:1;fill:#0000ff;fill-opacity:1;fill-rule:nonzero;stroke:none;stroke-width:1.77392864;stroke-linecap:round;stroke-linejoin:round;stroke-miterlimit:4;stroke-dasharray:none;stroke-opacity:1;paint-order:markers fill stroke"
       id="rect6709"
       width="0.85989583"
       height="5.7501221"
       x="106.22052"
       y="270.78406"
       ry="4.2856516e-007" />
    <rect
       style="opacity:1;fill:#0000ff;fill-opacity:1;fill-rule:nonzero;stroke:none;stroke-width:3.388412;stroke-linecap:round;stroke-linejoin:round;stroke-miterlimit:4;stroke-dasharray:none;stroke-opacity:1;paint-order:markers fill stroke"
       id="rect6711"
       width="0.85989583"
       height="20.979603"
       x="-271.4079"
       y="39.795658"
       ry="1.5636409e-006"
       transform="rotate(-90)" />
    <rect
       transform="rotate(-90)"
       ry="5.0113476e-006"
       y="39.842442"
       x="-276.53418"
       height="67.237991"
       width="0.85989583"
       id="rect6713"
       style="opacity:1;fill:#0000ff;fill-opacity:1;fill-rule:nonzero;stroke:none;stroke-width:6.06603622;stroke-linecap:round;stroke-linejoin:round;stroke-miterlimit:4;stroke-dasharray:none;stroke-opacity:1;paint-order:markers fill stroke" />
    <path
       style="opacity:1;fill:#0000ff;fill-opacity:1;fill-rule:nonzero;stroke:none;stroke-width:2.92363644;stroke-linecap:round;stroke-linejoin:round;stroke-miterlimit:4;stroke-dasharray:none;stroke-opacity:1;paint-order:markers fill stroke"
       d="m 75.798978,168.55291 -5.3e-4,5.2e-4 a 8.2123387,8.2123387 0 0 0 -8.21241,8.21242 h 1.92081 a 6.2912264,6.2912264 0 0 1 6.2916,-6.29109 6.2912264,6.2912264 0 0 1 6.29161,6.29109 8.2123387,8.2123387 0 0 0 8.2119,8.21242 8.2123387,8.2123387 0 0 0 8.212415,-8.21242 6.2912264,6.2912264 0 0 1 0.0315,-0.62787 6.2912264,6.2912264 0 0 1 0.2496,-1.23144 6.2912264,6.2912264 0 0 1 1.19838,-2.19367 6.2912264,6.2912264 0 0 1 0.428907,-0.45992 6.2912264,6.2912264 0 0 1 4.38268,-1.77819 6.2912264,6.2912264 0 0 1 2.44998,0.49661 6.2912264,6.2912264 0 0 1 5.3e-4,0 6.2912264,6.2912264 0 0 1 1.60248,0.98289 6.2912264,6.2912264 0 0 1 5.3e-4,0 6.2912264,6.2912264 0 0 1 1.24076,1.41232 6.2912264,6.2912264 0 0 1 0.90588,2.33009 6.2912264,6.2912264 0 0 1 0.0915,1.06918 8.2123387,8.2123387 0 0 0 0.16382,1.63143 8.2123387,8.2123387 0 0 0 0.48472,1.56683 8.2123387,8.2123387 0 0 0 0.786,1.43867 8.2123387,8.2123387 0 0 0 1.67276,1.79627 8.2123387,8.2123387 0 0 0 5.3e-4,0 8.2123387,8.2123387 0 0 0 1.37925,0.88574 8.2123387,8.2123387 0 0 0 5.3e-4,0 8.2123387,8.2123387 0 0 0 0.74879,0.33538 8.2123387,8.2123387 0 0 0 5.3e-4,0 8.2123387,8.2123387 0 0 0 2.39468,0.53743 8.2123387,8.2123387 0 0 0 0.58084,0.0207 8.2123387,8.2123387 0 0 0 3.19774,-0.64853 8.2123387,8.2123387 0 0 0 5.3e-4,-5.3e-4 8.2123387,8.2123387 0 0 0 2.09186,-1.28209 8.2123387,8.2123387 0 0 0 5.3e-4,-5.3e-4 8.2123387,8.2123387 0 0 0 0.60048,-0.55966 8.2123387,8.2123387 0 0 0 0.54157,-0.6165 8.2123387,8.2123387 0 0 0 0,-5.3e-4 8.2123387,8.2123387 0 0 0 0.47749,-0.66714 8.2123387,8.2123387 0 0 0 0,-5.3e-4 8.2123387,8.2123387 0 0 0 0.40876,-0.71159 8.2123387,8.2123387 0 0 0 0,-5.2e-4 8.2123387,8.2123387 0 0 0 0.14986,-0.33487 8.2123387,8.2123387 0 0 0 0.18552,-0.41444 8.2123387,8.2123387 0 0 0 0.25838,-0.77825 8.2123387,8.2123387 0 0 0 0.26717,-1.51722 8.2123387,8.2123387 0 0 0 0.0119,-0.0987 8.2123387,8.2123387 0 0 0 0,-5.3e-4 8.2123387,8.2123387 0 0 0 5.3e-4,-0.0202 8.2123387,8.2123387 0 0 0 0.0202,-0.56068 h -5.3e-4 a 6.2912264,6.2912264 0 0 1 0.032,-0.62736 6.2912264,6.2912264 0 0 1 6.25957,-5.66322 6.2912264,6.2912264 0 0 1 6.2916,6.29109 8.2123387,8.2123387 0 0 0 7.63158,8.19175 8.2123387,8.2123387 0 0 0 0.58084,0.0202 8.2123387,8.2123387 0 0 0 8.2119,-8.21242 h -1.92081 a 6.2912264,6.2912264 0 0 1 -6.29109,6.29109 6.2912264,6.2912264 0 0 1 -6.2916,-6.29109 8.2123387,8.2123387 0 0 0 -8.21242,-8.21242 8.2123387,8.2123387 0 0 0 -8.19175,7.63158 8.2123387,8.2123387 0 0 0 -0.0196,0.58084 h -5.3e-4 a 6.2912264,6.2912264 0 0 1 -1.90841,4.5129 6.2912264,6.2912264 0 0 1 -4.38268,1.77819 6.2912264,6.2912264 0 0 1 -0.62839,-0.0315 6.2912264,6.2912264 0 0 1 -0.62166,-0.0941 6.2912264,6.2912264 0 0 1 -5.3e-4,0 6.2912264,6.2912264 0 0 1 -0.60875,-0.15555 6.2912264,6.2912264 0 0 1 -5.3e-4,0 6.2912264,6.2912264 0 0 1 -0.59014,-0.21549 6.2912264,6.2912264 0 0 1 -5.3e-4,0 6.2912264,6.2912264 0 0 1 -0.56586,-0.27337 6.2912264,6.2912264 0 0 1 -5.3e-4,0 6.2912264,6.2912264 0 0 1 -0.53537,-0.32866 6.2912264,6.2912264 0 0 1 -5.3e-4,0 6.2912264,6.2912264 0 0 1 -0.50023,-0.38086 6.2912264,6.2912264 0 0 1 -5.2e-4,0 6.2912264,6.2912264 0 0 1 -0.45941,-0.42839 6.2912264,6.2912264 0 0 1 -1.7787,-4.3832 8.2123387,8.2123387 0 0 0 -3.1073,-6.43268 8.2123387,8.2123387 0 0 0 -5.3e-4,0 8.2123387,8.2123387 0 0 0 -0.66714,-0.47749 8.2123387,8.2123387 0 0 0 -5.3e-4,0 8.2123387,8.2123387 0 0 0 -0.71159,-0.40876 8.2123387,8.2123387 0 0 0 -5.3e-4,0 8.2123387,8.2123387 0 0 0 -0.74879,-0.33538 8.2123387,8.2123387 0 0 0 -5.3e-4,0 8.2123387,8.2123387 0 0 0 -0.77825,-0.2589 8.2123387,8.2123387 0 0 0 -5.3e-4,0 8.2123387,8.2123387 0 0 0 -0.80046,-0.17932 8.2123387,8.2123387 0 0 0 -5.3e-4,0 8.2123387,8.2123387 0 0 0 -0.81443,-0.0992 8.2123387,8.2123387 0 0 0 -5.3e-4,0 8.2123387,8.2123387 0 0 0 -0.58084,-0.0207 8.2123387,8.2123387 0 0 0 -3.93723,1.00562 8.2123387,8.2123387 0 0 0 -5.2e-4,5.3e-4 8.2123387,8.2123387 0 0 0 -0.69918,0.4284 8.2123387,8.2123387 0 0 0 -5.3e-4,5.3e-4 8.2123387,8.2123387 0 0 0 -1.253667,1.05575 8.2123387,8.2123387 0 0 0 -0.0661,0.0754 8.2123387,8.2123387 0 0 0 -0.47594,0.54157 8.2123387,8.2123387 0 0 0 0,5.3e-4 8.2123387,8.2123387 0 0 0 -0.47749,0.66714 8.2123387,8.2123387 0 0 0 0,5.3e-4 8.2123387,8.2123387 0 0 0 -0.408235,0.71158 8.2123387,8.2123387 0 0 0 0,5.3e-4 8.2123387,8.2123387 0 0 0 -0.33538,0.74879 8.2123387,8.2123387 0 0 0 0,5.3e-4 8.2123387,8.2123387 0 0 0 -0.2589,0.77825 8.2123387,8.2123387 0 0 0 0,5.3e-4 8.2123387,8.2123387 0 0 0 -0.17983,0.80047 8.2123387,8.2123387 0 0 0 0,5.3e-4 8.2123387,8.2123387 0 0 0 -0.0119,0.0987 8.2123387,8.2123387 0 0 0 -0.10749,1.29708 h 5.3e-4 a 6.2912264,6.2912264 0 0 1 -6.29099,6.29053 6.2912264,6.2912264 0 0 1 -6.29161,-6.29109 8.2123387,8.2123387 0 0 0 -8.21242,-8.21241 z"
       id="path6987"
       inkscape:connector-curvature="0" />
    <path
       style="opacity:1;fill:#0000ff;fill-opacity:1;fill-rule:nonzero;stroke:none;stroke-width:2.92363644;stroke-linecap:round;stroke-linejoin:round;stroke-miterlimit:4;stroke-dasharray:none;stroke-opacity:1;paint-order:markers fill stroke"
       d="m 75.798978,184.97774 -5.3e-4,5.3e-4 a 8.2123387,8.2123387 0 0 0 -8.21241,8.21242 h 1.92081 a 6.2912264,6.2912264 0 0 1 6.2916,-6.29109 6.2912264,6.2912264 0 0 1 6.29161,6.29109 8.2123387,8.2123387 0 0 0 8.2119,8.2119 8.2123387,8.2123387 0 0 0 8.212415,-8.2119 6.2912264,6.2912264 0 0 1 0.0315,-0.62838 6.2912264,6.2912264 0 0 1 0.46509,-1.8216 6.2912264,6.2912264 0 0 1 0.60203,-1.10226 6.2912264,6.2912264 0 0 1 5.3e-4,-5.3e-4 6.2912264,6.2912264 0 0 1 0.809247,-0.96066 6.2912264,6.2912264 0 0 1 4.38268,-1.77767 6.2912264,6.2912264 0 0 1 2.44998,0.49661 6.2912264,6.2912264 0 0 1 5.3e-4,0 6.2912264,6.2912264 0 0 1 1.60248,0.98237 6.2912264,6.2912264 0 0 1 5.3e-4,0 6.2912264,6.2912264 0 0 1 2.23811,4.81211 8.2123387,8.2123387 0 0 0 3.10731,6.43268 8.2123387,8.2123387 0 0 0 5.2e-4,0 8.2123387,8.2123387 0 0 0 1.37925,0.88573 8.2123387,8.2123387 0 0 0 5.3e-4,0 8.2123387,8.2123387 0 0 0 0.74879,0.33539 8.2123387,8.2123387 0 0 0 5.3e-4,0 8.2123387,8.2123387 0 0 0 2.97552,0.5581 8.2123387,8.2123387 0 0 0 5.89112,-2.49132 8.2123387,8.2123387 0 0 0 0.54157,-0.61598 8.2123387,8.2123387 0 0 0 0,-5.3e-4 8.2123387,8.2123387 0 0 0 0.47749,-0.66715 8.2123387,8.2123387 0 0 0 0,-5.3e-4 8.2123387,8.2123387 0 0 0 0.40876,-0.71158 8.2123387,8.2123387 0 0 0 0,-5.3e-4 8.2123387,8.2123387 0 0 0 0.14986,-0.33486 8.2123387,8.2123387 0 0 0 0.185,-0.41393 8.2123387,8.2123387 0 0 0 0.53795,-2.3952 8.2123387,8.2123387 0 0 0 0,-5.3e-4 8.2123387,8.2123387 0 0 0 0.0207,-0.58084 h -5.3e-4 a 6.2912264,6.2912264 0 0 1 0.032,-0.62736 6.2912264,6.2912264 0 0 1 6.25956,-5.6627 6.2912264,6.2912264 0 0 1 6.29161,6.29109 8.2123387,8.2123387 0 0 0 7.63157,8.19123 8.2123387,8.2123387 0 0 0 0.58085,0.0202 8.2123387,8.2123387 0 0 0 8.2119,-8.21242 h -1.92081 a 6.2912264,6.2912264 0 0 1 -6.29109,6.29109 6.2912264,6.2912264 0 0 1 -6.29161,-6.29109 8.2123387,8.2123387 0 0 0 -8.21242,-8.2119 8.2123387,8.2123387 0 0 0 -8.19174,7.63106 8.2123387,8.2123387 0 0 0 -0.0196,0.58084 h -5.3e-4 a 6.2912264,6.2912264 0 0 1 -6.29109,6.29109 6.2912264,6.2912264 0 0 1 -0.62838,-0.031 6.2912264,6.2912264 0 0 1 -0.62167,-0.0941 6.2912264,6.2912264 0 0 1 -5.3e-4,0 6.2912264,6.2912264 0 0 1 -0.60874,-0.15555 6.2912264,6.2912264 0 0 1 -5.3e-4,0 6.2912264,6.2912264 0 0 1 -0.59015,-0.216 6.2912264,6.2912264 0 0 1 -5.3e-4,0 6.2912264,6.2912264 0 0 1 -0.56586,-0.27337 6.2912264,6.2912264 0 0 1 -5.3e-4,0 6.2912264,6.2912264 0 0 1 -0.53536,-0.32866 6.2912264,6.2912264 0 0 1 -5.3e-4,0 6.2912264,6.2912264 0 0 1 -0.50023,-0.38034 6.2912264,6.2912264 0 0 1 -5.3e-4,0 6.2912264,6.2912264 0 0 1 -0.4594,-0.42892 6.2912264,6.2912264 0 0 1 -1.7787,-4.38319 8.2123387,8.2123387 0 0 0 -3.10783,-6.43268 8.2123387,8.2123387 0 0 0 -0.66714,-0.47749 8.2123387,8.2123387 0 0 0 -5.3e-4,0 8.2123387,8.2123387 0 0 0 -0.71158,-0.40825 8.2123387,8.2123387 0 0 0 -5.3e-4,0 8.2123387,8.2123387 0 0 0 -0.74879,-0.33538 8.2123387,8.2123387 0 0 0 -5.3e-4,0 8.2123387,8.2123387 0 0 0 -0.77825,-0.2589 8.2123387,8.2123387 0 0 0 -5.3e-4,0 8.2123387,8.2123387 0 0 0 -0.80047,-0.17983 8.2123387,8.2123387 0 0 0 -5.3e-4,0 8.2123387,8.2123387 0 0 0 -0.81442,-0.0987 8.2123387,8.2123387 0 0 0 -5.3e-4,0 8.2123387,8.2123387 0 0 0 -0.58084,-0.0207 8.2123387,8.2123387 0 0 0 -3.93723,1.00511 8.2123387,8.2123387 0 0 0 -5.3e-4,5.3e-4 8.2123387,8.2123387 0 0 0 -0.69918,0.42891 8.2123387,8.2123387 0 0 0 -5.3e-4,5.3e-4 8.2123387,8.2123387 0 0 0 -1.253667,1.05575 8.2123387,8.2123387 0 0 0 -0.0656,0.0749 8.2123387,8.2123387 0 0 0 -0.47645,0.54157 8.2123387,8.2123387 0 0 0 0,5.3e-4 8.2123387,8.2123387 0 0 0 -0.47749,0.66714 8.2123387,8.2123387 0 0 0 0,5.3e-4 8.2123387,8.2123387 0 0 0 -0.408245,0.71159 8.2123387,8.2123387 0 0 0 0,5.3e-4 8.2123387,8.2123387 0 0 0 -0.33538,0.74879 8.2123387,8.2123387 0 0 0 0,5.3e-4 8.2123387,8.2123387 0 0 0 -0.2589,0.77876 8.2123387,8.2123387 0 0 0 0,5.3e-4 8.2123387,8.2123387 0 0 0 -0.17983,0.80047 8.2123387,8.2123387 0 0 0 0,5.2e-4 8.2123387,8.2123387 0 0 0 -0.0134,0.11214 8.2123387,8.2123387 0 0 0 -0.10594,1.28365 h 5.3e-4 a 6.2912264,6.2912264 0 0 1 -6.29109,6.29005 6.2912264,6.2912264 0 0 1 -6.2916,-6.29109 8.2123387,8.2123387 0 0 0 -8.21242,-8.2119 z"
       id="path6983"
       inkscape:connector-curvature="0" />
    <path
       style="opacity:1;fill:#0000ff;fill-opacity:1;fill-rule:nonzero;stroke:none;stroke-width:2.92363644;stroke-linecap:round;stroke-linejoin:round;stroke-miterlimit:4;stroke-dasharray:none;stroke-opacity:1;paint-order:markers fill stroke"
       d="m 75.798978,201.40206 -5.3e-4,5.3e-4 a 8.2123387,8.2123387 0 0 0 -8.21241,8.21242 h 1.92081 a 6.2912264,6.2912264 0 0 1 6.2916,-6.29109 6.2912264,6.2912264 0 0 1 6.29161,6.29109 8.2123387,8.2123387 0 0 0 8.2119,8.21242 8.2123387,8.2123387 0 0 0 8.212415,-8.21242 6.2912264,6.2912264 0 0 1 0.0315,-0.62787 6.2912264,6.2912264 0 0 1 0.2496,-1.23145 6.2912264,6.2912264 0 0 1 0.81804,-1.69292 6.2912264,6.2912264 0 0 1 5.191927,-2.73885 6.2912264,6.2912264 0 0 1 2.44998,0.49661 6.2912264,6.2912264 0 0 1 5.3e-4,0 6.2912264,6.2912264 0 0 1 1.60248,0.98289 6.2912264,6.2912264 0 0 1 5.3e-4,0 6.2912264,6.2912264 0 0 1 2.23811,4.81159 8.2123387,8.2123387 0 0 0 3.1073,6.43268 8.2123387,8.2123387 0 0 0 5.3e-4,0 8.2123387,8.2123387 0 0 0 1.37925,0.88625 8.2123387,8.2123387 0 0 0 5.3e-4,0 8.2123387,8.2123387 0 0 0 0.74879,0.33538 8.2123387,8.2123387 0 0 0 5.3e-4,0 8.2123387,8.2123387 0 0 0 2.97552,0.55811 8.2123387,8.2123387 0 0 0 5.89112,-2.49132 8.2123387,8.2123387 0 0 0 0.54157,-0.6165 8.2123387,8.2123387 0 0 0 0,-5.3e-4 8.2123387,8.2123387 0 0 0 0.47749,-0.66714 8.2123387,8.2123387 0 0 0 0,-5.3e-4 8.2123387,8.2123387 0 0 0 0.40876,-0.71159 8.2123387,8.2123387 0 0 0 0,-5.2e-4 8.2123387,8.2123387 0 0 0 0.14986,-0.33487 8.2123387,8.2123387 0 0 0 0.18552,-0.41444 8.2123387,8.2123387 0 0 0 0.53743,-2.39417 8.2123387,8.2123387 0 0 0 0,-5.3e-4 8.2123387,8.2123387 0 0 0 0.0207,-0.58084 h -5.3e-4 a 6.2912264,6.2912264 0 0 1 0.032,-0.62735 6.2912264,6.2912264 0 0 1 6.25956,-5.66323 6.2912264,6.2912264 0 0 1 6.29161,6.29109 8.2123387,8.2123387 0 0 0 7.63157,8.19175 8.2123387,8.2123387 0 0 0 0.58085,0.0202 8.2123387,8.2123387 0 0 0 8.2119,-8.21242 h -1.92081 a 6.2912264,6.2912264 0 0 1 -6.29109,6.29109 6.2912264,6.2912264 0 0 1 -6.29161,-6.29109 8.2123387,8.2123387 0 0 0 -8.21242,-8.21241 8.2123387,8.2123387 0 0 0 -8.19175,7.63106 8.2123387,8.2123387 0 0 0 -0.0196,0.58135 h -5.3e-4 a 6.2912264,6.2912264 0 0 1 -6.29109,6.29109 6.2912264,6.2912264 0 0 1 -0.62838,-0.0315 6.2912264,6.2912264 0 0 1 -0.62167,-0.0941 6.2912264,6.2912264 0 0 1 -5.3e-4,0 6.2912264,6.2912264 0 0 1 -0.60874,-0.15554 6.2912264,6.2912264 0 0 1 -5.3e-4,0 6.2912264,6.2912264 0 0 1 -0.59015,-0.21549 6.2912264,6.2912264 0 0 1 -5.3e-4,0 6.2912264,6.2912264 0 0 1 -0.56586,-0.27337 6.2912264,6.2912264 0 0 1 -5.3e-4,0 6.2912264,6.2912264 0 0 1 -0.53536,-0.32866 6.2912264,6.2912264 0 0 1 -5.3e-4,0 6.2912264,6.2912264 0 0 1 -0.50023,-0.38086 6.2912264,6.2912264 0 0 1 -5.3e-4,0 6.2912264,6.2912264 0 0 1 -0.4594,-0.4284 6.2912264,6.2912264 0 0 1 -1.7787,-4.38319 8.2123387,8.2123387 0 0 0 -3.10783,-6.4332 8.2123387,8.2123387 0 0 0 -0.66714,-0.47749 8.2123387,8.2123387 0 0 0 -5.3e-4,0 8.2123387,8.2123387 0 0 0 -0.71158,-0.40825 8.2123387,8.2123387 0 0 0 -5.3e-4,0 8.2123387,8.2123387 0 0 0 -0.7488,-0.33538 8.2123387,8.2123387 0 0 0 -5.2e-4,0 8.2123387,8.2123387 0 0 0 -0.77825,-0.25889 8.2123387,8.2123387 0 0 0 -5.3e-4,0 8.2123387,8.2123387 0 0 0 -0.80047,-0.17984 8.2123387,8.2123387 0 0 0 -5.3e-4,0 8.2123387,8.2123387 0 0 0 -0.81442,-0.0987 8.2123387,8.2123387 0 0 0 -5.3e-4,0 8.2123387,8.2123387 0 0 0 -0.58084,-0.0207 8.2123387,8.2123387 0 0 0 -3.93723,1.00562 8.2123387,8.2123387 0 0 0 -5.3e-4,5.3e-4 8.2123387,8.2123387 0 0 0 -0.69918,0.4284 8.2123387,8.2123387 0 0 0 -5.3e-4,5.3e-4 8.2123387,8.2123387 0 0 0 -1.253667,1.05575 8.2123387,8.2123387 0 0 0 -0.0351,0.0403 8.2123387,8.2123387 0 0 0 -0.98443,1.24437 8.2123387,8.2123387 0 0 0 0,5.2e-4 8.2123387,8.2123387 0 0 0 -0.408245,0.71159 8.2123387,8.2123387 0 0 0 0,5.3e-4 8.2123387,8.2123387 0 0 0 -0.59428,1.52756 8.2123387,8.2123387 0 0 0 0,5.3e-4 8.2123387,8.2123387 0 0 0 -0.17983,0.80046 8.2123387,8.2123387 0 0 0 0,5.3e-4 8.2123387,8.2123387 0 0 0 -0.0134,0.11214 8.2123387,8.2123387 0 0 0 -0.10594,1.28364 h 5.3e-4 a 6.2912264,6.2912264 0 0 1 -6.29109,6.29058 6.2912264,6.2912264 0 0 1 -6.2916,-6.29109 8.2123387,8.2123387 0 0 0 -8.21242,-8.21242 z"
       id="path6957"
       inkscape:connector-curvature="0" />
    <rect
       style="opacity:1;fill:#0000ff;fill-opacity:1;fill-rule:nonzero;stroke:none;stroke-width:6.40685797;stroke-linecap:round;stroke-linejoin:round;stroke-miterlimit:4;stroke-dasharray:none;stroke-opacity:1;paint-order:markers fill stroke"
       id="rect7015"
       width="0.85989583"
       height="75.005821"
       x="-281.66049"
       y="39.874943"
       ry="5.5902956e-006"
       transform="rotate(-90)" />
    <rect
       ry="6.7536348e-007"
       y="280.91382"
       x="152.44568"
       height="9.061451"
       width="0.85989583"
       id="rect7017"
       style="opacity:1;fill:#0000ff;fill-opacity:1;fill-rule:nonzero;stroke:none;stroke-width:2.2268784;stroke-linecap:round;stroke-linejoin:round;stroke-miterlimit:4;stroke-dasharray:none;stroke-opacity:1;paint-order:markers fill stroke" />
  </g>
</svg>
