<?xml version="1.0" encoding="UTF-8" standalone="no"?>
<!-- Created with Inkscape (http://www.inkscape.org/) -->

<svg
   xmlns:dc="http://purl.org/dc/elements/1.1/"
   xmlns:cc="http://creativecommons.org/ns#"
   xmlns:rdf="http://www.w3.org/1999/02/22-rdf-syntax-ns#"
   xmlns:svg="http://www.w3.org/2000/svg"
   xmlns="http://www.w3.org/2000/svg"
   xmlns:sodipodi="http://sodipodi.sourceforge.net/DTD/sodipodi-0.dtd"
   xmlns:inkscape="http://www.inkscape.org/namespaces/inkscape"
   width="655"
   height="532"
   viewBox="0 0 173.3021 140.75833"
   version="1.1"
   id="svg8"
   inkscape:version="0.92.2 (5c3e80d, 2017-08-06)"
   sodipodi:docname="PiantinaAngusL.svg">
  <sodipodi:namedview
     id="base"
     pagecolor="#ffffff"
     bordercolor="#666666"
     borderopacity="1.0"
     inkscape:pageopacity="0.0"
     inkscape:pageshadow="2"
     inkscape:zoom="0.3535534"
     inkscape:cx="432.4904"
     inkscape:cy="265.53403"
     inkscape:document-units="mm"
     inkscape:current-layer="layer1"
     showgrid="false"
     units="px"
     inkscape:window-width="1920"
     inkscape:window-height="1003"
     inkscape:window-x="-9"
     inkscape:window-y="-9"
     inkscape:window-maximized="1"
     showguides="false"
     inkscape:guide-bbox="true"
     inkscape:snap-bbox="true"
     inkscape:snap-bbox-edge-midpoints="true"
     inkscape:snap-midpoints="true"
     inkscape:snap-bbox-midpoints="true"
     inkscape:snap-grids="false"
     inkscape:snap-center="true"
     inkscape:snap-object-midpoints="true"
     inkscape:bbox-nodes="true"
     inkscape:bbox-paths="true"
     inkscape:snap-intersection-paths="true"
     inkscape:snap-smooth-nodes="true"
     inkscape:object-nodes="true"
     inkscape:object-paths="true"
     inkscape:snap-to-guides="true"
     inkscape:snap-page="false"
     inkscape:snap-others="true"
     inkscape:snap-global="true">
    <inkscape:grid
       type="xygrid"
       id="grid1756"
       spacingx="28.883682"
       spacingy="12.796214"
       empspacing="1" />
    <sodipodi:guide
       position="57.767368,140.75836"
       orientation="1,0"
       id="guide1758"
       inkscape:locked="false" />
    <sodipodi:guide
       position="115.53473,140.75836"
       orientation="1,0"
       id="guide3733"
       inkscape:locked="false" />
    <sodipodi:guide
       position="0,127.96214"
       orientation="0,1"
       id="guide3852"
       inkscape:locked="false" />
    <sodipodi:guide
       position="0,12.796214"
       orientation="0,1"
       id="guide3854"
       inkscape:locked="false" />
    <sodipodi:guide
       position="0,51.184855"
       orientation="0,1"
       id="guide3858"
       inkscape:locked="false" />
    <sodipodi:guide
       position="115.53473,191.94322"
       orientation="0,1"
       id="guide3974"
       inkscape:locked="false" />
    <sodipodi:guide
       position="-252.10351,16.204667"
       orientation="1,0"
       id="guide4174"
       inkscape:locked="false" />
    <sodipodi:guide
       position="-110.58353,48.08179"
       orientation="1,0"
       id="guide4176"
       inkscape:locked="false" />
    <sodipodi:guide
       position="-310.92954,118.20855"
       orientation="1,0"
       id="guide4207"
       inkscape:locked="false" />
  </sodipodi:namedview>
  <defs
     id="defs2" />
  <metadata
     id="metadata5">
    <rdf:RDF>
      <cc:Work
         rdf:about="">
        <dc:format>image/svg+xml</dc:format>
        <dc:type
           rdf:resource="http://purl.org/dc/dcmitype/StillImage" />
        <dc:title />
      </cc:Work>
    </rdf:RDF>
  </metadata>
  <g
     inkscape:label="Sezione Lavaggio"
     inkscape:groupmode="layer"
     id="layer1"
     transform="translate(0,-156.24165)">
    <g
       id="g4403"
       transform="matrix(0.83992949,0,0,0.83992949,1.9971791,45.302205)">
      <path
         inkscape:connector-curvature="0"
         id="path4252"
         d="m 25.548337,179.04275 c -4.179599,0.12622 -14.73943,7.98648 -14.744483,10.99798 h -6.64e-4 v 14.24594 h 0.0033 c 0.0396,0.58813 0.513784,0.97477 1.562293,1.0564 h 28.440101 c 4.128133,-0.12466 14.48021,-7.79392 14.739418,-10.88442 h 0.0056 v -14.43467 h -0.01111 c -0.07421,-0.54573 -0.551368,-0.90313 -1.55445,-0.98123 z m 1.189899,0.94659 H 50.74308 c 5.318251,0.41409 -6.851853,10.1165 -11.123968,10.24552 H 15.614267 c -5.31825,-0.41409 6.851853,-10.1165 11.123969,-10.24552 z m 0.76734,1.61131 c -3.743522,0.0936 -14.407843,7.13638 -9.747628,7.43695 H 38.79262 c 3.743526,-0.0936 14.407849,-7.13637 9.747628,-7.43695 z m -0.609656,0.41946 a 2.1559932,2.1559932 0 0 0 2.155936,2.15593 2.1559932,2.1559932 0 0 0 2.156099,-2.15593 2.1559932,2.1559932 0 0 0 2.155936,2.15593 2.1559932,2.1559932 0 0 0 2.155935,-2.15593 2.1559932,2.1559932 0 0 0 2.1561,2.15593 2.1559932,2.1559932 0 0 0 2.155936,-2.15593 2.1559932,2.1559932 0 0 0 2.155936,2.15593 2.1559932,2.1559932 0 0 0 2.156099,-2.15446 2.1559932,2.1559932 0 0 0 1.580921,2.07619 v 0.85787 a 2.1559932,2.1559932 0 0 1 -1.580921,-2.07619 2.1559932,2.1559932 0 0 1 -2.156099,2.15446 2.1559932,2.1559932 0 0 1 -2.155936,-2.15593 2.1559932,2.1559932 0 0 1 -2.155936,2.15593 2.1559932,2.1559932 0 0 1 -2.1561,-2.15593 2.1559932,2.1559932 0 0 1 -2.155935,2.15593 2.1559932,2.1559932 0 0 1 -2.155936,-2.15593 2.1559932,2.1559932 0 0 1 -2.156099,2.15593 2.1559932,2.1559932 0 0 1 -2.155936,-2.15593 2.1559932,2.1559932 0 0 1 -1.581085,2.07554 v -0.85787 a 2.1559932,2.1559932 0 0 0 1.581085,-2.07554 z m -5.521705,2.88635 a 2.1559932,2.1559932 0 0 0 2.155935,2.15593 2.1559932,2.1559932 0 0 0 2.156099,-2.15593 2.1559932,2.1559932 0 0 0 2.155936,2.15593 2.1559932,2.1559932 0 0 0 2.155936,-2.15593 2.1559932,2.1559932 0 0 0 2.156099,2.15593 2.1559932,2.1559932 0 0 0 2.155936,-2.15593 2.1559932,2.1559932 0 0 0 2.155936,2.15593 2.1559932,2.1559932 0 0 0 2.156099,-2.15446 2.1559932,2.1559932 0 0 0 1.580922,2.07619 v 0.85787 a 2.1559932,2.1559932 0 0 1 -1.580922,-2.0762 2.1559932,2.1559932 0 0 1 -2.156099,2.15447 2.1559932,2.1559932 0 0 1 -2.155936,-2.15594 2.1559932,2.1559932 0 0 1 -2.155936,2.15594 2.1559932,2.1559932 0 0 1 -2.156099,-2.15594 2.1559932,2.1559932 0 0 1 -2.155936,2.15594 2.1559932,2.1559932 0 0 1 -2.155936,-2.15594 2.1559932,2.1559932 0 0 1 -2.156099,2.15594 2.1559932,2.1559932 0 0 1 -2.155935,-2.15594 2.1559932,2.1559932 0 0 1 -1.581086,2.07554 V 186.982 a 2.1559932,2.1559932 0 0 0 1.581086,-2.07554 z"
         style="opacity:1;fill:#0000ff;fill-opacity:1;fill-rule:nonzero;stroke:none;stroke-width:1.2648145;stroke-linecap:round;stroke-linejoin:round;stroke-miterlimit:4;stroke-dasharray:none;stroke-opacity:1;paint-order:markers fill stroke" />
      <g
         transform="matrix(0.22521498,0,0,0.22521498,46.592348,139.24027)"
         id="g4310">
        <path
           inkscape:connector-curvature="0"
           id="path4260"
           d="m -131.05712,149.47512 c -5.14041,0.30543 -9.19156,5.92888 -9.19789,12.7677 0.003,6.84201 4.05508,12.47038 9.19789,12.77596 v 0.0202 c 13.95497,0 25.26771,11.31274 25.26771,25.26771 h 0.0584 c -0.0371,0.22187 -0.0566,0.44633 -0.0584,0.67128 -5e-5,2.35914 1.91243,4.27162 4.27157,4.27157 2.359145,5e-5 4.271624,-1.91242 4.271578,-4.27157 -9.04e-4,-0.22488 -0.01957,-0.44934 -0.05581,-0.67128 h 0.113689 c -0.03694,0.22189 -0.05629,0.44635 -0.05788,0.67128 -4.6e-5,2.35914 1.91243,4.27162 4.271574,4.27157 2.358942,-2.4e-4 4.271103,-1.91263 4.271057,-4.27157 -7.35e-4,-0.22487 -0.01923,-0.44932 -0.0553,-0.67128 h 0.113689 c -0.03711,0.22187 -0.05663,0.44633 -0.05839,0.67128 -4.6e-5,2.35914 1.91243,4.27162 4.271574,4.27157 2.359143,5e-5 4.271619,-1.91243 4.271573,-4.27157 -7.32e-4,-0.22487 -0.01922,-0.44932 -0.05529,-0.67128 h 0.05529 c -0.08785,-23.68953 -23.476624,-50.77497 -50.896634,-50.83157 z"
           style="opacity:1;fill:#0000ff;fill-opacity:1;fill-rule:nonzero;stroke:none;stroke-width:2.66666698;stroke-linecap:round;stroke-linejoin:round;stroke-miterlimit:4;stroke-dasharray:none;stroke-opacity:1;paint-order:markers fill stroke"
           sodipodi:nodetypes="cccccccccccccccccccccc" />
        <path
           inkscape:connector-curvature="0"
           id="path4262"
           d="m -179.83967,140.53512 a 16.333034,21.707863 0 0 0 -16.33285,21.70772 16.333034,21.707863 0 0 0 16.33285,21.70771 16.333034,21.707863 0 0 0 16.33337,-21.70771 16.333034,21.707863 0 0 0 -16.33337,-21.70772 z m 0,7.13393 a 10.965171,14.573558 0 0 1 10.96522,14.57379 10.965171,14.573558 0 0 1 -10.96522,14.57378 10.965171,14.573558 0 0 1 -10.96522,-14.57378 10.965171,14.573558 0 0 1 10.96522,-14.57379 z"
           style="opacity:1;fill:#0000ff;fill-opacity:1;fill-rule:nonzero;stroke:none;stroke-width:4.52380943;stroke-linecap:round;stroke-linejoin:round;stroke-miterlimit:4;stroke-dasharray:none;stroke-opacity:1;paint-order:markers fill stroke" />
        <path
           inkscape:connector-curvature="0"
           id="path4264"
           d="m -139.21871,174.27889 a 10.965171,14.573558 0 0 0 0.92449,0.75344 10.965171,14.573558 0 0 0 0.01,0.006 10.96517,14.573558 0 0 1 -0.93431,-0.75964 z"
           style="opacity:1;fill:#0000ff;fill-opacity:1;fill-rule:nonzero;stroke:none;stroke-width:2.66666698;stroke-linecap:round;stroke-linejoin:round;stroke-miterlimit:4;stroke-dasharray:none;stroke-opacity:1;paint-order:markers fill stroke" />
        <path
           inkscape:connector-curvature="0"
           id="path4266"
           d="m -140.09205,173.39884 a 10.965171,14.573558 0 0 0 0.86352,0.8723 10.965171,14.573558 0 0 0 0.01,0.008 10.96517,14.573558 0 0 1 -0.87333,-0.88005 z"
           style="opacity:1;fill:#0000ff;fill-opacity:1;fill-rule:nonzero;stroke:none;stroke-width:2.66666698;stroke-linecap:round;stroke-linejoin:round;stroke-miterlimit:4;stroke-dasharray:none;stroke-opacity:1;paint-order:markers fill stroke" />
        <path
           inkscape:connector-curvature="0"
           id="path4268"
           d="m -140.86202,172.44799 a 10.965171,14.573558 0 0 0 0.76067,0.94155 10.965171,14.573558 0 0 0 0.009,0.009 10.96517,14.573558 0 0 1 -0.76997,-0.95085 z"
           style="opacity:1;fill:#0000ff;fill-opacity:1;fill-rule:nonzero;stroke:none;stroke-width:2.66666698;stroke-linecap:round;stroke-linejoin:round;stroke-miterlimit:4;stroke-dasharray:none;stroke-opacity:1;paint-order:markers fill stroke" />
        <path
           inkscape:connector-curvature="0"
           id="path4270"
           d="m -141.50333,171.48836 a 10.965171,14.573558 0 0 0 0.59997,0.90796 10.965171,14.573558 0 0 0 0.008,0.01 10.96517,14.573558 0 0 1 -0.60772,-0.91778 z"
           style="opacity:1;fill:#0000ff;fill-opacity:1;fill-rule:nonzero;stroke:none;stroke-width:2.66666698;stroke-linecap:round;stroke-linejoin:round;stroke-miterlimit:4;stroke-dasharray:none;stroke-opacity:1;paint-order:markers fill stroke" />
        <path
           inkscape:connector-curvature="0"
           id="path4272"
           d="m -142.06763,170.48171 a 10.965171,14.573558 0 0 0 0.44131,0.8201 10.965171,14.573558 0 0 0 0.006,0.009 10.96517,14.573558 0 0 1 -0.44752,-0.82941 z"
           style="opacity:1;fill:#0000ff;fill-opacity:1;fill-rule:nonzero;stroke:none;stroke-width:2.66666698;stroke-linecap:round;stroke-linejoin:round;stroke-miterlimit:4;stroke-dasharray:none;stroke-opacity:1;paint-order:markers fill stroke" />
        <path
           inkscape:connector-curvature="0"
           id="path4274"
           d="m -142.80402,168.8663 a 10.965171,14.573558 0 0 0 0.54002,1.25057 10.965171,14.573558 0 0 0 0.004,0.008 10.96517,14.573558 0 0 1 -0.54416,-1.25832 z"
           style="opacity:1;fill:#0000ff;fill-opacity:1;fill-rule:nonzero;stroke:none;stroke-width:2.66666698;stroke-linecap:round;stroke-linejoin:round;stroke-miterlimit:4;stroke-dasharray:none;stroke-opacity:1;paint-order:markers fill stroke" />
        <path
           inkscape:connector-curvature="0"
           id="path4276"
           d="m -143.12028,167.93096 a 10.965171,14.573558 0 0 0 0.31057,0.92242 10.965171,14.573558 0 0 0 0.006,0.0129 10.96517,14.573558 0 0 1 -0.31626,-0.93534 z"
           style="opacity:1;fill:#0000ff;fill-opacity:1;fill-rule:nonzero;stroke:none;stroke-width:2.66666698;stroke-linecap:round;stroke-linejoin:round;stroke-miterlimit:4;stroke-dasharray:none;stroke-opacity:1;paint-order:markers fill stroke" />
        <path
           inkscape:connector-curvature="0"
           id="path4278"
           d="m -143.46962,166.67574 a 10.965171,14.573558 0 0 0 0.21239,0.84801 10.965171,14.573558 0 0 0 0.003,0.007 10.96517,14.573558 0 0 1 -0.21497,-0.85525 z"
           style="opacity:1;fill:#0000ff;fill-opacity:1;fill-rule:nonzero;stroke:none;stroke-width:2.66666698;stroke-linecap:round;stroke-linejoin:round;stroke-miterlimit:4;stroke-dasharray:none;stroke-opacity:1;paint-order:markers fill stroke" />
        <path
           inkscape:connector-curvature="0"
           id="path4280"
           d="m -143.76055,165.20761 a 10.965171,14.573558 0 0 0 0.15761,0.93379 10.965171,14.573558 0 0 0 0.002,0.009 10.96517,14.573558 0 0 1 -0.15968,-0.94309 z"
           style="opacity:1;fill:#0000ff;fill-opacity:1;fill-rule:nonzero;stroke:none;stroke-width:2.66666698;stroke-linecap:round;stroke-linejoin:round;stroke-miterlimit:4;stroke-dasharray:none;stroke-opacity:1;paint-order:markers fill stroke" />
        <path
           inkscape:connector-curvature="0"
           id="path4282"
           d="m -143.93677,163.69452 a 10.965171,14.573558 0 0 0 0.094,1.02526 10.965171,14.573558 0 0 0 0.002,0.01 10.96517,14.573558 0 0 1 -0.0956,-1.03507 z"
           style="opacity:1;fill:#0000ff;fill-opacity:1;fill-rule:nonzero;stroke:none;stroke-width:2.66666698;stroke-linecap:round;stroke-linejoin:round;stroke-miterlimit:4;stroke-dasharray:none;stroke-opacity:1;paint-order:markers fill stroke" />
        <path
           inkscape:connector-curvature="0"
           id="path4284"
           d="m -144.0024,162.24293 a 10.965171,14.573558 0 0 0 0.0274,1.03095 10.965171,14.573558 0 0 0 0.001,0.01 10.96517,14.573558 0 0 1 -0.0284,-1.04077 z"
           style="opacity:1;fill:#0000ff;fill-opacity:1;fill-rule:nonzero;stroke:none;stroke-width:2.66666698;stroke-linecap:round;stroke-linejoin:round;stroke-miterlimit:4;stroke-dasharray:none;stroke-opacity:1;paint-order:markers fill stroke" />
        <path
           inkscape:connector-curvature="0"
           id="path4286"
           d="m -138.28233,149.4618 a 10.965171,14.573558 0 0 0 -0.67955,0.5178 10.965171,14.573558 0 0 0 -0.89142,0.84749 10.965171,14.573558 0 0 0 -0.82321,0.96118 10.965171,14.573558 0 0 0 -0.74724,1.06609 10.965171,14.573558 0 0 0 -0.66352,1.15962 10.965171,14.573558 0 0 0 -0.57258,1.24178 10.965171,14.573558 0 0 0 -0.47697,1.31207 10.965171,14.573558 0 0 0 -0.37569,1.36839 10.965171,14.573558 0 0 0 -0.2713,1.41128 10.965171,14.573558 0 0 0 -0.16381,1.44074 10.965171,14.573558 0 0 0 -0.0548,1.45469 10.96517,14.573558 0 0 1 5.72006,-12.78113 z"
           style="opacity:1;fill:#0000ff;fill-opacity:1;fill-rule:nonzero;stroke:none;stroke-width:2.66666698;stroke-linecap:round;stroke-linejoin:round;stroke-miterlimit:4;stroke-dasharray:none;stroke-opacity:1;paint-order:markers fill stroke" />
        <path
           inkscape:connector-curvature="0"
           id="path4288"
           d="m -138.26322,149.44682 h -41.57627 a 9.6278953,12.796215 0 0 0 -9.62784,12.79611 9.6278953,12.796215 0 0 0 9.62784,12.79612 h 41.5556 a 10.96517,14.573558 0 0 1 -5.2e-4,-5.3e-4 10.965171,14.573558 0 0 1 -0.01,-0.006 10.965171,14.573558 0 0 1 -0.9245,-0.75344 10.965171,14.573558 0 0 1 -0.01,-0.008 10.965171,14.573558 0 0 1 -0.86351,-0.8723 10.965171,14.573558 0 0 1 -0.009,-0.009 10.965171,14.573558 0 0 1 -0.76068,-0.94154 10.96517,14.573558 0 0 1 -0.0336,-0.0419 10.965171,14.573558 0 0 1 -0.008,-0.01 10.965171,14.573558 0 0 1 -0.59996,-0.90796 10.96517,14.573558 0 0 1 -0.11679,-0.17725 10.965171,14.573558 0 0 1 -0.006,-0.009 10.965171,14.573558 0 0 1 -0.44131,-0.8201 10.96517,14.573558 0 0 1 -0.19224,-0.35709 10.965171,14.573558 0 0 1 -0.004,-0.008 10.965171,14.573558 0 0 1 -0.54002,-1.25057 10.965171,14.573558 0 0 1 -0.006,-0.0129 10.965171,14.573558 0 0 1 -0.31058,-0.92242 10.96517,14.573558 0 0 1 -0.13435,-0.39998 10.965171,14.573558 0 0 1 -0.003,-0.007 10.965171,14.573558 0 0 1 -0.21239,-0.84801 10.96517,14.573558 0 0 1 -0.13126,-0.52503 10.965171,14.573558 0 0 1 -0.002,-0.009 10.965171,14.573558 0 0 1 -0.15762,-0.93379 10.96517,14.573558 0 0 1 -0.0806,-0.47801 10.965171,14.573558 0 0 1 -0.002,-0.01 10.965171,14.573558 0 0 1 -0.0941,-1.02526 10.96517,14.573558 0 0 1 -0.0372,-0.41083 10.965171,14.573558 0 0 1 -0.001,-0.01 10.965171,14.573558 0 0 1 -0.0274,-1.03094 10.965171,14.573558 0 0 1 0.0548,-1.45469 10.965171,14.573558 0 0 1 0.16382,-1.44074 10.965171,14.573558 0 0 1 0.2713,-1.41128 10.965171,14.573558 0 0 1 0.37568,-1.3684 10.965171,14.573558 0 0 1 0.47698,-1.31206 10.965171,14.573558 0 0 1 0.57258,-1.24178 10.965171,14.573558 0 0 1 0.66352,-1.15963 10.965171,14.573558 0 0 1 0.74724,-1.06608 10.965171,14.573558 0 0 1 0.82321,-0.96118 10.965171,14.573558 0 0 1 0.89141,-0.84749 10.965171,14.573558 0 0 1 0.67955,-0.5178 10.96517,14.573558 0 0 1 0.0191,-0.015 z"
           style="opacity:1;fill:#0000ff;fill-opacity:1;fill-rule:nonzero;stroke:none;stroke-width:2.66666698;stroke-linecap:round;stroke-linejoin:round;stroke-miterlimit:4;stroke-dasharray:none;stroke-opacity:1;paint-order:markers fill stroke" />
        <path
           inkscape:connector-curvature="0"
           id="path4290"
           d="m -133.03736,140.53512 c -9.02037,1.4e-4 -16.33279,9.71895 -16.33285,21.70772 6e-5,11.98877 7.31248,21.70757 16.33285,21.70771 4.17026,-0.01 8.17974,-2.13935 11.20655,-5.95209 -2.44676,-1.0268 -5.02929,-1.69397 -7.66723,-1.98076 -1.13874,0.52292 -2.33453,0.79285 -3.53932,0.79892 -6.05598,4e-5 -10.96531,-6.52491 -10.96522,-14.57378 -1e-4,-8.04887 4.90924,-14.57383 10.96522,-14.57379 0.76768,0.002 1.53307,0.11144 2.28358,0.32608 h 10.0242 c -3.0986,-4.73391 -7.58679,-7.4543 -12.30778,-7.46001 z m 2.28358,7.46001 c 0.0596,0.0195 0.16033,0.0536 0.21963,0.0745 3.61562,0.14182 7.20863,0.63753 10.72751,1.48001 -0.28676,-0.53151 -0.60126,-1.05951 -0.92294,-1.55446 z"
           style="opacity:1;fill:#0000ff;fill-opacity:1;fill-rule:nonzero;stroke:none;stroke-width:4.52380943;stroke-linecap:round;stroke-linejoin:round;stroke-miterlimit:4;stroke-dasharray:none;stroke-opacity:1;paint-order:markers fill stroke"
           sodipodi:nodetypes="cccccccccccccccc" />
        <circle
           r="1.1244792"
           cy="143.90855"
           cx="-179.1118"
           id="circle4292"
           style="opacity:1;fill:#ffffff;fill-opacity:1;fill-rule:nonzero;stroke:none;stroke-width:4;stroke-linecap:round;stroke-linejoin:round;stroke-miterlimit:4;stroke-dasharray:none;stroke-opacity:1;paint-order:markers fill stroke" />
        <circle
           style="opacity:1;fill:#ffffff;fill-opacity:1;fill-rule:nonzero;stroke:none;stroke-width:4;stroke-linecap:round;stroke-linejoin:round;stroke-miterlimit:4;stroke-dasharray:none;stroke-opacity:1;paint-order:markers fill stroke"
           id="circle4294"
           cx="-187.34598"
           cy="147.69962"
           r="1.1244792" />
        <circle
           r="1.1244792"
           cy="155.30833"
           cx="-192.49596"
           id="circle4296"
           style="opacity:1;fill:#ffffff;fill-opacity:1;fill-rule:nonzero;stroke:none;stroke-width:4;stroke-linecap:round;stroke-linejoin:round;stroke-miterlimit:4;stroke-dasharray:none;stroke-opacity:1;paint-order:markers fill stroke" />
        <circle
           style="opacity:1;fill:#ffffff;fill-opacity:1;fill-rule:nonzero;stroke:none;stroke-width:4;stroke-linecap:round;stroke-linejoin:round;stroke-miterlimit:4;stroke-dasharray:none;stroke-opacity:1;paint-order:markers fill stroke"
           id="circle4298"
           cx="-193.15741"
           cy="165.30106"
           r="1.1244792" />
        <circle
           r="1.1244792"
           cy="173.76106"
           cx="-190.12134"
           id="circle4300"
           style="opacity:1;fill:#ffffff;fill-opacity:1;fill-rule:nonzero;stroke:none;stroke-width:4;stroke-linecap:round;stroke-linejoin:round;stroke-miterlimit:4;stroke-dasharray:none;stroke-opacity:1;paint-order:markers fill stroke" />
        <circle
           style="opacity:1;fill:#ffffff;fill-opacity:1;fill-rule:nonzero;stroke:none;stroke-width:4;stroke-linecap:round;stroke-linejoin:round;stroke-miterlimit:4;stroke-dasharray:none;stroke-opacity:1;paint-order:markers fill stroke"
           id="circle4302"
           cx="-183.60695"
           cy="179.73689"
           r="1.1244792" />
        <circle
           r="1.1244792"
           cy="180.00812"
           cx="-176.36966"
           id="circle4304"
           style="opacity:1;fill:#ffffff;fill-opacity:1;fill-rule:nonzero;stroke:none;stroke-width:4;stroke-linecap:round;stroke-linejoin:round;stroke-miterlimit:4;stroke-dasharray:none;stroke-opacity:1;paint-order:markers fill stroke" />
        <circle
           style="opacity:1;fill:#ffffff;fill-opacity:1;fill-rule:nonzero;stroke:none;stroke-width:4;stroke-linecap:round;stroke-linejoin:round;stroke-miterlimit:4;stroke-dasharray:none;stroke-opacity:1;paint-order:markers fill stroke"
           id="circle4306"
           cx="-170.77742"
           cy="148.0096"
           r="1.1244792" />
        <circle
           r="1.1244792"
           cy="175.89771"
           cx="-170.31635"
           id="circle4308"
           style="opacity:1;fill:#ffffff;fill-opacity:1;fill-rule:nonzero;stroke:none;stroke-width:4;stroke-linecap:round;stroke-linejoin:round;stroke-miterlimit:4;stroke-dasharray:none;stroke-opacity:1;paint-order:markers fill stroke" />
      </g>
    </g>
    <g
       id="g4393"
       transform="matrix(1.1146143,0,0,1.1146143,1.5879254,-15.040419)">
      <g
         transform="matrix(0.76599885,0,0,0.76599885,3.4746772,52.148314)"
         id="g4558">
        <path
           inkscape:connector-curvature="0"
           id="path4374"
           d="m 20.589457,218.20108 c -4.179599,0.12622 -14.7394303,7.98648 -14.7444833,10.99798 h -6.64e-4 V 243.445 h 0.0033 c 0.0396,0.58813 0.513784,0.97477 1.562293,1.0564 H 35.850004 c 4.128133,-0.12466 14.48021,-7.79392 14.739418,-10.88442 h 0.0056 v -14.43467 h -0.01111 c -0.07421,-0.54573 -0.551368,-0.90313 -1.55445,-0.98123 z m 1.189899,0.94659 H 45.7842 c 5.318251,0.41409 -6.851853,10.1165 -11.123968,10.24552 H 10.655387 c -5.3182503,-0.41409 6.851853,-10.1165 11.123969,-10.24552 z m 0.76734,1.61131 c -3.743522,0.0936 -14.4078433,7.13638 -9.747628,7.43695 H 33.83374 c 3.743526,-0.0936 14.407849,-7.13637 9.747628,-7.43695 z m -0.609656,0.41946 a 2.1559932,2.1559932 0 0 0 2.155936,2.15593 2.1559932,2.1559932 0 0 0 2.156099,-2.15593 2.1559932,2.1559932 0 0 0 2.155936,2.15593 2.1559932,2.1559932 0 0 0 2.155935,-2.15593 2.1559932,2.1559932 0 0 0 2.1561,2.15593 2.1559932,2.1559932 0 0 0 2.155936,-2.15593 2.1559932,2.1559932 0 0 0 2.155936,2.15593 2.1559932,2.1559932 0 0 0 2.156099,-2.15446 2.1559932,2.1559932 0 0 0 1.580921,2.07619 v 0.85787 a 2.1559932,2.1559932 0 0 1 -1.580921,-2.07619 2.1559932,2.1559932 0 0 1 -2.156099,2.15446 2.1559932,2.1559932 0 0 1 -2.155936,-2.15593 2.1559932,2.1559932 0 0 1 -2.155936,2.15593 2.1559932,2.1559932 0 0 1 -2.1561,-2.15593 2.1559932,2.1559932 0 0 1 -2.155935,2.15593 2.1559932,2.1559932 0 0 1 -2.155936,-2.15593 2.1559932,2.1559932 0 0 1 -2.156099,2.15593 2.1559932,2.1559932 0 0 1 -2.155936,-2.15593 2.1559932,2.1559932 0 0 1 -1.581085,2.07554 v -0.85787 a 2.1559932,2.1559932 0 0 0 1.581085,-2.07554 z m -5.521705,2.88635 a 2.1559932,2.1559932 0 0 0 2.155935,2.15593 2.1559932,2.1559932 0 0 0 2.156099,-2.15593 2.1559932,2.1559932 0 0 0 2.155936,2.15593 2.1559932,2.1559932 0 0 0 2.155936,-2.15593 2.1559932,2.1559932 0 0 0 2.156099,2.15593 2.1559932,2.1559932 0 0 0 2.155936,-2.15593 2.1559932,2.1559932 0 0 0 2.155936,2.15593 2.1559932,2.1559932 0 0 0 2.156099,-2.15446 2.1559932,2.1559932 0 0 0 1.580922,2.07619 v 0.85787 a 2.1559932,2.1559932 0 0 1 -1.580922,-2.0762 2.1559932,2.1559932 0 0 1 -2.156099,2.15447 2.1559932,2.1559932 0 0 1 -2.155936,-2.15594 2.1559932,2.1559932 0 0 1 -2.155936,2.15594 2.1559932,2.1559932 0 0 1 -2.156099,-2.15594 2.1559932,2.1559932 0 0 1 -2.155936,2.15594 2.1559932,2.1559932 0 0 1 -2.155936,-2.15594 2.1559932,2.1559932 0 0 1 -2.156099,2.15594 2.1559932,2.1559932 0 0 1 -2.155935,-2.15594 2.1559932,2.1559932 0 0 1 -1.581086,2.07554 v -0.85786 a 2.1559932,2.1559932 0 0 0 1.581086,-2.07554 z"
           style="opacity:1;fill:#0000ff;fill-opacity:1;fill-rule:nonzero;stroke:none;stroke-width:1.2648145;stroke-linecap:round;stroke-linejoin:round;stroke-miterlimit:4;stroke-dasharray:none;stroke-opacity:1;paint-order:markers fill stroke" />
        <circle
           style="opacity:1;fill:#0000ff;fill-opacity:1;fill-rule:nonzero;stroke:none;stroke-width:4;stroke-linecap:round;stroke-linejoin:round;stroke-miterlimit:4;stroke-dasharray:none;stroke-opacity:1;paint-order:markers fill stroke"
           id="path4409"
           cx="27.715103"
           cy="219.31544"
           r="1.9182291" />
        <circle
           style="opacity:1;fill:#0000ff;fill-opacity:1;fill-rule:nonzero;stroke:none;stroke-width:4;stroke-linecap:round;stroke-linejoin:round;stroke-miterlimit:4;stroke-dasharray:none;stroke-opacity:1;paint-order:markers fill stroke"
           id="circle4413"
           cx="44.516148"
           cy="217.23087"
           r="1.9182291" />
        <circle
           r="0.66145825"
           cy="215.70676"
           cx="34.858852"
           id="circle4415"
           style="opacity:1;fill:#0000ff;fill-opacity:1;fill-rule:nonzero;stroke:none;stroke-width:1.37931025;stroke-linecap:round;stroke-linejoin:round;stroke-miterlimit:4;stroke-dasharray:none;stroke-opacity:1;paint-order:markers fill stroke" />
        <circle
           style="opacity:1;fill:#0000ff;fill-opacity:1;fill-rule:nonzero;stroke:none;stroke-width:1.37931025;stroke-linecap:round;stroke-linejoin:round;stroke-miterlimit:4;stroke-dasharray:none;stroke-opacity:1;paint-order:markers fill stroke"
           id="circle4417"
           cx="23.316572"
           cy="209.40685"
           r="0.66145825" />
        <circle
           r="1.9182291"
           cy="210.28279"
           cx="32.808334"
           id="circle4419"
           style="opacity:1;fill:#0000ff;fill-opacity:1;fill-rule:nonzero;stroke:none;stroke-width:4;stroke-linecap:round;stroke-linejoin:round;stroke-miterlimit:4;stroke-dasharray:none;stroke-opacity:1;paint-order:markers fill stroke" />
        <circle
           style="opacity:1;fill:#0000ff;fill-opacity:1;fill-rule:nonzero;stroke:none;stroke-width:1.37931025;stroke-linecap:round;stroke-linejoin:round;stroke-miterlimit:4;stroke-dasharray:none;stroke-opacity:1;paint-order:markers fill stroke"
           id="circle4421"
           cx="15.983785"
           cy="219.47926"
           r="0.66145825" />
        <circle
           style="opacity:1;fill:#0000ff;fill-opacity:1;fill-rule:nonzero;stroke:none;stroke-width:1.37931025;stroke-linecap:round;stroke-linejoin:round;stroke-miterlimit:4;stroke-dasharray:none;stroke-opacity:1;paint-order:markers fill stroke"
           id="circle4423"
           cx="26.524477"
           cy="213.98697"
           r="0.66145825" />
        <circle
           r="0.66145825"
           cy="210.05891"
           cx="14.344242"
           id="circle4425"
           style="opacity:1;fill:#0000ff;fill-opacity:1;fill-rule:nonzero;stroke:none;stroke-width:1.37931025;stroke-linecap:round;stroke-linejoin:round;stroke-miterlimit:4;stroke-dasharray:none;stroke-opacity:1;paint-order:markers fill stroke" />
        <circle
           style="opacity:1;fill:#0000ff;fill-opacity:1;fill-rule:nonzero;stroke:none;stroke-width:1.37931025;stroke-linecap:round;stroke-linejoin:round;stroke-miterlimit:4;stroke-dasharray:none;stroke-opacity:1;paint-order:markers fill stroke"
           id="circle4427"
           cx="39.489059"
           cy="212.86249"
           r="0.66145825" />
        <circle
           r="0.66145825"
           cy="208.62915"
           cx="42.928642"
           id="circle4429"
           style="opacity:1;fill:#0000ff;fill-opacity:1;fill-rule:nonzero;stroke:none;stroke-width:1.37931025;stroke-linecap:round;stroke-linejoin:round;stroke-miterlimit:4;stroke-dasharray:none;stroke-opacity:1;paint-order:markers fill stroke" />
        <circle
           style="opacity:1;fill:#0000ff;fill-opacity:1;fill-rule:nonzero;stroke:none;stroke-width:4;stroke-linecap:round;stroke-linejoin:round;stroke-miterlimit:4;stroke-dasharray:none;stroke-opacity:1;paint-order:markers fill stroke"
           id="circle4431"
           cx="20.233978"
           cy="215.49973"
           r="1.9182291" />
        <circle
           style="opacity:1;fill:#0000ff;fill-opacity:1;fill-rule:nonzero;stroke:none;stroke-width:1.37931025;stroke-linecap:round;stroke-linejoin:round;stroke-miterlimit:4;stroke-dasharray:none;stroke-opacity:1;paint-order:markers fill stroke"
           id="circle4433"
           cx="46.169788"
           cy="211.27498"
           r="0.66145825" />
      </g>
    </g>
    <path
       style="opacity:1;fill:#0000ff;fill-opacity:1;fill-rule:nonzero;stroke:none;stroke-width:1.03795123;stroke-linecap:round;stroke-linejoin:round;stroke-miterlimit:4;stroke-dasharray:none;stroke-opacity:1;paint-order:markers fill stroke"
       d="m 27.745487,259.21641 c -1.833827,1e-5 -3.320432,1.48662 -3.320438,3.32045 h 0.776675 c 3.6e-5,-1.40485 1.138916,-2.54367 2.543763,-2.54364 1.404847,-3e-5 2.543728,1.13879 2.543764,2.54364 1.7e-5,1.83382 1.486619,3.32042 3.320437,3.32043 1.833818,-10e-6 3.320419,-1.48661 3.320436,-3.32043 1.3e-5,-0.0848 0.0043,-0.16959 0.01275,-0.25398 0.130482,-1.29995 1.22454,-2.28968 2.531026,-2.28966 1.404847,-3e-5 2.543728,1.13879 2.543764,2.54364 1.5e-5,1.74271 1.347294,3.18888 3.085638,3.31212 0.07815,0.005 0.156463,0.008 0.234799,0.008 1.833819,-1e-5 3.320422,-1.48661 3.320439,-3.32043 h -0.776675 c -4.7e-5,1.40484 -1.138925,2.54365 -2.543764,2.54362 -1.404839,3e-5 -2.543717,-1.13878 -2.543764,-2.54362 -6e-6,-1.83383 -1.486611,-3.32044 -3.320437,-3.32045 -1.742662,1e-5 -3.188814,1.34722 -3.312123,3.08551 -0.0056,0.0782 -0.0084,0.15655 -0.0084,0.23494 -4.7e-5,1.40484 -1.138925,2.54365 -2.543764,2.54362 -1.404839,3e-5 -2.543717,-1.13878 -2.543764,-2.54362 -6e-6,-1.83383 -1.486611,-3.32044 -3.320437,-3.32045 z m -17.341444,0.5211 c -3.0552003,0.0342 -4.1193703,0.90123 -4.1193703,2.06839 0.03433,1.81939 1.3319748,2.47932 2.29864,2.6564 0.9666652,0.17708 1.4158106,0.31258 1.9213013,0.76649 0.505491,0.45391 -0.0078,2.41649 0.658937,2.44548 0.934532,0 0.752536,-0.5462 0.752536,-3.34982 0,-1.41999 0.308058,-4.55261 -1.512044,-4.58694 z m 8.127039,4.56564 c -1.819384,0.0343 -2.479323,1.33196 -2.656406,2.29863 -0.177083,0.96667 -0.312584,1.4158 -0.76648,1.9213 -0.453896,0.5055 -2.416487,-0.007 -2.445472,0.65894 0,0.93453 0.546195,0.75254 3.349802,0.75254 1.420003,0 4.552626,0.30806 4.586955,-1.51205 -0.03433,-3.05521 -0.90124,-4.11936 -2.068399,-4.11936 z m 9.214405,1.55414 c -1.833827,1e-5 -3.320432,1.48662 -3.320438,3.32045 h 0.776675 c 3.1e-5,-1.40485 1.138913,-2.54368 2.543763,-2.54365 1.404851,-3e-5 2.543733,1.1388 2.543764,2.54365 1.7e-5,1.83382 1.486619,3.32042 3.320437,3.32043 1.833818,-1e-5 3.320419,-1.48661 3.320436,-3.32043 1.3e-5,-0.0848 0.0043,-0.16959 0.01275,-0.25398 0.130477,-1.29996 1.224536,-2.28969 2.531026,-2.28967 1.404851,-3e-5 2.543733,1.1388 2.543764,2.54365 2.5e-5,1.7427 1.347302,3.18886 3.085638,3.3121 0.07815,0.005 0.156463,0.008 0.234799,0.008 1.833819,-10e-6 3.320422,-1.48661 3.320439,-3.32043 h -0.776675 c -4.7e-5,1.40484 -1.138925,2.54365 -2.543764,2.54362 -1.404839,3e-5 -2.543717,-1.13878 -2.543764,-2.54362 -1.7e-5,-1.83382 -1.486619,-3.32042 -3.320437,-3.32043 -1.742659,10e-6 -3.188809,1.34721 -3.312123,3.0855 -0.0056,0.0782 -0.0084,0.15655 -0.0084,0.23493 -4.7e-5,1.40484 -1.138925,2.54365 -2.543764,2.54362 -1.404839,3e-5 -2.543717,-1.13878 -2.543764,-2.54362 -1.7e-5,-1.83382 -1.486619,-3.32042 -3.320437,-3.32043 z m -16.586226,2.42791 c -0.492935,0 -0.892538,0.3996 -0.892532,0.89254 6e-6,0.49293 0.399604,0.89252 0.892532,0.89252 0.492926,0 0.892522,-0.39959 0.892528,-0.89252 6e-6,-0.49293 -0.399594,-0.89254 -0.892528,-0.89254 z m -6.1641712,0.11606 c -1.4817244,-0.003 -3.2503071,0.16654 -3.2760531,1.53161 0.03433,3.05521 0.9012433,4.11938 2.0684044,4.11938 1.8193811,-0.0343 2.4793226,-1.33198 2.6564036,-2.29864 0.177081,-0.96666 0.31258,-1.4158 0.766476,-1.92129 0.453896,-0.50549 2.416489,0.007 2.445476,-0.65896 0,-0.93453 -0.546194,-0.75252 -3.349801,-0.75252 -0.354999,0 -0.8170014,-0.0192 -1.3109059,-0.0196 z m 6.1598802,2.27986 c -0.934536,0 -0.752537,0.5462 -0.752537,3.3498 0,1.42 -0.308056,4.55264 1.512045,4.58697 3.055199,-0.0343 4.119369,-0.90127 4.119369,-2.06841 -0.03433,-1.81939 -1.331974,-2.47933 -2.298641,-2.65641 -0.966667,-0.17708 -1.415809,-0.31258 -1.921299,-0.76648 -0.50549,-0.4539 0.0078,-2.41647 -0.658937,-2.44547 z m 16.590517,1.81698 c -1.833823,10e-6 -3.320426,1.48662 -3.320438,3.32044 h 0.776675 c 3.6e-5,-1.40485 1.138916,-2.54367 2.543763,-2.54364 1.404847,-3e-5 2.543728,1.13879 2.543764,2.54364 1.7e-5,1.83382 1.486619,3.32042 3.320437,3.32043 1.833818,-10e-6 3.320419,-1.48661 3.320436,-3.32043 1.3e-5,-0.0848 0.0043,-0.16959 0.01275,-0.25398 0.130482,-1.29995 1.22454,-2.28968 2.531026,-2.28966 1.404847,-3e-5 2.543728,1.13879 2.543764,2.54364 2e-5,1.7427 1.347298,3.18887 3.085638,3.31211 0.07815,0.005 0.156463,0.008 0.234799,0.008 1.833823,-10e-6 3.320427,-1.48662 3.320439,-3.32044 h -0.776675 c -4.2e-5,1.40484 -1.138921,2.54366 -2.543764,2.54363 -1.404843,3e-5 -2.543722,-1.13879 -2.543764,-2.54363 -1.2e-5,-1.83382 -1.486615,-3.32043 -3.320437,-3.32044 -1.742662,10e-6 -3.188814,1.34722 -3.312123,3.08551 -0.0056,0.0782 -0.0084,0.15655 -0.0084,0.23493 -4.2e-5,1.40484 -1.138921,2.54366 -2.543764,2.54363 -1.404843,3e-5 -2.543722,-1.13879 -2.543764,-2.54363 -1.2e-5,-1.83382 -1.486615,-3.32043 -3.320437,-3.32044 z"
       id="path4519"
       inkscape:connector-curvature="0"
       sodipodi:nodetypes="ccccccccccccccccccccccccczzcscczzcscccccccccccccccccccccccccsssssccczzcscccscczzcccccccccccccccccccccccc" />
    <g
       transform="matrix(0.80076291,0,0,0.80076291,-0.63416617,-29.390132)"
       id="g5031">
      <path
         inkscape:connector-curvature="0"
         id="path4839"
         d="m 83.853903,262.6945 c -4.1858,0.12642 -14.76148,7.99949 -14.76654,11.01587 h -5.1e-4 v 14.26889 h 0.004 c 0.0397,0.58908 0.51418,0.97657 1.56424,1.05834 h 28.4825 c 4.134257,-0.12487 14.501787,-7.80666 14.761367,-10.90218 h 0.005 v -14.45803 h -0.0108 c -0.0743,-0.54663 -0.55244,-0.90465 -1.55701,-0.98289 h -0.99582 -3.76463 -0.68832 v 0.94827 h 0.68832 1.51102 c 5.32616,0.41475 -6.86194,10.13268 -11.140397,10.2619 h -24.04076 c -5.32615,-0.41476 6.86194,-10.13268 11.1404,-10.2619 h 2.57142 3.76256 0.68988 v -0.94827 h -0.68988 -3.76256 z m 1.96009,2.56212 c -3.74908,0.0938 -14.42933,7.14811 -9.76219,7.44916 h 21.0659 c 3.749077,-0.0938 14.429327,-7.14809 9.762187,-7.44916 H 91.379543 Z"
         style="opacity:1;fill:#0000ff;fill-opacity:1;fill-rule:nonzero;stroke:none;stroke-width:1.26677918;stroke-linecap:round;stroke-linejoin:round;stroke-miterlimit:4;stroke-dasharray:none;stroke-opacity:1;paint-order:markers fill stroke" />
      <g
         transform="matrix(0.22400116,0,0,0.22403189,104.72754,223.10865)"
         id="g4891">
        <path
           style="opacity:1;fill:#0000ff;fill-opacity:1;fill-rule:nonzero;stroke:none;stroke-width:2.66666698;stroke-linecap:round;stroke-linejoin:round;stroke-miterlimit:4;stroke-dasharray:none;stroke-opacity:1;paint-order:markers fill stroke"
           d="m -131.05712,149.47512 c -5.14041,0.30543 -9.19156,5.92888 -9.19789,12.7677 0.003,6.84201 4.05508,12.47038 9.19789,12.77596 v 0.0202 c 13.95497,0 25.26771,11.31274 25.26771,25.26771 h 0.0584 c -0.0371,0.22187 -0.0566,0.44633 -0.0584,0.67128 -5e-5,2.35914 1.91243,4.27162 4.27157,4.27157 2.359145,5e-5 4.271624,-1.91242 4.271578,-4.27157 -9.04e-4,-0.22488 -0.01957,-0.44934 -0.05581,-0.67128 h 0.113689 c -0.03694,0.22189 -0.05629,0.44635 -0.05788,0.67128 -4.6e-5,2.35914 1.91243,4.27162 4.271574,4.27157 2.358942,-2.4e-4 4.271103,-1.91263 4.271057,-4.27157 -7.35e-4,-0.22487 -0.01923,-0.44932 -0.0553,-0.67128 h 0.113689 c -0.03711,0.22187 -0.05663,0.44633 -0.05839,0.67128 -4.6e-5,2.35914 1.91243,4.27162 4.271574,4.27157 2.359143,5e-5 4.271619,-1.91243 4.271573,-4.27157 -7.32e-4,-0.22487 -0.01922,-0.44932 -0.05529,-0.67128 h 0.05529 c 0.121046,-33.22494 -33.341124,-50.7756 -50.896634,-50.83157 z"
           id="path4841"
           inkscape:connector-curvature="0"
           sodipodi:nodetypes="cccccccccccccccccccccc" />
        <path
           style="opacity:1;fill:#0000ff;fill-opacity:1;fill-rule:nonzero;stroke:none;stroke-width:4.52380943;stroke-linecap:round;stroke-linejoin:round;stroke-miterlimit:4;stroke-dasharray:none;stroke-opacity:1;paint-order:markers fill stroke"
           d="m -179.83967,140.53512 a 16.333034,21.707863 0 0 0 -16.33285,21.70772 16.333034,21.707863 0 0 0 16.33285,21.70771 16.333034,21.707863 0 0 0 16.33337,-21.70771 16.333034,21.707863 0 0 0 -16.33337,-21.70772 z m 0,7.13393 a 10.965171,14.573558 0 0 1 10.96522,14.57379 10.965171,14.573558 0 0 1 -10.96522,14.57378 10.965171,14.573558 0 0 1 -10.96522,-14.57378 10.965171,14.573558 0 0 1 10.96522,-14.57379 z"
           id="path4843"
           inkscape:connector-curvature="0" />
        <path
           style="opacity:1;fill:#0000ff;fill-opacity:1;fill-rule:nonzero;stroke:none;stroke-width:2.66666698;stroke-linecap:round;stroke-linejoin:round;stroke-miterlimit:4;stroke-dasharray:none;stroke-opacity:1;paint-order:markers fill stroke"
           d="m -139.21871,174.27889 a 10.965171,14.573558 0 0 0 0.92449,0.75344 10.965171,14.573558 0 0 0 0.01,0.006 10.96517,14.573558 0 0 1 -0.93431,-0.75964 z"
           id="path4845"
           inkscape:connector-curvature="0" />
        <path
           style="opacity:1;fill:#0000ff;fill-opacity:1;fill-rule:nonzero;stroke:none;stroke-width:2.66666698;stroke-linecap:round;stroke-linejoin:round;stroke-miterlimit:4;stroke-dasharray:none;stroke-opacity:1;paint-order:markers fill stroke"
           d="m -140.09205,173.39884 a 10.965171,14.573558 0 0 0 0.86352,0.8723 10.965171,14.573558 0 0 0 0.01,0.008 10.96517,14.573558 0 0 1 -0.87333,-0.88005 z"
           id="path4847"
           inkscape:connector-curvature="0" />
        <path
           style="opacity:1;fill:#0000ff;fill-opacity:1;fill-rule:nonzero;stroke:none;stroke-width:2.66666698;stroke-linecap:round;stroke-linejoin:round;stroke-miterlimit:4;stroke-dasharray:none;stroke-opacity:1;paint-order:markers fill stroke"
           d="m -140.86202,172.44799 a 10.965171,14.573558 0 0 0 0.76067,0.94155 10.965171,14.573558 0 0 0 0.009,0.009 10.96517,14.573558 0 0 1 -0.76997,-0.95085 z"
           id="path4849"
           inkscape:connector-curvature="0" />
        <path
           style="opacity:1;fill:#0000ff;fill-opacity:1;fill-rule:nonzero;stroke:none;stroke-width:2.66666698;stroke-linecap:round;stroke-linejoin:round;stroke-miterlimit:4;stroke-dasharray:none;stroke-opacity:1;paint-order:markers fill stroke"
           d="m -141.50333,171.48836 a 10.965171,14.573558 0 0 0 0.59997,0.90796 10.965171,14.573558 0 0 0 0.008,0.01 10.96517,14.573558 0 0 1 -0.60772,-0.91778 z"
           id="path4851"
           inkscape:connector-curvature="0" />
        <path
           style="opacity:1;fill:#0000ff;fill-opacity:1;fill-rule:nonzero;stroke:none;stroke-width:2.66666698;stroke-linecap:round;stroke-linejoin:round;stroke-miterlimit:4;stroke-dasharray:none;stroke-opacity:1;paint-order:markers fill stroke"
           d="m -142.06763,170.48171 a 10.965171,14.573558 0 0 0 0.44131,0.8201 10.965171,14.573558 0 0 0 0.006,0.009 10.96517,14.573558 0 0 1 -0.44752,-0.82941 z"
           id="path4853"
           inkscape:connector-curvature="0" />
        <path
           style="opacity:1;fill:#0000ff;fill-opacity:1;fill-rule:nonzero;stroke:none;stroke-width:2.66666698;stroke-linecap:round;stroke-linejoin:round;stroke-miterlimit:4;stroke-dasharray:none;stroke-opacity:1;paint-order:markers fill stroke"
           d="m -142.80402,168.8663 a 10.965171,14.573558 0 0 0 0.54002,1.25057 10.965171,14.573558 0 0 0 0.004,0.008 10.96517,14.573558 0 0 1 -0.54416,-1.25832 z"
           id="path4855"
           inkscape:connector-curvature="0" />
        <path
           style="opacity:1;fill:#0000ff;fill-opacity:1;fill-rule:nonzero;stroke:none;stroke-width:2.66666698;stroke-linecap:round;stroke-linejoin:round;stroke-miterlimit:4;stroke-dasharray:none;stroke-opacity:1;paint-order:markers fill stroke"
           d="m -143.12028,167.93096 a 10.965171,14.573558 0 0 0 0.31057,0.92242 10.965171,14.573558 0 0 0 0.006,0.0129 10.96517,14.573558 0 0 1 -0.31626,-0.93534 z"
           id="path4857"
           inkscape:connector-curvature="0" />
        <path
           style="opacity:1;fill:#0000ff;fill-opacity:1;fill-rule:nonzero;stroke:none;stroke-width:2.66666698;stroke-linecap:round;stroke-linejoin:round;stroke-miterlimit:4;stroke-dasharray:none;stroke-opacity:1;paint-order:markers fill stroke"
           d="m -143.46962,166.67574 a 10.965171,14.573558 0 0 0 0.21239,0.84801 10.965171,14.573558 0 0 0 0.003,0.007 10.96517,14.573558 0 0 1 -0.21497,-0.85525 z"
           id="path4859"
           inkscape:connector-curvature="0" />
        <path
           style="opacity:1;fill:#0000ff;fill-opacity:1;fill-rule:nonzero;stroke:none;stroke-width:2.66666698;stroke-linecap:round;stroke-linejoin:round;stroke-miterlimit:4;stroke-dasharray:none;stroke-opacity:1;paint-order:markers fill stroke"
           d="m -143.76055,165.20761 a 10.965171,14.573558 0 0 0 0.15761,0.93379 10.965171,14.573558 0 0 0 0.002,0.009 10.96517,14.573558 0 0 1 -0.15968,-0.94309 z"
           id="path4861"
           inkscape:connector-curvature="0" />
        <path
           style="opacity:1;fill:#0000ff;fill-opacity:1;fill-rule:nonzero;stroke:none;stroke-width:2.66666698;stroke-linecap:round;stroke-linejoin:round;stroke-miterlimit:4;stroke-dasharray:none;stroke-opacity:1;paint-order:markers fill stroke"
           d="m -143.93677,163.69452 a 10.965171,14.573558 0 0 0 0.094,1.02526 10.965171,14.573558 0 0 0 0.002,0.01 10.96517,14.573558 0 0 1 -0.0956,-1.03507 z"
           id="path4863"
           inkscape:connector-curvature="0" />
        <path
           style="opacity:1;fill:#0000ff;fill-opacity:1;fill-rule:nonzero;stroke:none;stroke-width:2.66666698;stroke-linecap:round;stroke-linejoin:round;stroke-miterlimit:4;stroke-dasharray:none;stroke-opacity:1;paint-order:markers fill stroke"
           d="m -144.0024,162.24293 a 10.965171,14.573558 0 0 0 0.0274,1.03095 10.965171,14.573558 0 0 0 0.001,0.01 10.96517,14.573558 0 0 1 -0.0284,-1.04077 z"
           id="path4865"
           inkscape:connector-curvature="0" />
        <path
           style="opacity:1;fill:#0000ff;fill-opacity:1;fill-rule:nonzero;stroke:none;stroke-width:2.66666698;stroke-linecap:round;stroke-linejoin:round;stroke-miterlimit:4;stroke-dasharray:none;stroke-opacity:1;paint-order:markers fill stroke"
           d="m -138.28233,149.4618 a 10.965171,14.573558 0 0 0 -0.67955,0.5178 10.965171,14.573558 0 0 0 -0.89142,0.84749 10.965171,14.573558 0 0 0 -0.82321,0.96118 10.965171,14.573558 0 0 0 -0.74724,1.06609 10.965171,14.573558 0 0 0 -0.66352,1.15962 10.965171,14.573558 0 0 0 -0.57258,1.24178 10.965171,14.573558 0 0 0 -0.47697,1.31207 10.965171,14.573558 0 0 0 -0.37569,1.36839 10.965171,14.573558 0 0 0 -0.2713,1.41128 10.965171,14.573558 0 0 0 -0.16381,1.44074 10.965171,14.573558 0 0 0 -0.0548,1.45469 10.96517,14.573558 0 0 1 5.72006,-12.78113 z"
           id="path4867"
           inkscape:connector-curvature="0" />
        <path
           style="opacity:1;fill:#0000ff;fill-opacity:1;fill-rule:nonzero;stroke:none;stroke-width:2.66666698;stroke-linecap:round;stroke-linejoin:round;stroke-miterlimit:4;stroke-dasharray:none;stroke-opacity:1;paint-order:markers fill stroke"
           d="m -138.26322,149.44682 h -41.57627 a 9.6278953,12.796215 0 0 0 -9.62784,12.79611 9.6278953,12.796215 0 0 0 9.62784,12.79612 h 41.5556 a 10.96517,14.573558 0 0 1 -5.2e-4,-5.3e-4 10.965171,14.573558 0 0 1 -0.01,-0.006 10.965171,14.573558 0 0 1 -0.9245,-0.75344 10.965171,14.573558 0 0 1 -0.01,-0.008 10.965171,14.573558 0 0 1 -0.86351,-0.8723 10.965171,14.573558 0 0 1 -0.009,-0.009 10.965171,14.573558 0 0 1 -0.76068,-0.94154 10.96517,14.573558 0 0 1 -0.0336,-0.0419 10.965171,14.573558 0 0 1 -0.008,-0.01 10.965171,14.573558 0 0 1 -0.59996,-0.90796 10.96517,14.573558 0 0 1 -0.11679,-0.17725 10.965171,14.573558 0 0 1 -0.006,-0.009 10.965171,14.573558 0 0 1 -0.44131,-0.8201 10.96517,14.573558 0 0 1 -0.19224,-0.35709 10.965171,14.573558 0 0 1 -0.004,-0.008 10.965171,14.573558 0 0 1 -0.54002,-1.25057 10.965171,14.573558 0 0 1 -0.006,-0.0129 10.965171,14.573558 0 0 1 -0.31058,-0.92242 10.96517,14.573558 0 0 1 -0.13435,-0.39998 10.965171,14.573558 0 0 1 -0.003,-0.007 10.965171,14.573558 0 0 1 -0.21239,-0.84801 10.96517,14.573558 0 0 1 -0.13126,-0.52503 10.965171,14.573558 0 0 1 -0.002,-0.009 10.965171,14.573558 0 0 1 -0.15762,-0.93379 10.96517,14.573558 0 0 1 -0.0806,-0.47801 10.965171,14.573558 0 0 1 -0.002,-0.01 10.965171,14.573558 0 0 1 -0.0941,-1.02526 10.96517,14.573558 0 0 1 -0.0372,-0.41083 10.965171,14.573558 0 0 1 -0.001,-0.01 10.965171,14.573558 0 0 1 -0.0274,-1.03094 10.965171,14.573558 0 0 1 0.0548,-1.45469 10.965171,14.573558 0 0 1 0.16382,-1.44074 10.965171,14.573558 0 0 1 0.2713,-1.41128 10.965171,14.573558 0 0 1 0.37568,-1.3684 10.965171,14.573558 0 0 1 0.47698,-1.31206 10.965171,14.573558 0 0 1 0.57258,-1.24178 10.965171,14.573558 0 0 1 0.66352,-1.15963 10.965171,14.573558 0 0 1 0.74724,-1.06608 10.965171,14.573558 0 0 1 0.82321,-0.96118 10.965171,14.573558 0 0 1 0.89141,-0.84749 10.965171,14.573558 0 0 1 0.67955,-0.5178 10.96517,14.573558 0 0 1 0.0191,-0.015 z"
           id="path4869"
           inkscape:connector-curvature="0" />
        <path
           style="opacity:1;fill:#0000ff;fill-opacity:1;fill-rule:nonzero;stroke:none;stroke-width:4.52380943;stroke-linecap:round;stroke-linejoin:round;stroke-miterlimit:4;stroke-dasharray:none;stroke-opacity:1;paint-order:markers fill stroke"
           d="m -133.03736,140.53512 c -9.02037,1.4e-4 -16.33279,9.71895 -16.33285,21.70772 6e-5,11.98877 7.31248,21.70757 16.33285,21.70771 4.17026,-0.01 8.17974,-2.13935 11.20655,-5.95209 -2.44676,-1.0268 -5.02929,-1.69397 -7.66723,-1.98076 -1.13874,0.52292 -2.33453,0.79285 -3.53932,0.79892 -6.05598,4e-5 -10.96531,-6.52491 -10.96522,-14.57378 -1e-4,-8.04887 4.90924,-14.57383 10.96522,-14.57379 0.76768,0.002 1.53307,0.11144 2.28358,0.32608 h 10.0242 c -3.0986,-4.73391 -7.58679,-7.4543 -12.30778,-7.46001 z m 2.28358,7.46001 c 0.0596,0.0195 0.16033,0.0536 0.21963,0.0745 3.61562,0.14182 7.20863,0.63753 10.72751,1.48001 -0.28676,-0.53151 -0.60126,-1.05951 -0.92294,-1.55446 z"
           id="path4871"
           inkscape:connector-curvature="0"
           sodipodi:nodetypes="cccccccccccccccc" />
        <circle
           style="opacity:1;fill:#ffffff;fill-opacity:1;fill-rule:nonzero;stroke:none;stroke-width:4;stroke-linecap:round;stroke-linejoin:round;stroke-miterlimit:4;stroke-dasharray:none;stroke-opacity:1;paint-order:markers fill stroke"
           id="circle4873"
           cx="-179.1118"
           cy="143.90855"
           r="1.1244792" />
        <circle
           r="1.1244792"
           cy="147.69962"
           cx="-187.34598"
           id="circle4875"
           style="opacity:1;fill:#ffffff;fill-opacity:1;fill-rule:nonzero;stroke:none;stroke-width:4;stroke-linecap:round;stroke-linejoin:round;stroke-miterlimit:4;stroke-dasharray:none;stroke-opacity:1;paint-order:markers fill stroke" />
        <circle
           style="opacity:1;fill:#ffffff;fill-opacity:1;fill-rule:nonzero;stroke:none;stroke-width:4;stroke-linecap:round;stroke-linejoin:round;stroke-miterlimit:4;stroke-dasharray:none;stroke-opacity:1;paint-order:markers fill stroke"
           id="circle4877"
           cx="-192.49596"
           cy="155.30833"
           r="1.1244792" />
        <circle
           r="1.1244792"
           cy="165.30106"
           cx="-193.15741"
           id="circle4879"
           style="opacity:1;fill:#ffffff;fill-opacity:1;fill-rule:nonzero;stroke:none;stroke-width:4;stroke-linecap:round;stroke-linejoin:round;stroke-miterlimit:4;stroke-dasharray:none;stroke-opacity:1;paint-order:markers fill stroke" />
        <circle
           style="opacity:1;fill:#ffffff;fill-opacity:1;fill-rule:nonzero;stroke:none;stroke-width:4;stroke-linecap:round;stroke-linejoin:round;stroke-miterlimit:4;stroke-dasharray:none;stroke-opacity:1;paint-order:markers fill stroke"
           id="circle4881"
           cx="-190.12134"
           cy="173.76106"
           r="1.1244792" />
        <circle
           r="1.1244792"
           cy="179.73689"
           cx="-183.60695"
           id="circle4883"
           style="opacity:1;fill:#ffffff;fill-opacity:1;fill-rule:nonzero;stroke:none;stroke-width:4;stroke-linecap:round;stroke-linejoin:round;stroke-miterlimit:4;stroke-dasharray:none;stroke-opacity:1;paint-order:markers fill stroke" />
        <circle
           style="opacity:1;fill:#ffffff;fill-opacity:1;fill-rule:nonzero;stroke:none;stroke-width:4;stroke-linecap:round;stroke-linejoin:round;stroke-miterlimit:4;stroke-dasharray:none;stroke-opacity:1;paint-order:markers fill stroke"
           id="circle4885"
           cx="-176.36966"
           cy="180.00812"
           r="1.1244792" />
        <circle
           r="1.1244792"
           cy="148.0096"
           cx="-170.77742"
           id="circle4887"
           style="opacity:1;fill:#ffffff;fill-opacity:1;fill-rule:nonzero;stroke:none;stroke-width:4;stroke-linecap:round;stroke-linejoin:round;stroke-miterlimit:4;stroke-dasharray:none;stroke-opacity:1;paint-order:markers fill stroke" />
        <circle
           style="opacity:1;fill:#ffffff;fill-opacity:1;fill-rule:nonzero;stroke:none;stroke-width:4;stroke-linecap:round;stroke-linejoin:round;stroke-miterlimit:4;stroke-dasharray:none;stroke-opacity:1;paint-order:markers fill stroke"
           id="circle4889"
           cx="-170.31635"
           cy="175.89771"
           r="1.1244792" />
      </g>
      <path
         style="opacity:1;fill:#0000ff;fill-opacity:1;fill-rule:nonzero;stroke:none;stroke-width:4.476336;stroke-linecap:round;stroke-linejoin:round;stroke-miterlimit:4;stroke-dasharray:none;stroke-opacity:1;paint-order:markers fill stroke"
         d="m 97.795022,249.65974 c -3.034639,0 -5.477701,2.44306 -5.477701,5.4777 v 12.25351 h 14.320049 v -12.25351 c 0,-3.03464 -2.44306,-5.47771 -5.4777,-5.4777 z m -3.802351,5.50715 h 11.145569 c 0.21071,0 0.38034,0.16963 0.38034,0.38034 0,0.21071 -0.16963,0.38034 -0.38034,0.38034 H 93.992671 c -0.210709,0 -0.380338,-0.16963 -0.380338,-0.38034 0,-0.21071 0.169629,-0.38034 0.380338,-0.38034 z m 0,3.16415 h 11.145569 c 0.21071,0 0.38034,0.16963 0.38034,0.38034 0,0.21071 -0.16963,0.38034 -0.38034,0.38034 H 93.992671 c -0.210709,0 -0.380338,-0.16963 -0.380338,-0.38034 0,-0.21071 0.169629,-0.38034 0.380338,-0.38034 z m 0,3.16363 h 11.145569 c 0.21071,0 0.38034,0.16963 0.38034,0.38034 0,0.21071 -0.16963,0.38034 -0.38034,0.38034 H 93.992671 c -0.210709,0 -0.380338,-0.16963 -0.380338,-0.38034 0,-0.21071 0.169629,-0.38034 0.380338,-0.38034 z m 0,3.16415 h 11.145569 c 0.21071,0 0.38034,0.16963 0.38034,0.38034 0,0.21071 -0.16963,0.38034 -0.38034,0.38034 H 93.992671 c -0.210709,0 -0.380338,-0.16963 -0.380338,-0.38034 0,-0.21071 0.169629,-0.38034 0.380338,-0.38034 z"
         id="path4893"
         inkscape:connector-curvature="0" />
    </g>
    <g
       transform="matrix(1.1917169,0,0,1.1917169,-25.579716,17.928593)"
       id="g5196">
      <g
         id="g5078">
        <path
           style="opacity:1;fill:#0000ff;fill-opacity:1;fill-rule:nonzero;stroke:none;stroke-width:2.38276839;stroke-linecap:round;stroke-linejoin:round;stroke-miterlimit:4;stroke-dasharray:none;stroke-opacity:1;paint-order:markers fill stroke"
           d="m 129.25655,207.4387 c -0.48328,10e-6 -0.91707,0.20146 -1.22518,0.52394 l -0.002,-6e-4 -4.2875,3.80912 c -0.0322,0.0261 -0.0628,0.0541 -0.093,0.0825 l -0.032,0.0283 v 3.2e-4 c -0.31034,0.30677 -0.50239,0.7326 -0.50239,1.20547 v 4.23393 c 0,0.93865 0.75566,1.69431 1.69431,1.69431 h 13.81706 c 0.38481,0 0.73754,-0.12838 1.02138,-0.34293 l 0.002,0.001 0.0169,-0.0151 c 0.0606,-0.0471 0.11823,-0.0976 0.17178,-0.15238 l 4.33151,-3.84605 -0.001,-3.2e-4 c 0.36604,-0.31031 0.59812,-0.77355 0.59812,-1.2932 v -4.23393 c 0,-0.93865 -0.75566,-1.69431 -1.69431,-1.69431 z"
           id="path5065"
           inkscape:connector-curvature="0" />
        <rect
           ry="1.5332925"
           y="211.75571"
           x="123.65445"
           height="6.8981967"
           width="16.127882"
           id="rect5067"
           style="opacity:1;fill:#ffffff;fill-opacity:1;fill-rule:nonzero;stroke:none;stroke-width:2.19456983;stroke-linecap:round;stroke-linejoin:round;stroke-miterlimit:4;stroke-dasharray:none;stroke-opacity:1;paint-order:markers fill stroke" />
        <rect
           style="opacity:1;fill:#0000ff;fill-opacity:1;fill-rule:nonzero;stroke:none;stroke-width:2.06968951;stroke-linecap:round;stroke-linejoin:round;stroke-miterlimit:4;stroke-dasharray:none;stroke-opacity:1;paint-order:markers fill stroke"
           id="rect5069"
           width="15.605203"
           height="6.340961"
           x="123.91579"
           y="212.03433"
           ry="1.4094331" />
      </g>
      <g
         id="g5082"
         transform="translate(-0.467722)">
        <path
           inkscape:connector-curvature="0"
           id="path5071"
           d="m 146.69805,207.4387 c -0.48329,0 -0.91708,0.20146 -1.22519,0.52394 l -0.002,-6e-4 -4.2875,3.80912 c -0.0322,0.0261 -0.0628,0.0541 -0.093,0.0825 l -0.032,0.0283 v 3.2e-4 c -0.31034,0.30677 -0.50238,0.7326 -0.50238,1.20547 v 4.23393 c 0,0.93864 0.75566,1.69431 1.69431,1.69431 h 13.81705 c 0.38481,0 0.73755,-0.12838 1.02139,-0.34293 l 0.002,0.001 0.0169,-0.0151 c 0.0606,-0.0471 0.11823,-0.0976 0.17178,-0.15238 l 4.33151,-3.84605 -0.001,-3.2e-4 c 0.36603,-0.31031 0.59812,-0.77355 0.59812,-1.29321 v -4.23392 c 0,-0.93865 -0.75567,-1.69431 -1.69432,-1.69431 z"
           style="opacity:1;fill:#0000ff;fill-opacity:1;fill-rule:nonzero;stroke:none;stroke-width:2.38276839;stroke-linecap:round;stroke-linejoin:round;stroke-miterlimit:4;stroke-dasharray:none;stroke-opacity:1;paint-order:markers fill stroke" />
        <rect
           style="opacity:1;fill:#ffffff;fill-opacity:1;fill-rule:nonzero;stroke:none;stroke-width:2.19456983;stroke-linecap:round;stroke-linejoin:round;stroke-miterlimit:4;stroke-dasharray:none;stroke-opacity:1;paint-order:markers fill stroke"
           id="rect5073"
           width="16.127882"
           height="6.8981967"
           x="141.09595"
           y="211.75571"
           ry="1.5332925" />
      </g>
      <g
         id="g5090"
         transform="translate(0,-8.4189859)">
        <path
           inkscape:connector-curvature="0"
           id="path5084"
           d="m 129.25655,207.4387 c -0.48328,10e-6 -0.91707,0.20146 -1.22518,0.52394 l -0.002,-6e-4 -4.2875,3.80912 c -0.0322,0.0261 -0.0628,0.0541 -0.093,0.0825 l -0.032,0.0283 v 3.2e-4 c -0.31034,0.30677 -0.50239,0.7326 -0.50239,1.20547 v 4.23393 c 0,0.93865 0.75566,1.69431 1.69431,1.69431 h 13.81706 c 0.38481,0 0.73754,-0.12838 1.02138,-0.34293 l 0.002,0.001 0.0169,-0.0151 c 0.0606,-0.0471 0.11823,-0.0976 0.17178,-0.15238 l 4.33151,-3.84605 -0.001,-3.2e-4 c 0.36604,-0.31031 0.59812,-0.77355 0.59812,-1.2932 v -4.23393 c 0,-0.93865 -0.75566,-1.69431 -1.69431,-1.69431 z"
           style="opacity:1;fill:#0000ff;fill-opacity:1;fill-rule:nonzero;stroke:none;stroke-width:2.38276839;stroke-linecap:round;stroke-linejoin:round;stroke-miterlimit:4;stroke-dasharray:none;stroke-opacity:1;paint-order:markers fill stroke" />
        <rect
           style="opacity:1;fill:#ffffff;fill-opacity:1;fill-rule:nonzero;stroke:none;stroke-width:2.19456983;stroke-linecap:round;stroke-linejoin:round;stroke-miterlimit:4;stroke-dasharray:none;stroke-opacity:1;paint-order:markers fill stroke"
           id="rect5086"
           width="16.127882"
           height="6.8981967"
           x="123.65445"
           y="211.75571"
           ry="1.5332925" />
        <rect
           ry="1.4094331"
           y="212.03433"
           x="123.91579"
           height="6.340961"
           width="15.605203"
           id="rect5088"
           style="opacity:1;fill:#0000ff;fill-opacity:1;fill-rule:nonzero;stroke:none;stroke-width:2.06968951;stroke-linecap:round;stroke-linejoin:round;stroke-miterlimit:4;stroke-dasharray:none;stroke-opacity:1;paint-order:markers fill stroke" />
      </g>
      <g
         transform="translate(16.973778,-8.4189859)"
         id="g5098">
        <path
           style="opacity:1;fill:#0000ff;fill-opacity:1;fill-rule:nonzero;stroke:none;stroke-width:2.38276839;stroke-linecap:round;stroke-linejoin:round;stroke-miterlimit:4;stroke-dasharray:none;stroke-opacity:1;paint-order:markers fill stroke"
           d="m 129.25655,207.4387 c -0.48328,10e-6 -0.91707,0.20146 -1.22518,0.52394 l -0.002,-6e-4 -4.2875,3.80912 c -0.0322,0.0261 -0.0628,0.0541 -0.093,0.0825 l -0.032,0.0283 v 3.2e-4 c -0.31034,0.30677 -0.50239,0.7326 -0.50239,1.20547 v 4.23393 c 0,0.93865 0.75566,1.69431 1.69431,1.69431 h 13.81706 c 0.38481,0 0.73754,-0.12838 1.02138,-0.34293 l 0.002,0.001 0.0169,-0.0151 c 0.0606,-0.0471 0.11823,-0.0976 0.17178,-0.15238 l 4.33151,-3.84605 -0.001,-3.2e-4 c 0.36604,-0.31031 0.59812,-0.77355 0.59812,-1.2932 v -4.23393 c 0,-0.93865 -0.75566,-1.69431 -1.69431,-1.69431 z"
           id="path5092"
           inkscape:connector-curvature="0" />
        <rect
           ry="1.5332925"
           y="211.75571"
           x="123.65445"
           height="6.8981967"
           width="16.127882"
           id="rect5094"
           style="opacity:1;fill:#ffffff;fill-opacity:1;fill-rule:nonzero;stroke:none;stroke-width:2.19456983;stroke-linecap:round;stroke-linejoin:round;stroke-miterlimit:4;stroke-dasharray:none;stroke-opacity:1;paint-order:markers fill stroke" />
        <rect
           style="opacity:1;fill:#0000ff;fill-opacity:1;fill-rule:nonzero;stroke:none;stroke-width:2.06968951;stroke-linecap:round;stroke-linejoin:round;stroke-miterlimit:4;stroke-dasharray:none;stroke-opacity:1;paint-order:markers fill stroke"
           id="rect5096"
           width="15.605203"
           height="6.340961"
           x="123.91579"
           y="212.03433"
           ry="1.4094331" />
      </g>
      <g
         transform="translate(0,-16.837988)"
         id="g5106">
        <path
           style="opacity:1;fill:#0000ff;fill-opacity:1;fill-rule:nonzero;stroke:none;stroke-width:2.38276839;stroke-linecap:round;stroke-linejoin:round;stroke-miterlimit:4;stroke-dasharray:none;stroke-opacity:1;paint-order:markers fill stroke"
           d="m 129.25655,207.4387 c -0.48328,10e-6 -0.91707,0.20146 -1.22518,0.52394 l -0.002,-6e-4 -4.2875,3.80912 c -0.0322,0.0261 -0.0628,0.0541 -0.093,0.0825 l -0.032,0.0283 v 3.2e-4 c -0.31034,0.30677 -0.50239,0.7326 -0.50239,1.20547 v 4.23393 c 0,0.93865 0.75566,1.69431 1.69431,1.69431 h 13.81706 c 0.38481,0 0.73754,-0.12838 1.02138,-0.34293 l 0.002,0.001 0.0169,-0.0151 c 0.0606,-0.0471 0.11823,-0.0976 0.17178,-0.15238 l 4.33151,-3.84605 -0.001,-3.2e-4 c 0.36604,-0.31031 0.59812,-0.77355 0.59812,-1.2932 v -4.23393 c 0,-0.93865 -0.75566,-1.69431 -1.69431,-1.69431 z"
           id="path5100"
           inkscape:connector-curvature="0" />
        <rect
           ry="1.5332925"
           y="211.75571"
           x="123.65445"
           height="6.8981967"
           width="16.127882"
           id="rect5102"
           style="opacity:1;fill:#ffffff;fill-opacity:1;fill-rule:nonzero;stroke:none;stroke-width:2.19456983;stroke-linecap:round;stroke-linejoin:round;stroke-miterlimit:4;stroke-dasharray:none;stroke-opacity:1;paint-order:markers fill stroke" />
        <rect
           style="opacity:1;fill:#0000ff;fill-opacity:1;fill-rule:nonzero;stroke:none;stroke-width:2.06968951;stroke-linecap:round;stroke-linejoin:round;stroke-miterlimit:4;stroke-dasharray:none;stroke-opacity:1;paint-order:markers fill stroke"
           id="rect5104"
           width="15.605203"
           height="6.340961"
           x="123.91579"
           y="212.03433"
           ry="1.4094331" />
      </g>
      <g
         id="g5114"
         transform="translate(16.973778,-16.837988)">
        <path
           inkscape:connector-curvature="0"
           id="path5108"
           d="m 129.25655,207.4387 c -0.48328,10e-6 -0.91707,0.20146 -1.22518,0.52394 l -0.002,-6e-4 -4.2875,3.80912 c -0.0322,0.0261 -0.0628,0.0541 -0.093,0.0825 l -0.032,0.0283 v 3.2e-4 c -0.31034,0.30677 -0.50239,0.7326 -0.50239,1.20547 v 4.23393 c 0,0.93865 0.75566,1.69431 1.69431,1.69431 h 13.81706 c 0.38481,0 0.73754,-0.12838 1.02138,-0.34293 l 0.002,0.001 0.0169,-0.0151 c 0.0606,-0.0471 0.11823,-0.0976 0.17178,-0.15238 l 4.33151,-3.84605 -0.001,-3.2e-4 c 0.36604,-0.31031 0.59812,-0.77355 0.59812,-1.2932 v -4.23393 c 0,-0.93865 -0.75566,-1.69431 -1.69431,-1.69431 z"
           style="opacity:1;fill:#0000ff;fill-opacity:1;fill-rule:nonzero;stroke:none;stroke-width:2.38276839;stroke-linecap:round;stroke-linejoin:round;stroke-miterlimit:4;stroke-dasharray:none;stroke-opacity:1;paint-order:markers fill stroke" />
        <rect
           style="opacity:1;fill:#ffffff;fill-opacity:1;fill-rule:nonzero;stroke:none;stroke-width:2.19456983;stroke-linecap:round;stroke-linejoin:round;stroke-miterlimit:4;stroke-dasharray:none;stroke-opacity:1;paint-order:markers fill stroke"
           id="rect5110"
           width="16.127882"
           height="6.8981967"
           x="123.65445"
           y="211.75571"
           ry="1.5332925" />
        <rect
           ry="1.4094331"
           y="212.03433"
           x="123.91579"
           height="6.340961"
           width="15.605203"
           id="rect5112"
           style="opacity:1;fill:#0000ff;fill-opacity:1;fill-rule:nonzero;stroke:none;stroke-width:2.06968951;stroke-linecap:round;stroke-linejoin:round;stroke-miterlimit:4;stroke-dasharray:none;stroke-opacity:1;paint-order:markers fill stroke" />
      </g>
      <g
         id="g5120"
         transform="translate(-17.4415,-25.25697)">
        <path
           style="opacity:1;fill:#0000ff;fill-opacity:1;fill-rule:nonzero;stroke:none;stroke-width:2.38276839;stroke-linecap:round;stroke-linejoin:round;stroke-miterlimit:4;stroke-dasharray:none;stroke-opacity:1;paint-order:markers fill stroke"
           d="m 146.69805,207.4387 c -0.48329,0 -0.91708,0.20146 -1.22519,0.52394 l -0.002,-6e-4 -4.2875,3.80912 c -0.0322,0.0261 -0.0628,0.0541 -0.093,0.0825 l -0.032,0.0283 v 3.2e-4 c -0.31034,0.30677 -0.50238,0.7326 -0.50238,1.20547 v 4.23393 c 0,0.93864 0.75566,1.69431 1.69431,1.69431 h 13.81705 c 0.38481,0 0.73755,-0.12838 1.02139,-0.34293 l 0.002,0.001 0.0169,-0.0151 c 0.0606,-0.0471 0.11823,-0.0976 0.17178,-0.15238 l 4.33151,-3.84605 -0.001,-3.2e-4 c 0.36603,-0.31031 0.59812,-0.77355 0.59812,-1.29321 v -4.23392 c 0,-0.93865 -0.75567,-1.69431 -1.69432,-1.69431 z"
           id="path5116"
           inkscape:connector-curvature="0" />
        <rect
           ry="1.5332925"
           y="211.75571"
           x="141.09595"
           height="6.8981967"
           width="16.127882"
           id="rect5118"
           style="opacity:1;fill:#ffffff;fill-opacity:1;fill-rule:nonzero;stroke:none;stroke-width:2.19456983;stroke-linecap:round;stroke-linejoin:round;stroke-miterlimit:4;stroke-dasharray:none;stroke-opacity:1;paint-order:markers fill stroke" />
      </g>
      <g
         transform="translate(16.973778,-25.25697)"
         id="g5128">
        <path
           style="opacity:1;fill:#0000ff;fill-opacity:1;fill-rule:nonzero;stroke:none;stroke-width:2.38276839;stroke-linecap:round;stroke-linejoin:round;stroke-miterlimit:4;stroke-dasharray:none;stroke-opacity:1;paint-order:markers fill stroke"
           d="m 129.25655,207.4387 c -0.48328,10e-6 -0.91707,0.20146 -1.22518,0.52394 l -0.002,-6e-4 -4.2875,3.80912 c -0.0322,0.0261 -0.0628,0.0541 -0.093,0.0825 l -0.032,0.0283 v 3.2e-4 c -0.31034,0.30677 -0.50239,0.7326 -0.50239,1.20547 v 4.23393 c 0,0.93865 0.75566,1.69431 1.69431,1.69431 h 13.81706 c 0.38481,0 0.73754,-0.12838 1.02138,-0.34293 l 0.002,0.001 0.0169,-0.0151 c 0.0606,-0.0471 0.11823,-0.0976 0.17178,-0.15238 l 4.33151,-3.84605 -0.001,-3.2e-4 c 0.36604,-0.31031 0.59812,-0.77355 0.59812,-1.2932 v -4.23393 c 0,-0.93865 -0.75566,-1.69431 -1.69431,-1.69431 z"
           id="path5122"
           inkscape:connector-curvature="0" />
        <rect
           ry="1.5332925"
           y="211.75571"
           x="123.65445"
           height="6.8981967"
           width="16.127882"
           id="rect5124"
           style="opacity:1;fill:#ffffff;fill-opacity:1;fill-rule:nonzero;stroke:none;stroke-width:2.19456983;stroke-linecap:round;stroke-linejoin:round;stroke-miterlimit:4;stroke-dasharray:none;stroke-opacity:1;paint-order:markers fill stroke" />
        <rect
           style="opacity:1;fill:#0000ff;fill-opacity:1;fill-rule:nonzero;stroke:none;stroke-width:2.06968951;stroke-linecap:round;stroke-linejoin:round;stroke-miterlimit:4;stroke-dasharray:none;stroke-opacity:1;paint-order:markers fill stroke"
           id="rect5126"
           width="15.605203"
           height="6.340961"
           x="123.91579"
           y="212.03433"
           ry="1.4094331" />
      </g>
      <g
         id="g5136"
         transform="translate(0,-33.67596)">
        <path
           inkscape:connector-curvature="0"
           id="path5130"
           d="m 129.25655,207.4387 c -0.48328,10e-6 -0.91707,0.20146 -1.22518,0.52394 l -0.002,-6e-4 -4.2875,3.80912 c -0.0322,0.0261 -0.0628,0.0541 -0.093,0.0825 l -0.032,0.0283 v 3.2e-4 c -0.31034,0.30677 -0.50239,0.7326 -0.50239,1.20547 v 4.23393 c 0,0.93865 0.75566,1.69431 1.69431,1.69431 h 13.81706 c 0.38481,0 0.73754,-0.12838 1.02138,-0.34293 l 0.002,0.001 0.0169,-0.0151 c 0.0606,-0.0471 0.11823,-0.0976 0.17178,-0.15238 l 4.33151,-3.84605 -0.001,-3.2e-4 c 0.36604,-0.31031 0.59812,-0.77355 0.59812,-1.2932 v -4.23393 c 0,-0.93865 -0.75566,-1.69431 -1.69431,-1.69431 z"
           style="opacity:1;fill:#0000ff;fill-opacity:1;fill-rule:nonzero;stroke:none;stroke-width:2.38276839;stroke-linecap:round;stroke-linejoin:round;stroke-miterlimit:4;stroke-dasharray:none;stroke-opacity:1;paint-order:markers fill stroke" />
        <rect
           style="opacity:1;fill:#ffffff;fill-opacity:1;fill-rule:nonzero;stroke:none;stroke-width:2.19456983;stroke-linecap:round;stroke-linejoin:round;stroke-miterlimit:4;stroke-dasharray:none;stroke-opacity:1;paint-order:markers fill stroke"
           id="rect5132"
           width="16.127882"
           height="6.8981967"
           x="123.65445"
           y="211.75571"
           ry="1.5332925" />
        <rect
           ry="1.4094331"
           y="212.03433"
           x="123.91579"
           height="6.340961"
           width="15.605203"
           id="rect5134"
           style="opacity:1;fill:#0000ff;fill-opacity:1;fill-rule:nonzero;stroke:none;stroke-width:2.06968951;stroke-linecap:round;stroke-linejoin:round;stroke-miterlimit:4;stroke-dasharray:none;stroke-opacity:1;paint-order:markers fill stroke" />
      </g>
      <g
         transform="translate(16.973778,-33.67596)"
         id="g5144">
        <path
           style="opacity:1;fill:#0000ff;fill-opacity:1;fill-rule:nonzero;stroke:none;stroke-width:2.38276839;stroke-linecap:round;stroke-linejoin:round;stroke-miterlimit:4;stroke-dasharray:none;stroke-opacity:1;paint-order:markers fill stroke"
           d="m 129.25655,207.4387 c -0.48328,10e-6 -0.91707,0.20146 -1.22518,0.52394 l -0.002,-6e-4 -4.2875,3.80912 c -0.0322,0.0261 -0.0628,0.0541 -0.093,0.0825 l -0.032,0.0283 v 3.2e-4 c -0.31034,0.30677 -0.50239,0.7326 -0.50239,1.20547 v 4.23393 c 0,0.93865 0.75566,1.69431 1.69431,1.69431 h 13.81706 c 0.38481,0 0.73754,-0.12838 1.02138,-0.34293 l 0.002,0.001 0.0169,-0.0151 c 0.0606,-0.0471 0.11823,-0.0976 0.17178,-0.15238 l 4.33151,-3.84605 -0.001,-3.2e-4 c 0.36604,-0.31031 0.59812,-0.77355 0.59812,-1.2932 v -4.23393 c 0,-0.93865 -0.75566,-1.69431 -1.69431,-1.69431 z"
           id="path5138"
           inkscape:connector-curvature="0" />
        <rect
           ry="1.5332925"
           y="211.75571"
           x="123.65445"
           height="6.8981967"
           width="16.127882"
           id="rect5140"
           style="opacity:1;fill:#ffffff;fill-opacity:1;fill-rule:nonzero;stroke:none;stroke-width:2.19456983;stroke-linecap:round;stroke-linejoin:round;stroke-miterlimit:4;stroke-dasharray:none;stroke-opacity:1;paint-order:markers fill stroke" />
        <rect
           style="opacity:1;fill:#0000ff;fill-opacity:1;fill-rule:nonzero;stroke:none;stroke-width:2.06968951;stroke-linecap:round;stroke-linejoin:round;stroke-miterlimit:4;stroke-dasharray:none;stroke-opacity:1;paint-order:markers fill stroke"
           id="rect5142"
           width="15.605203"
           height="6.340961"
           x="123.91579"
           y="212.03433"
           ry="1.4094331" />
      </g>
      <g
         id="g5152"
         transform="translate(16.973778,-42.094951)">
        <path
           inkscape:connector-curvature="0"
           id="path5146"
           d="m 129.25655,207.4387 c -0.48328,10e-6 -0.91707,0.20146 -1.22518,0.52394 l -0.002,-6e-4 -4.2875,3.80912 c -0.0322,0.0261 -0.0628,0.0541 -0.093,0.0825 l -0.032,0.0283 v 3.2e-4 c -0.31034,0.30677 -0.50239,0.7326 -0.50239,1.20547 v 4.23393 c 0,0.93865 0.75566,1.69431 1.69431,1.69431 h 13.81706 c 0.38481,0 0.73754,-0.12838 1.02138,-0.34293 l 0.002,0.001 0.0169,-0.0151 c 0.0606,-0.0471 0.11823,-0.0976 0.17178,-0.15238 l 4.33151,-3.84605 -0.001,-3.2e-4 c 0.36604,-0.31031 0.59812,-0.77355 0.59812,-1.2932 v -4.23393 c 0,-0.93865 -0.75566,-1.69431 -1.69431,-1.69431 z"
           style="opacity:1;fill:#0000ff;fill-opacity:1;fill-rule:nonzero;stroke:none;stroke-width:2.38276839;stroke-linecap:round;stroke-linejoin:round;stroke-miterlimit:4;stroke-dasharray:none;stroke-opacity:1;paint-order:markers fill stroke" />
        <rect
           style="opacity:1;fill:#ffffff;fill-opacity:1;fill-rule:nonzero;stroke:none;stroke-width:2.19456983;stroke-linecap:round;stroke-linejoin:round;stroke-miterlimit:4;stroke-dasharray:none;stroke-opacity:1;paint-order:markers fill stroke"
           id="rect5148"
           width="16.127882"
           height="6.8981967"
           x="123.65445"
           y="211.75571"
           ry="1.5332925" />
        <rect
           ry="1.4094331"
           y="212.03433"
           x="123.91579"
           height="6.340961"
           width="15.605203"
           id="rect5150"
           style="opacity:1;fill:#0000ff;fill-opacity:1;fill-rule:nonzero;stroke:none;stroke-width:2.06968951;stroke-linecap:round;stroke-linejoin:round;stroke-miterlimit:4;stroke-dasharray:none;stroke-opacity:1;paint-order:markers fill stroke" />
      </g>
    </g>
    <g
       id="g4947"
       transform="matrix(0.80076291,0,0,0.80076291,-3.6896386,-105.2196)">
      <path
         inkscape:connector-curvature="0"
         id="path4939"
         d="m 137.40933,357.39103 c -4.1858,0.12642 -14.76148,7.99949 -14.76654,11.01587 h -5.1e-4 v 14.26889 h 0.004 c 0.0397,0.58908 0.51418,0.97657 1.56424,1.05834 h 28.4825 c 4.13426,-0.12487 14.50179,-7.80666 14.76137,-10.90218 h 0.005 v -14.45803 h -0.0108 c -0.0743,-0.54663 -0.55244,-0.90465 -1.55701,-0.98289 h -0.99582 -3.76463 -0.68832 v 0.94827 h 0.68832 1.51102 c 5.32616,0.41475 -6.86194,10.13268 -11.1404,10.2619 h -24.04076 c -5.32615,-0.41476 6.86194,-10.13268 11.1404,-10.2619 h 2.57142 3.76256 0.68988 v -0.94827 h -0.68988 -3.76256 z m 1.96009,2.56212 c -3.74908,0.0938 -14.42933,7.14811 -9.76219,7.44916 h 21.0659 c 3.74908,-0.0938 14.42933,-7.14809 9.76219,-7.44916 h -15.50035 z"
         style="opacity:1;fill:#0000ff;fill-opacity:1;fill-rule:nonzero;stroke:none;stroke-width:1.26677918;stroke-linecap:round;stroke-linejoin:round;stroke-miterlimit:4;stroke-dasharray:none;stroke-opacity:1;paint-order:markers fill stroke" />
      <path
         style="opacity:1;fill:#0000ff;fill-opacity:1;fill-rule:nonzero;stroke:none;stroke-width:16.91843605;stroke-linecap:round;stroke-linejoin:round;stroke-miterlimit:4;stroke-dasharray:none;stroke-opacity:1;paint-order:markers fill stroke"
         d="m 572.0332,710.98438 c -11.4695,0 -20.70312,9.23361 -20.70312,20.70312 V 778 h 54.12304 v -46.3125 c 0,-11.46951 -9.23361,-20.70316 -20.70312,-20.70312 z m -14.37109,20.81445 h 42.125 c 0.79637,0 1.4375,0.64112 1.4375,1.4375 0,0.79637 -0.64113,1.4375 -1.4375,1.4375 h -42.125 c -0.79638,0 -1.4375,-0.64113 -1.4375,-1.4375 0,-0.79638 0.64112,-1.4375 1.4375,-1.4375 z m 0,11.95898 h 42.125 c 0.79637,0 1.4375,0.64113 1.4375,1.4375 0,0.79638 -0.64113,1.4375 -1.4375,1.4375 h -42.125 c -0.79638,0 -1.4375,-0.64112 -1.4375,-1.4375 0,-0.79637 0.64112,-1.4375 1.4375,-1.4375 z m 0,11.95703 h 42.125 c 0.79637,0 1.4375,0.64113 1.4375,1.4375 0,0.79638 -0.64113,1.4375 -1.4375,1.4375 h -42.125 c -0.79638,0 -1.4375,-0.64112 -1.4375,-1.4375 0,-0.79637 0.64112,-1.4375 1.4375,-1.4375 z m 0,11.95899 h 42.125 c 0.79637,0 1.4375,0.64112 1.4375,1.4375 0,0.79637 -0.64113,1.4375 -1.4375,1.4375 h -42.125 c -0.79638,0 -1.4375,-0.64113 -1.4375,-1.4375 0,-0.79638 0.64112,-1.4375 1.4375,-1.4375 z"
         transform="matrix(0.26458333,0,0,0.26458333,0,156.24165)"
         id="path4941"
         inkscape:connector-curvature="0" />
      <path
         inkscape:connector-curvature="0"
         id="path4943"
         d="m 134.10229,362.71636 a 2.2103727,2.2103727 0 0 1 -1.62097,2.1279 v 0.87949 a 2.2103727,2.2103727 0 0 0 1.62097,-2.12789 2.2103727,2.2103727 0 0 0 2.21031,2.21032 2.2103727,2.2103727 0 0 0 2.21048,-2.21032 2.2103727,2.2103727 0 0 0 2.21031,2.21032 2.2103727,2.2103727 0 0 0 2.21032,-2.21032 2.2103727,2.2103727 0 0 0 2.21048,2.21032 2.2103727,2.2103727 0 0 0 2.21032,-2.21032 2.2103727,2.2103727 0 0 0 2.21031,2.21032 2.2103727,2.2103727 0 0 0 2.21048,-2.20881 2.2103727,2.2103727 0 0 0 1.6208,2.12856 v -0.8795 a 2.2103727,2.2103727 0 0 1 -1.6208,-2.12856 2.2103727,2.2103727 0 0 1 -2.21048,2.2088 2.2103727,2.2103727 0 0 1 -2.21031,-2.21031 2.2103727,2.2103727 0 0 1 -2.21032,2.21031 2.2103727,2.2103727 0 0 1 -2.21048,-2.21031 2.2103727,2.2103727 0 0 1 -2.21032,2.21031 2.2103727,2.2103727 0 0 1 -2.21031,-2.21031 2.2103727,2.2103727 0 0 1 -2.21048,2.21031 2.2103727,2.2103727 0 0 1 -2.21031,-2.21031 z"
         style="opacity:1;fill:#ffffff;fill-opacity:1;fill-rule:nonzero;stroke:none;stroke-width:1.30038583;stroke-linecap:round;stroke-linejoin:round;stroke-miterlimit:4;stroke-dasharray:none;stroke-opacity:1;paint-order:markers fill stroke" />
      <path
         style="opacity:1;fill:#ffffff;fill-opacity:1;fill-rule:nonzero;stroke:none;stroke-width:1.30038583;stroke-linecap:round;stroke-linejoin:round;stroke-miterlimit:4;stroke-dasharray:none;stroke-opacity:1;paint-order:markers fill stroke"
         d="m 138.53406,360.26896 a 2.2103727,2.2103727 0 0 1 -1.62097,2.1279 v 0.87949 a 2.2103727,2.2103727 0 0 0 1.62097,-2.12789 2.2103727,2.2103727 0 0 0 2.21031,2.21032 2.2103727,2.2103727 0 0 0 2.21048,-2.21032 2.2103727,2.2103727 0 0 0 2.21031,2.21032 2.2103727,2.2103727 0 0 0 2.21032,-2.21032 2.2103727,2.2103727 0 0 0 2.21048,2.21032 2.2103727,2.2103727 0 0 0 2.21032,-2.21032 2.2103727,2.2103727 0 0 0 2.21031,2.21032 2.2103727,2.2103727 0 0 0 2.21048,-2.20881 2.2103727,2.2103727 0 0 0 1.6208,2.12856 v -0.8795 a 2.2103727,2.2103727 0 0 1 -1.6208,-2.12856 2.2103727,2.2103727 0 0 1 -2.21048,2.2088 2.2103727,2.2103727 0 0 1 -2.21031,-2.21031 2.2103727,2.2103727 0 0 1 -2.21032,2.21031 2.2103727,2.2103727 0 0 1 -2.21048,-2.21031 2.2103727,2.2103727 0 0 1 -2.21032,2.21031 2.2103727,2.2103727 0 0 1 -2.21031,-2.21031 2.2103727,2.2103727 0 0 1 -2.21048,2.21031 2.2103727,2.2103727 0 0 1 -2.21031,-2.21031 z"
         id="path4945"
         inkscape:connector-curvature="0" />
    </g>
    <g
       id="g4377"
       transform="translate(69.409896)">
      <g
         transform="matrix(0.80076291,0,0,0.80076291,12.667094,38.324133)"
         id="g5204">
        <g
           transform="translate(-56.173055,-179.25872)"
           id="g4957">
          <path
             style="opacity:1;fill:#0000ff;fill-opacity:1;fill-rule:nonzero;stroke:none;stroke-width:1.26677918;stroke-linecap:round;stroke-linejoin:round;stroke-miterlimit:4;stroke-dasharray:none;stroke-opacity:1;paint-order:markers fill stroke"
             d="m 137.40933,357.39103 c -4.1858,0.12642 -14.76148,7.99949 -14.76654,11.01587 h -5.1e-4 v 14.26889 h 0.004 c 0.0397,0.58908 0.51418,0.97657 1.56424,1.05834 h 28.4825 c 4.13426,-0.12487 14.50179,-7.80666 14.76137,-10.90218 h 0.005 v -14.45803 h -0.0108 c -0.0743,-0.54663 -0.55244,-0.90465 -1.55701,-0.98289 h -0.99582 -3.76463 -0.68832 v 0.94827 h 0.68832 1.51102 c 5.32616,0.41475 -6.86194,10.13268 -11.1404,10.2619 h -24.04076 c -5.32615,-0.41476 6.86194,-10.13268 11.1404,-10.2619 h 2.57142 3.76256 0.68988 v -0.94827 h -0.68988 -3.76256 z m 1.96009,2.56212 c -3.74908,0.0938 -14.42933,7.14811 -9.76219,7.44916 h 21.0659 c 3.74908,-0.0938 14.42933,-7.14809 9.76219,-7.44916 h -15.50035 z"
             id="path4949"
             inkscape:connector-curvature="0" />
          <path
             inkscape:connector-curvature="0"
             id="path4951"
             transform="matrix(0.26458333,0,0,0.26458333,0,156.24165)"
             d="m 572.0332,710.98438 c -11.4695,0 -20.70312,9.23361 -20.70312,20.70312 V 778 h 54.12304 v -46.3125 c 0,-11.46951 -9.23361,-20.70316 -20.70312,-20.70312 z m -14.37109,20.81445 h 42.125 c 0.79637,0 1.4375,0.64112 1.4375,1.4375 0,0.79637 -0.64113,1.4375 -1.4375,1.4375 h -42.125 c -0.79638,0 -1.4375,-0.64113 -1.4375,-1.4375 0,-0.79638 0.64112,-1.4375 1.4375,-1.4375 z m 0,11.95898 h 42.125 c 0.79637,0 1.4375,0.64113 1.4375,1.4375 0,0.79638 -0.64113,1.4375 -1.4375,1.4375 h -42.125 c -0.79638,0 -1.4375,-0.64112 -1.4375,-1.4375 0,-0.79637 0.64112,-1.4375 1.4375,-1.4375 z m 0,11.95703 h 42.125 c 0.79637,0 1.4375,0.64113 1.4375,1.4375 0,0.79638 -0.64113,1.4375 -1.4375,1.4375 h -42.125 c -0.79638,0 -1.4375,-0.64112 -1.4375,-1.4375 0,-0.79637 0.64112,-1.4375 1.4375,-1.4375 z m 0,11.95899 h 42.125 c 0.79637,0 1.4375,0.64112 1.4375,1.4375 0,0.79637 -0.64113,1.4375 -1.4375,1.4375 h -42.125 c -0.79638,0 -1.4375,-0.64113 -1.4375,-1.4375 0,-0.79638 0.64112,-1.4375 1.4375,-1.4375 z"
             style="opacity:1;fill:#0000ff;fill-opacity:1;fill-rule:nonzero;stroke:none;stroke-width:16.91843605;stroke-linecap:round;stroke-linejoin:round;stroke-miterlimit:4;stroke-dasharray:none;stroke-opacity:1;paint-order:markers fill stroke" />
          <path
             style="opacity:1;fill:#ffffff;fill-opacity:1;fill-rule:nonzero;stroke:none;stroke-width:1.30038583;stroke-linecap:round;stroke-linejoin:round;stroke-miterlimit:4;stroke-dasharray:none;stroke-opacity:1;paint-order:markers fill stroke"
             d="m 134.10229,362.71636 a 2.2103727,2.2103727 0 0 1 -1.62097,2.1279 v 0.87949 a 2.2103727,2.2103727 0 0 0 1.62097,-2.12789 2.2103727,2.2103727 0 0 0 2.21031,2.21032 2.2103727,2.2103727 0 0 0 2.21048,-2.21032 2.2103727,2.2103727 0 0 0 2.21031,2.21032 2.2103727,2.2103727 0 0 0 2.21032,-2.21032 2.2103727,2.2103727 0 0 0 2.21048,2.21032 2.2103727,2.2103727 0 0 0 2.21032,-2.21032 2.2103727,2.2103727 0 0 0 2.21031,2.21032 2.2103727,2.2103727 0 0 0 2.21048,-2.20881 2.2103727,2.2103727 0 0 0 1.6208,2.12856 v -0.8795 a 2.2103727,2.2103727 0 0 1 -1.6208,-2.12856 2.2103727,2.2103727 0 0 1 -2.21048,2.2088 2.2103727,2.2103727 0 0 1 -2.21031,-2.21031 2.2103727,2.2103727 0 0 1 -2.21032,2.21031 2.2103727,2.2103727 0 0 1 -2.21048,-2.21031 2.2103727,2.2103727 0 0 1 -2.21032,2.21031 2.2103727,2.2103727 0 0 1 -2.21031,-2.21031 2.2103727,2.2103727 0 0 1 -2.21048,2.21031 2.2103727,2.2103727 0 0 1 -2.21031,-2.21031 z"
             id="path4953"
             inkscape:connector-curvature="0" />
          <path
             inkscape:connector-curvature="0"
             id="path4955"
             d="m 138.53406,360.26896 a 2.2103727,2.2103727 0 0 1 -1.62097,2.1279 v 0.87949 a 2.2103727,2.2103727 0 0 0 1.62097,-2.12789 2.2103727,2.2103727 0 0 0 2.21031,2.21032 2.2103727,2.2103727 0 0 0 2.21048,-2.21032 2.2103727,2.2103727 0 0 0 2.21031,2.21032 2.2103727,2.2103727 0 0 0 2.21032,-2.21032 2.2103727,2.2103727 0 0 0 2.21048,2.21032 2.2103727,2.2103727 0 0 0 2.21032,-2.21032 2.2103727,2.2103727 0 0 0 2.21031,2.21032 2.2103727,2.2103727 0 0 0 2.21048,-2.20881 2.2103727,2.2103727 0 0 0 1.6208,2.12856 v -0.8795 a 2.2103727,2.2103727 0 0 1 -1.6208,-2.12856 2.2103727,2.2103727 0 0 1 -2.21048,2.2088 2.2103727,2.2103727 0 0 1 -2.21031,-2.21031 2.2103727,2.2103727 0 0 1 -2.21032,2.21031 2.2103727,2.2103727 0 0 1 -2.21048,-2.21031 2.2103727,2.2103727 0 0 1 -2.21032,2.21031 2.2103727,2.2103727 0 0 1 -2.21031,-2.21031 2.2103727,2.2103727 0 0 1 -2.21048,2.21031 2.2103727,2.2103727 0 0 1 -2.21031,-2.21031 z"
             style="opacity:1;fill:#ffffff;fill-opacity:1;fill-rule:nonzero;stroke:none;stroke-width:1.30038583;stroke-linecap:round;stroke-linejoin:round;stroke-miterlimit:4;stroke-dasharray:none;stroke-opacity:1;paint-order:markers fill stroke" />
        </g>
        <path
           inkscape:connector-curvature="0"
           id="path5001"
           d="m 94.238027,167.5774 a 0.66145825,0.66145825 0 0 0 -0.66146,0.66146 0.66145825,0.66145825 0 0 0 0.66146,0.66146 0.66145825,0.66145825 0 0 0 0.66146,-0.66146 0.66145825,0.66145825 0 0 0 -0.66146,-0.66146 z m -10.120316,0.39688 a 1.9182291,1.9182291 0 0 0 -1.918229,1.91823 1.9182291,1.9182291 0 0 0 1.918229,1.91823 1.9182291,1.9182291 0 0 0 1.918229,-1.91823 1.9182291,1.9182291 0 0 0 -1.918229,-1.91823 z m -9.491927,0.38085 a 0.66145825,0.66145825 0 0 0 -0.661458,0.66146 0.66145825,0.66145825 0 0 0 0.661458,0.66146 0.66145825,0.66145825 0 0 0 0.661459,-0.66146 0.66145825,0.66145825 0 0 0 -0.661459,-0.66146 z m -8.97206,0.65216 a 0.66145825,0.66145825 0 0 0 -0.661458,0.66146 0.66145825,0.66145825 0 0 0 0.661458,0.66146 0.66145825,0.66145825 0 0 0 0.661458,-0.66146 0.66145825,0.66145825 0 0 0 -0.661458,-0.66146 z m 31.825453,1.21595 a 0.66145825,0.66145825 0 0 0 -0.66146,0.66145 0.66145825,0.66145825 0 0 0 0.66146,0.66146 0.66145825,0.66145825 0 0 0 0.66146,-0.66146 0.66145825,0.66145825 0 0 0 -0.66146,-0.66145 z m -6.680737,1.5875 a 0.66145825,0.66145825 0 0 0 -0.661458,0.66145 0.66145825,0.66145825 0 0 0 0.661458,0.66146 0.66145825,0.66145825 0 0 0 0.661457,-0.66146 0.66145825,0.66145825 0 0 0 -0.661457,-0.66145 z m -12.964583,1.12448 a 0.66145825,0.66145825 0 0 0 -0.661458,0.66145 0.66145825,0.66145825 0 0 0 0.661458,0.66146 0.66145825,0.66145825 0 0 0 0.661459,-0.66146 0.66145825,0.66145825 0 0 0 -0.661459,-0.66145 z m -6.290572,0.25579 a 1.9182291,1.9182291 0 0 0 -1.918229,1.91823 1.9182291,1.9182291 0 0 0 1.918229,1.91823 1.9182291,1.9182291 0 0 0 1.91823,-1.91823 1.9182291,1.9182291 0 0 0 -1.91823,-1.91823 z m 14.624947,1.464 a 0.66145825,0.66145825 0 0 0 -0.661458,0.66146 0.66145825,0.66145825 0 0 0 0.661458,0.66145 0.66145825,0.66145825 0 0 0 0.661458,-0.66145 0.66145825,0.66145825 0 0 0 -0.661458,-0.66146 z m 9.657295,0.26716 a 1.9182291,1.9182291 0 0 0 -1.91823,1.91823 1.9182291,1.9182291 0 0 0 1.91823,1.91823 1.9182291,1.9182291 0 0 0 1.91823,-1.91823 1.9182291,1.9182291 0 0 0 -1.91823,-1.91823 z m -16.801045,2.08463 a 1.9182291,1.9182291 0 0 0 -1.918229,1.91823 1.9182291,1.9182291 0 0 0 1.918229,1.91823 1.9182291,1.9182291 0 0 0 1.918229,-1.91823 1.9182291,1.9182291 0 0 0 -1.918229,-1.91823 z M 67.2929,178.42739 a 0.66145825,0.66145825 0 0 0 -0.661459,0.66145 0.66145825,0.66145825 0 0 0 0.661459,0.66146 0.66145825,0.66145825 0 0 0 0.661458,-0.66146 0.66145825,0.66145825 0 0 0 -0.661458,-0.66145 z"
           style="opacity:1;fill:#0000ff;fill-opacity:1;fill-rule:nonzero;stroke:none;stroke-width:4;stroke-linecap:round;stroke-linejoin:round;stroke-miterlimit:4;stroke-dasharray:none;stroke-opacity:1;paint-order:markers fill stroke" />
      </g>
    </g>
    <path
       style="opacity:1;fill:#0000ff;fill-opacity:1;fill-rule:nonzero;stroke:none;stroke-width:2.53757429;stroke-linecap:round;stroke-linejoin:round;stroke-miterlimit:4;stroke-dasharray:none;stroke-opacity:1;paint-order:markers fill stroke"
       d="m 75.732674,230.69439 c -3.749059,-0.0786 -11.269503,6.75915 -11.267956,12.58561 v 34.9871 h 40.698642 c 3.43362,-0.004 7.67243,-3.20034 4.1489,-3.31839 H 68.933179 l 4.40462,-3.27079 h 40.698591 c 3.43363,-0.004 7.67249,-3.2008 4.14894,-3.31886 H 77.806246 v -34.9871 c 0.0064,-1.85681 -0.823881,-2.65136 -2.073572,-2.67757 z m -1.56977,8.12208 c 0.822966,0.0165 1.36969,0.54071 1.365308,1.76351 v 23.0401 l -8.785885,6.52492 v -23.04013 c -8.89e-4,-3.83691 4.951705,-8.34015 7.420577,-8.2884 z"
       id="path5288"
       inkscape:connector-curvature="0" />
  </g>
</svg>
