<?xml version="1.0" encoding="UTF-8" standalone="no"?>
<!-- Created with Inkscape (http://www.inkscape.org/) -->

<svg
   xmlns:dc="http://purl.org/dc/elements/1.1/"
   xmlns:cc="http://creativecommons.org/ns#"
   xmlns:rdf="http://www.w3.org/1999/02/22-rdf-syntax-ns#"
   xmlns:svg="http://www.w3.org/2000/svg"
   xmlns="http://www.w3.org/2000/svg"
   xmlns:sodipodi="http://sodipodi.sourceforge.net/DTD/sodipodi-0.dtd"
   xmlns:inkscape="http://www.inkscape.org/namespaces/inkscape"
   width="655"
   height="532"
   viewBox="0 0 173.3021 140.75833"
   version="1.1"
   id="svg8"
   inkscape:version="0.92.2 (5c3e80d, 2017-08-06)"
   sodipodi:docname="SensoreTemperaturaD.svg"
   enable-background="new">
  <sodipodi:namedview
     id="base"
     pagecolor="#ffffff"
     bordercolor="#666666"
     borderopacity="1.0"
     inkscape:pageopacity="0.0"
     inkscape:pageshadow="2"
     inkscape:zoom="0.7071068"
     inkscape:cx="490.67699"
     inkscape:cy="422.18414"
     inkscape:document-units="mm"
     inkscape:current-layer="layer1"
     showgrid="false"
     units="px"
     inkscape:window-width="1920"
     inkscape:window-height="1003"
     inkscape:window-x="-9"
     inkscape:window-y="-9"
     inkscape:window-maximized="1"
     showguides="false"
     inkscape:guide-bbox="true"
     inkscape:snap-bbox="true"
     inkscape:snap-bbox-edge-midpoints="true"
     inkscape:snap-midpoints="true"
     inkscape:snap-bbox-midpoints="true"
     inkscape:snap-grids="false"
     inkscape:snap-center="true"
     inkscape:snap-object-midpoints="true"
     inkscape:bbox-nodes="true"
     inkscape:bbox-paths="true"
     inkscape:snap-intersection-paths="true"
     inkscape:snap-smooth-nodes="true"
     inkscape:object-nodes="true"
     inkscape:object-paths="true"
     inkscape:snap-to-guides="true"
     inkscape:snap-page="true"
     inkscape:snap-others="true"
     inkscape:snap-global="false"
     inkscape:measure-start="0,0"
     inkscape:measure-end="0,0">
    <inkscape:grid
       type="xygrid"
       id="grid1756"
       spacingx="28.883682"
       spacingy="12.796214"
       empspacing="1" />
    <sodipodi:guide
       position="86.651049,153.55457"
       orientation="1,0"
       id="guide3733"
       inkscape:locked="false" />
    <sodipodi:guide
       position="-252.10351,16.204667"
       orientation="1,0"
       id="guide4174"
       inkscape:locked="false" />
    <sodipodi:guide
       position="-110.58353,48.08179"
       orientation="1,0"
       id="guide4176"
       inkscape:locked="false" />
    <sodipodi:guide
       position="-310.92954,118.20855"
       orientation="1,0"
       id="guide4207"
       inkscape:locked="false" />
    <sodipodi:guide
       position="282.62985,91.190748"
       orientation="0,1"
       id="guide7233"
       inkscape:locked="false" />
    <sodipodi:guide
       position="86.65105,16.10651"
       orientation="0,1"
       id="guide7235"
       inkscape:locked="false" />
  </sodipodi:namedview>
  <defs
     id="defs2" />
  <metadata
     id="metadata5">
    <rdf:RDF>
      <cc:Work
         rdf:about="">
        <dc:format>image/svg+xml</dc:format>
        <dc:type
           rdf:resource="http://purl.org/dc/dcmitype/StillImage" />
        <dc:title></dc:title>
      </cc:Work>
    </rdf:RDF>
  </metadata>
  <g
     inkscape:label="Sezione Lavaggio"
     inkscape:groupmode="layer"
     id="layer1"
     transform="translate(0,-156.24165)">
    <g
       id="g6046"
       transform="translate(3.9051574)">
      <path
         style="opacity:1;fill:#0000ff;fill-opacity:1;fill-rule:nonzero;stroke:none;stroke-width:4.01548481;stroke-linecap:round;stroke-linejoin:round;stroke-miterlimit:4;stroke-dasharray:none;stroke-opacity:1;paint-order:markers fill stroke"
         d="m 56.460829,172.35801 c -8.058575,0 -14.546142,6.4876 -14.546142,14.54617 v 79.44312 c 0,8.0586 6.487567,14.54617 14.546142,14.54617 h 52.570091 c 8.05857,0 14.54617,-6.48757 14.54617,-14.54617 v -79.44312 c 0,-8.05857 -6.4876,-14.54617 -14.54617,-14.54617 z"
         id="path2105"
         inkscape:connector-curvature="0" />
      <path
         inkscape:connector-curvature="0"
         id="rect6434"
         d="m 81.02046,186.58486 c -3.118853,0 -5.629113,2.51024 -5.629113,5.62912 v 45.22079 a 15.161644,15.161644 0 0 0 -9.531361,14.07135 15.161644,15.161644 0 0 0 15.160474,15.16047 15.161644,15.161644 0 0 0 15.161947,-15.16047 15.161644,15.161644 0 0 0 -9.531361,-14.06552 v -45.22662 c 0,-3.11888 -2.511707,-5.62912 -5.630586,-5.62912 z m 8.611146,5.75289 c -0.186528,0 -0.336339,0.1499 -0.336339,0.33635 0,0.18652 0.149899,0.33634 0.336339,0.33634 h 9.663844 c 0.186528,0 0.336371,-0.1499 0.336371,-0.33634 0,-0.18653 -0.149899,-0.33635 -0.336371,-0.33635 z m 0,7.61227 c -0.186528,0 -0.336339,0.14989 -0.336339,0.33634 0,0.18653 0.149899,0.33634 0.336339,0.33634 h 9.663844 c 0.186528,0 0.336371,-0.1499 0.336371,-0.33634 0,-0.18653 -0.149899,-0.33634 -0.336371,-0.33634 z m 0,7.61226 c -0.186528,0 -0.336339,0.14989 -0.336339,0.33637 0,0.18652 0.149899,0.33634 0.336339,0.33634 h 9.663844 c 0.186528,0 0.336371,-0.1499 0.336371,-0.33634 0,-0.18653 -0.149899,-0.33637 -0.336371,-0.33637 z m 0,7.61228 c -0.186528,0 -0.336339,0.1499 -0.336339,0.33635 0,0.18652 0.149899,0.33634 0.336339,0.33634 h 9.663844 c 0.186528,0 0.336371,-0.1499 0.336371,-0.33634 0,-0.18653 -0.149899,-0.33635 -0.336371,-0.33635 z m 0,7.61227 c -0.186528,0 -0.336339,0.14989 -0.336339,0.33634 0,0.18653 0.149899,0.33637 0.336339,0.33637 h 9.663844 c 0.186528,0 0.336371,-0.1499 0.336371,-0.33637 0,-0.18653 -0.149899,-0.33634 -0.336371,-0.33634 z m 0,7.61226 c -0.186528,0 -0.336339,0.14989 -0.336339,0.33637 0,0.18652 0.149899,0.33634 0.336339,0.33634 h 9.663844 c 0.186528,0 0.336371,-0.1499 0.336371,-0.33634 0,-0.18653 -0.149899,-0.33637 -0.336371,-0.33637 z"
         style="opacity:1;fill:#ffffff;fill-opacity:1;fill-rule:nonzero;stroke:none;stroke-width:10.59788513;stroke-linecap:round;stroke-linejoin:round;stroke-miterlimit:4;stroke-dasharray:none;stroke-opacity:1;paint-order:markers fill stroke" />
    </g>
    <g
       id="g5348"
       transform="translate(-0.16292335,1.9232218)">
      <rect
         ry="0"
         y="200.84454"
         x="129.11891"
         height="6.0829487"
         width="9.080801"
         id="rect4859"
         style="opacity:1;fill:#0000ff;fill-opacity:1;fill-rule:nonzero;stroke:none;stroke-width:9.23294926;stroke-linecap:round;stroke-linejoin:round;stroke-miterlimit:4;stroke-dasharray:none;stroke-opacity:1;paint-order:markers fill stroke" />
      <path
         inkscape:connector-curvature="0"
         id="path4861-8"
         d="m 142.95326,162.19762 c -1.81308,0 -3.27272,1.92199 -3.27272,4.31005 v 20.90307 h -0.42955 v 23.25678 h 7.40601 v -23.25678 h -0.43099 v -20.90307 c 0,-2.38806 -1.45964,-4.31005 -3.27275,-4.31005 z"
         style="opacity:1;fill:#0000ff;fill-opacity:1;fill-rule:nonzero;stroke:none;stroke-width:6.96086073;stroke-linecap:round;stroke-linejoin:round;stroke-miterlimit:4;stroke-dasharray:none;stroke-opacity:1;paint-order:markers fill stroke" />
      <circle
         r="2.0166297"
         cy="203.88602"
         cx="142.95396"
         id="circle4863"
         style="opacity:1;fill:#ffffff;fill-opacity:1;fill-rule:nonzero;stroke:none;stroke-width:11.30912018;stroke-linecap:round;stroke-linejoin:round;stroke-miterlimit:4;stroke-dasharray:none;stroke-opacity:1;paint-order:markers fill stroke" />
      <circle
         style="opacity:1;fill:#0000ff;fill-opacity:1;fill-rule:nonzero;stroke:none;stroke-width:8.34279346;stroke-linecap:round;stroke-linejoin:round;stroke-miterlimit:4;stroke-dasharray:none;stroke-opacity:1;paint-order:markers fill stroke"
         id="circle4865"
         cx="142.95396"
         cy="203.88602"
         r="1.4876777" />
    </g>
  </g>
</svg>
