<?xml version="1.0" encoding="UTF-8" standalone="no"?>
<!-- Created with Inkscape (http://www.inkscape.org/) -->

<svg
   xmlns:dc="http://purl.org/dc/elements/1.1/"
   xmlns:cc="http://creativecommons.org/ns#"
   xmlns:rdf="http://www.w3.org/1999/02/22-rdf-syntax-ns#"
   xmlns:svg="http://www.w3.org/2000/svg"
   xmlns="http://www.w3.org/2000/svg"
   xmlns:sodipodi="http://sodipodi.sourceforge.net/DTD/sodipodi-0.dtd"
   xmlns:inkscape="http://www.inkscape.org/namespaces/inkscape"
   width="655"
   height="532"
   viewBox="0 0 173.3021 140.75833"
   version="1.1"
   id="svg8"
   inkscape:version="0.92.2 (5c3e80d, 2017-08-06)"
   sodipodi:docname="SensoreLivelloAcquaD.svg"
   enable-background="new">
  <sodipodi:namedview
     id="base"
     pagecolor="#ffffff"
     bordercolor="#666666"
     borderopacity="1.0"
     inkscape:pageopacity="0.0"
     inkscape:pageshadow="2"
     inkscape:zoom="0.90509668"
     inkscape:cx="592.27451"
     inkscape:cy="320.71096"
     inkscape:document-units="mm"
     inkscape:current-layer="layer1"
     showgrid="false"
     units="px"
     inkscape:window-width="1920"
     inkscape:window-height="1003"
     inkscape:window-x="-9"
     inkscape:window-y="-9"
     inkscape:window-maximized="1"
     showguides="false"
     inkscape:guide-bbox="true"
     inkscape:snap-bbox="true"
     inkscape:snap-bbox-edge-midpoints="true"
     inkscape:snap-midpoints="true"
     inkscape:snap-bbox-midpoints="true"
     inkscape:snap-grids="false"
     inkscape:snap-center="true"
     inkscape:snap-object-midpoints="true"
     inkscape:bbox-nodes="true"
     inkscape:bbox-paths="true"
     inkscape:snap-intersection-paths="true"
     inkscape:snap-smooth-nodes="true"
     inkscape:object-nodes="true"
     inkscape:object-paths="true"
     inkscape:snap-to-guides="true"
     inkscape:snap-page="true"
     inkscape:snap-others="true"
     inkscape:snap-global="false"
     inkscape:measure-start="0,0"
     inkscape:measure-end="0,0">
    <inkscape:grid
       type="xygrid"
       id="grid1756"
       spacingx="28.883682"
       spacingy="12.796214"
       empspacing="1" />
    <sodipodi:guide
       position="86.651049,153.55457"
       orientation="1,0"
       id="guide3733"
       inkscape:locked="false" />
    <sodipodi:guide
       position="-252.10351,16.204667"
       orientation="1,0"
       id="guide4174"
       inkscape:locked="false" />
    <sodipodi:guide
       position="-110.58353,48.08179"
       orientation="1,0"
       id="guide4176"
       inkscape:locked="false" />
    <sodipodi:guide
       position="-310.92954,118.20855"
       orientation="1,0"
       id="guide4207"
       inkscape:locked="false" />
    <sodipodi:guide
       position="278.64225,91.190748"
       orientation="0,1"
       id="guide7233"
       inkscape:locked="false" />
    <sodipodi:guide
       position="86.65105,16.10651"
       orientation="0,1"
       id="guide7235"
       inkscape:locked="false" />
  </sodipodi:namedview>
  <defs
     id="defs2" />
  <metadata
     id="metadata5">
    <rdf:RDF>
      <cc:Work
         rdf:about="">
        <dc:format>image/svg+xml</dc:format>
        <dc:type
           rdf:resource="http://purl.org/dc/dcmitype/StillImage" />
        <dc:title></dc:title>
      </cc:Work>
    </rdf:RDF>
  </metadata>
  <g
     inkscape:label="Sezione Lavaggio"
     inkscape:groupmode="layer"
     id="layer1"
     transform="translate(0,-156.24165)">
    <g
       transform="matrix(2.8176445,0,0,2.8176445,-1014.8392,-363.86412)"
       id="g2677">
      <path
         inkscape:connector-curvature="0"
         id="path2527"
         d="m 381.59717,190.30865 c -2.86004,0 -5.16252,2.30249 -5.16252,5.16253 v 28.19487 c 0,2.86005 2.30248,5.16253 5.16252,5.16253 h 18.65746 c 2.86004,0 5.16253,-2.30248 5.16253,-5.16253 v -28.19487 c 0,-2.86004 -2.30249,-5.16253 -5.16253,-5.16253 z"
         style="opacity:1;fill:#0000ff;fill-opacity:1;fill-rule:nonzero;stroke:none;stroke-width:1.42512119;stroke-linecap:round;stroke-linejoin:round;stroke-miterlimit:4;stroke-dasharray:none;stroke-opacity:1;paint-order:markers fill stroke" />
      <g
         id="g2625"
         transform="translate(49.718868,1.190625)">
        <rect
           style="opacity:1;fill:#ffffff;fill-opacity:1;fill-rule:nonzero;stroke:none;stroke-width:4.50875521;stroke-linecap:round;stroke-linejoin:round;stroke-miterlimit:4;stroke-dasharray:none;stroke-opacity:1;paint-order:markers fill stroke"
           id="rect2529"
           width="3.9960501"
           height="31.377239"
           x="330.46954"
           y="193.50679"
           ry="1.9980251" />
        <rect
           style="opacity:1;fill:#0000ff;fill-opacity:1;fill-rule:nonzero;stroke:none;stroke-width:1.66705275;stroke-linecap:round;stroke-linejoin:round;stroke-miterlimit:4;stroke-dasharray:none;stroke-opacity:1;paint-order:markers fill stroke"
           id="rect2531"
           width="3.6686344"
           height="0.23892196"
           x="330.63324"
           y="196.72049"
           ry="0.11946098" />
        <rect
           style="opacity:1;fill:#0000ff;fill-opacity:1;fill-rule:nonzero;stroke:none;stroke-width:1.66705275;stroke-linecap:round;stroke-linejoin:round;stroke-miterlimit:4;stroke-dasharray:none;stroke-opacity:1;paint-order:markers fill stroke"
           id="rect2533"
           width="3.6686344"
           height="0.23892196"
           x="330.63324"
           y="200.27228"
           ry="0.11946098" />
        <rect
           style="opacity:1;fill:#0000ff;fill-opacity:1;fill-rule:nonzero;stroke:none;stroke-width:1.66705275;stroke-linecap:round;stroke-linejoin:round;stroke-miterlimit:4;stroke-dasharray:none;stroke-opacity:1;paint-order:markers fill stroke"
           id="rect2535"
           width="3.6686344"
           height="0.23892196"
           x="330.63324"
           y="203.82407"
           ry="0.11946098" />
        <rect
           style="opacity:1;fill:#0000ff;fill-opacity:1;fill-rule:nonzero;stroke:none;stroke-width:1.66705275;stroke-linecap:round;stroke-linejoin:round;stroke-miterlimit:4;stroke-dasharray:none;stroke-opacity:1;paint-order:markers fill stroke"
           id="rect2537"
           width="3.6686344"
           height="0.23892196"
           x="330.63324"
           y="207.37585"
           ry="0.11946098" />
        <rect
           style="opacity:1;fill:#0000ff;fill-opacity:1;fill-rule:nonzero;stroke:none;stroke-width:1.66705275;stroke-linecap:round;stroke-linejoin:round;stroke-miterlimit:4;stroke-dasharray:none;stroke-opacity:1;paint-order:markers fill stroke"
           id="rect2539"
           width="3.6686344"
           height="0.23892196"
           x="330.63324"
           y="210.92766"
           ry="0.11946098" />
        <rect
           style="opacity:1;fill:#0000ff;fill-opacity:1;fill-rule:nonzero;stroke:none;stroke-width:1.66705275;stroke-linecap:round;stroke-linejoin:round;stroke-miterlimit:4;stroke-dasharray:none;stroke-opacity:1;paint-order:markers fill stroke"
           id="rect2541"
           width="3.6686344"
           height="0.23892196"
           x="330.63324"
           y="214.47945"
           ry="0.11946098" />
        <rect
           ry="0.11946098"
           y="218.03123"
           x="330.63324"
           height="0.23892196"
           width="3.6686344"
           id="rect2543"
           style="opacity:1;fill:#0000ff;fill-opacity:1;fill-rule:nonzero;stroke:none;stroke-width:1.66705275;stroke-linecap:round;stroke-linejoin:round;stroke-miterlimit:4;stroke-dasharray:none;stroke-opacity:1;paint-order:markers fill stroke" />
        <rect
           style="opacity:1;fill:#0000ff;fill-opacity:1;fill-rule:nonzero;stroke:none;stroke-width:1.66705275;stroke-linecap:round;stroke-linejoin:round;stroke-miterlimit:4;stroke-dasharray:none;stroke-opacity:1;paint-order:markers fill stroke"
           id="rect2545"
           width="3.6686344"
           height="0.23892196"
           x="330.63324"
           y="221.58302"
           ry="0.11946098" />
        <path
           sodipodi:type="star"
           style="opacity:1;fill:#ffffff;fill-opacity:1;fill-rule:nonzero;stroke:none;stroke-width:4;stroke-linecap:round;stroke-linejoin:round;stroke-miterlimit:4;stroke-dasharray:none;stroke-opacity:1;paint-order:markers fill stroke"
           id="path2547"
           sodipodi:sides="3"
           sodipodi:cx="202.54794"
           sodipodi:cy="129.99129"
           sodipodi:r1="12.909139"
           sodipodi:r2="6.4545693"
           sodipodi:arg1="1.5726079"
           sodipodi:arg2="2.6198055"
           inkscape:flatsided="true"
           inkscape:rounded="0"
           inkscape:randomized="0"
           d="m 202.52456,142.9004 -11.14455,-19.38392 22.35925,0.0405 z"
           inkscape:transform-center-x="1.4095226"
           inkscape:transform-center-y="0.0051217771"
           transform="matrix(0,0.43812777,-0.43812777,0,402.32944,111.43738)" />
        <path
           style="opacity:1;fill:#ffffff;fill-opacity:1;fill-rule:nonzero;stroke:none;stroke-width:1.20776594;stroke-linecap:round;stroke-linejoin:round;stroke-miterlimit:4;stroke-dasharray:none;stroke-opacity:1;paint-order:markers fill stroke"
           d="m 339.82245,216.21667 a 2.0529393,2.0529393 0 0 1 -1.50534,1.9761 v 0.81701 a 2.0529393,2.0529393 0 0 0 1.50534,-1.97611 2.0529393,2.0529393 0 0 0 2.0531,2.05259 2.0529393,2.0529393 0 0 0 2.05311,-2.05259 2.0529393,2.0529393 0 0 0 2.05259,2.05259 2.0529393,2.0529393 0 0 0 2.0531,-2.05259 2.0529393,2.0529393 0 0 0 2.0531,2.05259 2.0529393,2.0529393 0 0 0 0.0951,-0.005 c -0.054,-0.0115 -0.0951,-0.0572 -0.0951,-0.11473 v -0.69711 a 2.0529393,2.0529393 0 0 1 -2.0531,-2.0531 2.0529393,2.0529393 0 0 1 -2.0531,2.0531 2.0529393,2.0529393 0 0 1 -2.05259,-2.0531 2.0529393,2.0529393 0 0 1 -2.05311,2.0531 2.0529393,2.0529393 0 0 1 -2.0531,-2.0531 z"
           id="path2549"
           inkscape:connector-curvature="0" />
        <path
           inkscape:connector-curvature="0"
           id="path2551"
           d="m 339.82245,213.34673 a 2.0529393,2.0529393 0 0 1 -1.50534,1.9761 v 0.81701 a 2.0529393,2.0529393 0 0 0 1.50534,-1.97611 2.0529393,2.0529393 0 0 0 2.0531,2.05259 2.0529393,2.0529393 0 0 0 2.05311,-2.05259 2.0529393,2.0529393 0 0 0 2.05259,2.05259 2.0529393,2.0529393 0 0 0 2.0531,-2.05259 2.0529393,2.0529393 0 0 0 2.0531,2.05259 2.0529393,2.0529393 0 0 0 0.0951,-0.005 c -0.054,-0.0115 -0.0951,-0.0572 -0.0951,-0.11473 v -0.69711 a 2.0529393,2.0529393 0 0 1 -2.0531,-2.0531 2.0529393,2.0529393 0 0 1 -2.0531,2.0531 2.0529393,2.0529393 0 0 1 -2.05259,-2.0531 2.0529393,2.0529393 0 0 1 -2.05311,2.0531 2.0529393,2.0529393 0 0 1 -2.0531,-2.0531 z"
           style="opacity:1;fill:#ffffff;fill-opacity:1;fill-rule:nonzero;stroke:none;stroke-width:1.20776594;stroke-linecap:round;stroke-linejoin:round;stroke-miterlimit:4;stroke-dasharray:none;stroke-opacity:1;paint-order:markers fill stroke" />
        <rect
           ry="1.9980251"
           y="193.50679"
           x="330.46954"
           height="31.377239"
           width="3.9960501"
           id="rect2553"
           style="opacity:1;fill:#ffffff;fill-opacity:1;fill-rule:nonzero;stroke:none;stroke-width:4.50875521;stroke-linecap:round;stroke-linejoin:round;stroke-miterlimit:4;stroke-dasharray:none;stroke-opacity:1;paint-order:markers fill stroke" />
        <rect
           ry="0.11946098"
           y="196.72049"
           x="330.63324"
           height="0.23892196"
           width="3.6686344"
           id="rect2555"
           style="opacity:1;fill:#0000ff;fill-opacity:1;fill-rule:nonzero;stroke:none;stroke-width:1.66705275;stroke-linecap:round;stroke-linejoin:round;stroke-miterlimit:4;stroke-dasharray:none;stroke-opacity:1;paint-order:markers fill stroke" />
        <rect
           ry="0.11946098"
           y="200.27228"
           x="330.63324"
           height="0.23892196"
           width="3.6686344"
           id="rect2557"
           style="opacity:1;fill:#0000ff;fill-opacity:1;fill-rule:nonzero;stroke:none;stroke-width:1.66705275;stroke-linecap:round;stroke-linejoin:round;stroke-miterlimit:4;stroke-dasharray:none;stroke-opacity:1;paint-order:markers fill stroke" />
        <rect
           ry="0.11946098"
           y="203.82407"
           x="330.63324"
           height="0.23892196"
           width="3.6686344"
           id="rect2559"
           style="opacity:1;fill:#0000ff;fill-opacity:1;fill-rule:nonzero;stroke:none;stroke-width:1.66705275;stroke-linecap:round;stroke-linejoin:round;stroke-miterlimit:4;stroke-dasharray:none;stroke-opacity:1;paint-order:markers fill stroke" />
        <rect
           ry="0.11946098"
           y="207.37585"
           x="330.63324"
           height="0.23892196"
           width="3.6686344"
           id="rect2561"
           style="opacity:1;fill:#0000ff;fill-opacity:1;fill-rule:nonzero;stroke:none;stroke-width:1.66705275;stroke-linecap:round;stroke-linejoin:round;stroke-miterlimit:4;stroke-dasharray:none;stroke-opacity:1;paint-order:markers fill stroke" />
        <rect
           ry="0.11946098"
           y="210.92766"
           x="330.63324"
           height="0.23892196"
           width="3.6686344"
           id="rect2563"
           style="opacity:1;fill:#0000ff;fill-opacity:1;fill-rule:nonzero;stroke:none;stroke-width:1.66705275;stroke-linecap:round;stroke-linejoin:round;stroke-miterlimit:4;stroke-dasharray:none;stroke-opacity:1;paint-order:markers fill stroke" />
        <rect
           ry="0.11946098"
           y="214.47945"
           x="330.63324"
           height="0.23892196"
           width="3.6686344"
           id="rect2565"
           style="opacity:1;fill:#0000ff;fill-opacity:1;fill-rule:nonzero;stroke:none;stroke-width:1.66705275;stroke-linecap:round;stroke-linejoin:round;stroke-miterlimit:4;stroke-dasharray:none;stroke-opacity:1;paint-order:markers fill stroke" />
        <rect
           style="opacity:1;fill:#0000ff;fill-opacity:1;fill-rule:nonzero;stroke:none;stroke-width:1.66705275;stroke-linecap:round;stroke-linejoin:round;stroke-miterlimit:4;stroke-dasharray:none;stroke-opacity:1;paint-order:markers fill stroke"
           id="rect2567"
           width="3.6686344"
           height="0.23892196"
           x="330.63324"
           y="218.03123"
           ry="0.11946098" />
        <rect
           ry="0.11946098"
           y="221.58302"
           x="330.63324"
           height="0.23892196"
           width="3.6686344"
           id="rect2569"
           style="opacity:1;fill:#0000ff;fill-opacity:1;fill-rule:nonzero;stroke:none;stroke-width:1.66705275;stroke-linecap:round;stroke-linejoin:round;stroke-miterlimit:4;stroke-dasharray:none;stroke-opacity:1;paint-order:markers fill stroke" />
        <path
           transform="matrix(0,0.43812777,-0.43812777,0,402.32944,111.43738)"
           inkscape:transform-center-y="0.0051217771"
           inkscape:transform-center-x="1.4095226"
           d="m 202.52456,142.9004 -11.14455,-19.38392 22.35925,0.0405 z"
           inkscape:randomized="0"
           inkscape:rounded="0"
           inkscape:flatsided="true"
           sodipodi:arg2="2.6198055"
           sodipodi:arg1="1.5726079"
           sodipodi:r2="6.4545693"
           sodipodi:r1="12.909139"
           sodipodi:cy="129.99129"
           sodipodi:cx="202.54794"
           sodipodi:sides="3"
           id="path2571"
           style="opacity:1;fill:#ffffff;fill-opacity:1;fill-rule:nonzero;stroke:none;stroke-width:4;stroke-linecap:round;stroke-linejoin:round;stroke-miterlimit:4;stroke-dasharray:none;stroke-opacity:1;paint-order:markers fill stroke"
           sodipodi:type="star" />
        <path
           inkscape:connector-curvature="0"
           id="path2573"
           d="m 339.82245,216.21667 a 2.0529393,2.0529393 0 0 1 -1.50534,1.9761 v 0.81701 a 2.0529393,2.0529393 0 0 0 1.50534,-1.97611 2.0529393,2.0529393 0 0 0 2.0531,2.05259 2.0529393,2.0529393 0 0 0 2.05311,-2.05259 2.0529393,2.0529393 0 0 0 2.05259,2.05259 2.0529393,2.0529393 0 0 0 2.0531,-2.05259 2.0529393,2.0529393 0 0 0 2.0531,2.05259 2.0529393,2.0529393 0 0 0 0.0951,-0.005 c -0.054,-0.0115 -0.0951,-0.0572 -0.0951,-0.11473 v -0.69711 a 2.0529393,2.0529393 0 0 1 -2.0531,-2.0531 2.0529393,2.0529393 0 0 1 -2.0531,2.0531 2.0529393,2.0529393 0 0 1 -2.05259,-2.0531 2.0529393,2.0529393 0 0 1 -2.05311,2.0531 2.0529393,2.0529393 0 0 1 -2.0531,-2.0531 z"
           style="opacity:1;fill:#ffffff;fill-opacity:1;fill-rule:nonzero;stroke:none;stroke-width:1.20776594;stroke-linecap:round;stroke-linejoin:round;stroke-miterlimit:4;stroke-dasharray:none;stroke-opacity:1;paint-order:markers fill stroke" />
        <path
           style="opacity:1;fill:#ffffff;fill-opacity:1;fill-rule:nonzero;stroke:none;stroke-width:1.20776594;stroke-linecap:round;stroke-linejoin:round;stroke-miterlimit:4;stroke-dasharray:none;stroke-opacity:1;paint-order:markers fill stroke"
           d="m 339.82245,213.34673 a 2.0529393,2.0529393 0 0 1 -1.50534,1.9761 v 0.81701 a 2.0529393,2.0529393 0 0 0 1.50534,-1.97611 2.0529393,2.0529393 0 0 0 2.0531,2.05259 2.0529393,2.0529393 0 0 0 2.05311,-2.05259 2.0529393,2.0529393 0 0 0 2.05259,2.05259 2.0529393,2.0529393 0 0 0 2.0531,-2.05259 2.0529393,2.0529393 0 0 0 2.0531,2.05259 2.0529393,2.0529393 0 0 0 0.0951,-0.005 c -0.054,-0.0115 -0.0951,-0.0572 -0.0951,-0.11473 v -0.69711 a 2.0529393,2.0529393 0 0 1 -2.0531,-2.0531 2.0529393,2.0529393 0 0 1 -2.0531,2.0531 2.0529393,2.0529393 0 0 1 -2.05259,-2.0531 2.0529393,2.0529393 0 0 1 -2.05311,2.0531 2.0529393,2.0529393 0 0 1 -2.0531,-2.0531 z"
           id="path2575"
           inkscape:connector-curvature="0" />
        <rect
           ry="1.9980251"
           y="193.50679"
           x="330.46954"
           height="31.377239"
           width="3.9960501"
           id="rect2577"
           style="opacity:1;fill:#ffffff;fill-opacity:1;fill-rule:nonzero;stroke:none;stroke-width:4.50875521;stroke-linecap:round;stroke-linejoin:round;stroke-miterlimit:4;stroke-dasharray:none;stroke-opacity:1;paint-order:markers fill stroke" />
        <rect
           ry="0.11946098"
           y="196.72049"
           x="330.63324"
           height="0.23892196"
           width="3.6686344"
           id="rect2579"
           style="opacity:1;fill:#0000ff;fill-opacity:1;fill-rule:nonzero;stroke:none;stroke-width:1.66705275;stroke-linecap:round;stroke-linejoin:round;stroke-miterlimit:4;stroke-dasharray:none;stroke-opacity:1;paint-order:markers fill stroke" />
        <rect
           ry="0.11946098"
           y="200.27228"
           x="330.63324"
           height="0.23892196"
           width="3.6686344"
           id="rect2581"
           style="opacity:1;fill:#0000ff;fill-opacity:1;fill-rule:nonzero;stroke:none;stroke-width:1.66705275;stroke-linecap:round;stroke-linejoin:round;stroke-miterlimit:4;stroke-dasharray:none;stroke-opacity:1;paint-order:markers fill stroke" />
        <rect
           ry="0.11946098"
           y="203.82407"
           x="330.63324"
           height="0.23892196"
           width="3.6686344"
           id="rect2583"
           style="opacity:1;fill:#0000ff;fill-opacity:1;fill-rule:nonzero;stroke:none;stroke-width:1.66705275;stroke-linecap:round;stroke-linejoin:round;stroke-miterlimit:4;stroke-dasharray:none;stroke-opacity:1;paint-order:markers fill stroke" />
        <rect
           ry="0.11946098"
           y="207.37585"
           x="330.63324"
           height="0.23892196"
           width="3.6686344"
           id="rect2585"
           style="opacity:1;fill:#0000ff;fill-opacity:1;fill-rule:nonzero;stroke:none;stroke-width:1.66705275;stroke-linecap:round;stroke-linejoin:round;stroke-miterlimit:4;stroke-dasharray:none;stroke-opacity:1;paint-order:markers fill stroke" />
        <rect
           ry="0.11946098"
           y="210.92766"
           x="330.63324"
           height="0.23892196"
           width="3.6686344"
           id="rect2587"
           style="opacity:1;fill:#0000ff;fill-opacity:1;fill-rule:nonzero;stroke:none;stroke-width:1.66705275;stroke-linecap:round;stroke-linejoin:round;stroke-miterlimit:4;stroke-dasharray:none;stroke-opacity:1;paint-order:markers fill stroke" />
        <rect
           ry="0.11946098"
           y="214.47945"
           x="330.63324"
           height="0.23892196"
           width="3.6686344"
           id="rect2589"
           style="opacity:1;fill:#0000ff;fill-opacity:1;fill-rule:nonzero;stroke:none;stroke-width:1.66705275;stroke-linecap:round;stroke-linejoin:round;stroke-miterlimit:4;stroke-dasharray:none;stroke-opacity:1;paint-order:markers fill stroke" />
        <rect
           style="opacity:1;fill:#0000ff;fill-opacity:1;fill-rule:nonzero;stroke:none;stroke-width:1.66705275;stroke-linecap:round;stroke-linejoin:round;stroke-miterlimit:4;stroke-dasharray:none;stroke-opacity:1;paint-order:markers fill stroke"
           id="rect2591"
           width="3.6686344"
           height="0.23892196"
           x="330.63324"
           y="218.03123"
           ry="0.11946098" />
        <rect
           ry="0.11946098"
           y="221.58302"
           x="330.63324"
           height="0.23892196"
           width="3.6686344"
           id="rect2593"
           style="opacity:1;fill:#0000ff;fill-opacity:1;fill-rule:nonzero;stroke:none;stroke-width:1.66705275;stroke-linecap:round;stroke-linejoin:round;stroke-miterlimit:4;stroke-dasharray:none;stroke-opacity:1;paint-order:markers fill stroke" />
        <path
           transform="matrix(0,0.43812777,-0.43812777,0,402.32944,111.43738)"
           inkscape:transform-center-y="0.0051217771"
           inkscape:transform-center-x="1.4095226"
           d="m 202.52456,142.9004 -11.14455,-19.38392 22.35925,0.0405 z"
           inkscape:randomized="0"
           inkscape:rounded="0"
           inkscape:flatsided="true"
           sodipodi:arg2="2.6198055"
           sodipodi:arg1="1.5726079"
           sodipodi:r2="6.4545693"
           sodipodi:r1="12.909139"
           sodipodi:cy="129.99129"
           sodipodi:cx="202.54794"
           sodipodi:sides="3"
           id="path2595"
           style="opacity:1;fill:#ffffff;fill-opacity:1;fill-rule:nonzero;stroke:none;stroke-width:4;stroke-linecap:round;stroke-linejoin:round;stroke-miterlimit:4;stroke-dasharray:none;stroke-opacity:1;paint-order:markers fill stroke"
           sodipodi:type="star" />
        <path
           inkscape:connector-curvature="0"
           id="path2597"
           d="m 339.82245,216.21667 a 2.0529393,2.0529393 0 0 1 -1.50534,1.9761 v 0.81701 a 2.0529393,2.0529393 0 0 0 1.50534,-1.97611 2.0529393,2.0529393 0 0 0 2.0531,2.05259 2.0529393,2.0529393 0 0 0 2.05311,-2.05259 2.0529393,2.0529393 0 0 0 2.05259,2.05259 2.0529393,2.0529393 0 0 0 2.0531,-2.05259 2.0529393,2.0529393 0 0 0 2.0531,2.05259 2.0529393,2.0529393 0 0 0 0.0951,-0.005 c -0.054,-0.0115 -0.0951,-0.0572 -0.0951,-0.11473 v -0.69711 a 2.0529393,2.0529393 0 0 1 -2.0531,-2.0531 2.0529393,2.0529393 0 0 1 -2.0531,2.0531 2.0529393,2.0529393 0 0 1 -2.05259,-2.0531 2.0529393,2.0529393 0 0 1 -2.05311,2.0531 2.0529393,2.0529393 0 0 1 -2.0531,-2.0531 z"
           style="opacity:1;fill:#ffffff;fill-opacity:1;fill-rule:nonzero;stroke:none;stroke-width:1.20776594;stroke-linecap:round;stroke-linejoin:round;stroke-miterlimit:4;stroke-dasharray:none;stroke-opacity:1;paint-order:markers fill stroke" />
        <path
           style="opacity:1;fill:#ffffff;fill-opacity:1;fill-rule:nonzero;stroke:none;stroke-width:1.20776594;stroke-linecap:round;stroke-linejoin:round;stroke-miterlimit:4;stroke-dasharray:none;stroke-opacity:1;paint-order:markers fill stroke"
           d="m 339.82245,213.34673 a 2.0529393,2.0529393 0 0 1 -1.50534,1.9761 v 0.81701 a 2.0529393,2.0529393 0 0 0 1.50534,-1.97611 2.0529393,2.0529393 0 0 0 2.0531,2.05259 2.0529393,2.0529393 0 0 0 2.05311,-2.05259 2.0529393,2.0529393 0 0 0 2.05259,2.05259 2.0529393,2.0529393 0 0 0 2.0531,-2.05259 2.0529393,2.0529393 0 0 0 2.0531,2.05259 2.0529393,2.0529393 0 0 0 0.0951,-0.005 c -0.054,-0.0115 -0.0951,-0.0572 -0.0951,-0.11473 v -0.69711 a 2.0529393,2.0529393 0 0 1 -2.0531,-2.0531 2.0529393,2.0529393 0 0 1 -2.0531,2.0531 2.0529393,2.0529393 0 0 1 -2.05259,-2.0531 2.0529393,2.0529393 0 0 1 -2.05311,2.0531 2.0529393,2.0529393 0 0 1 -2.0531,-2.0531 z"
           id="path2599"
           inkscape:connector-curvature="0" />
        <rect
           style="opacity:1;fill:#ffffff;fill-opacity:1;fill-rule:nonzero;stroke:none;stroke-width:4.50875521;stroke-linecap:round;stroke-linejoin:round;stroke-miterlimit:4;stroke-dasharray:none;stroke-opacity:1;paint-order:markers fill stroke"
           id="rect2601"
           width="3.9960501"
           height="31.377239"
           x="330.46954"
           y="193.50679"
           ry="1.9980251" />
        <rect
           style="opacity:1;fill:#0000ff;fill-opacity:1;fill-rule:nonzero;stroke:none;stroke-width:1.66705275;stroke-linecap:round;stroke-linejoin:round;stroke-miterlimit:4;stroke-dasharray:none;stroke-opacity:1;paint-order:markers fill stroke"
           id="rect2603"
           width="3.6686344"
           height="0.23892196"
           x="330.63324"
           y="196.72049"
           ry="0.11946098" />
        <rect
           style="opacity:1;fill:#0000ff;fill-opacity:1;fill-rule:nonzero;stroke:none;stroke-width:1.66705275;stroke-linecap:round;stroke-linejoin:round;stroke-miterlimit:4;stroke-dasharray:none;stroke-opacity:1;paint-order:markers fill stroke"
           id="rect2605"
           width="3.6686344"
           height="0.23892196"
           x="330.63324"
           y="200.27228"
           ry="0.11946098" />
        <rect
           style="opacity:1;fill:#0000ff;fill-opacity:1;fill-rule:nonzero;stroke:none;stroke-width:1.66705275;stroke-linecap:round;stroke-linejoin:round;stroke-miterlimit:4;stroke-dasharray:none;stroke-opacity:1;paint-order:markers fill stroke"
           id="rect2607"
           width="3.6686344"
           height="0.23892196"
           x="330.63324"
           y="203.82407"
           ry="0.11946098" />
        <rect
           style="opacity:1;fill:#0000ff;fill-opacity:1;fill-rule:nonzero;stroke:none;stroke-width:1.66705275;stroke-linecap:round;stroke-linejoin:round;stroke-miterlimit:4;stroke-dasharray:none;stroke-opacity:1;paint-order:markers fill stroke"
           id="rect2609"
           width="3.6686344"
           height="0.23892196"
           x="330.63324"
           y="207.37585"
           ry="0.11946098" />
        <rect
           style="opacity:1;fill:#0000ff;fill-opacity:1;fill-rule:nonzero;stroke:none;stroke-width:1.66705275;stroke-linecap:round;stroke-linejoin:round;stroke-miterlimit:4;stroke-dasharray:none;stroke-opacity:1;paint-order:markers fill stroke"
           id="rect2611"
           width="3.6686344"
           height="0.23892196"
           x="330.63324"
           y="210.92766"
           ry="0.11946098" />
        <rect
           style="opacity:1;fill:#0000ff;fill-opacity:1;fill-rule:nonzero;stroke:none;stroke-width:1.66705275;stroke-linecap:round;stroke-linejoin:round;stroke-miterlimit:4;stroke-dasharray:none;stroke-opacity:1;paint-order:markers fill stroke"
           id="rect2613"
           width="3.6686344"
           height="0.23892196"
           x="330.63324"
           y="214.47945"
           ry="0.11946098" />
        <rect
           ry="0.11946098"
           y="218.03123"
           x="330.63324"
           height="0.23892196"
           width="3.6686344"
           id="rect2615"
           style="opacity:1;fill:#0000ff;fill-opacity:1;fill-rule:nonzero;stroke:none;stroke-width:1.66705275;stroke-linecap:round;stroke-linejoin:round;stroke-miterlimit:4;stroke-dasharray:none;stroke-opacity:1;paint-order:markers fill stroke" />
        <rect
           style="opacity:1;fill:#0000ff;fill-opacity:1;fill-rule:nonzero;stroke:none;stroke-width:1.66705275;stroke-linecap:round;stroke-linejoin:round;stroke-miterlimit:4;stroke-dasharray:none;stroke-opacity:1;paint-order:markers fill stroke"
           id="rect2617"
           width="3.6686344"
           height="0.23892196"
           x="330.63324"
           y="221.58302"
           ry="0.11946098" />
        <path
           sodipodi:type="star"
           style="opacity:1;fill:#ffffff;fill-opacity:1;fill-rule:nonzero;stroke:none;stroke-width:4;stroke-linecap:round;stroke-linejoin:round;stroke-miterlimit:4;stroke-dasharray:none;stroke-opacity:1;paint-order:markers fill stroke"
           id="path2619"
           sodipodi:sides="3"
           sodipodi:cx="202.54794"
           sodipodi:cy="129.99129"
           sodipodi:r1="12.909139"
           sodipodi:r2="6.4545693"
           sodipodi:arg1="1.5726079"
           sodipodi:arg2="2.6198055"
           inkscape:flatsided="true"
           inkscape:rounded="0"
           inkscape:randomized="0"
           d="m 202.52456,142.9004 -11.14455,-19.38392 22.35925,0.0405 z"
           inkscape:transform-center-x="1.4095226"
           inkscape:transform-center-y="0.0051217771"
           transform="matrix(0,0.43812777,-0.43812777,0,402.32944,111.43738)" />
        <path
           style="opacity:1;fill:#ffffff;fill-opacity:1;fill-rule:nonzero;stroke:none;stroke-width:1.20776594;stroke-linecap:round;stroke-linejoin:round;stroke-miterlimit:4;stroke-dasharray:none;stroke-opacity:1;paint-order:markers fill stroke"
           d="m 339.82245,216.21667 a 2.0529393,2.0529393 0 0 1 -1.50534,1.9761 v 0.81701 a 2.0529393,2.0529393 0 0 0 1.50534,-1.97611 2.0529393,2.0529393 0 0 0 2.0531,2.05259 2.0529393,2.0529393 0 0 0 2.05311,-2.05259 2.0529393,2.0529393 0 0 0 2.05259,2.05259 2.0529393,2.0529393 0 0 0 2.0531,-2.05259 2.0529393,2.0529393 0 0 0 2.0531,2.05259 2.0529393,2.0529393 0 0 0 0.0951,-0.005 c -0.054,-0.0115 -0.0951,-0.0572 -0.0951,-0.11473 v -0.69711 a 2.0529393,2.0529393 0 0 1 -2.0531,-2.0531 2.0529393,2.0529393 0 0 1 -2.0531,2.0531 2.0529393,2.0529393 0 0 1 -2.05259,-2.0531 2.0529393,2.0529393 0 0 1 -2.05311,2.0531 2.0529393,2.0529393 0 0 1 -2.0531,-2.0531 z"
           id="path2621"
           inkscape:connector-curvature="0" />
        <path
           inkscape:connector-curvature="0"
           id="path2623"
           d="m 339.82245,213.34673 a 2.0529393,2.0529393 0 0 1 -1.50534,1.9761 v 0.81701 a 2.0529393,2.0529393 0 0 0 1.50534,-1.97611 2.0529393,2.0529393 0 0 0 2.0531,2.05259 2.0529393,2.0529393 0 0 0 2.05311,-2.05259 2.0529393,2.0529393 0 0 0 2.05259,2.05259 2.0529393,2.0529393 0 0 0 2.0531,-2.05259 2.0529393,2.0529393 0 0 0 2.0531,2.05259 2.0529393,2.0529393 0 0 0 0.0951,-0.005 c -0.054,-0.0115 -0.0951,-0.0572 -0.0951,-0.11473 v -0.69711 a 2.0529393,2.0529393 0 0 1 -2.0531,-2.0531 2.0529393,2.0529393 0 0 1 -2.0531,2.0531 2.0529393,2.0529393 0 0 1 -2.05259,-2.0531 2.0529393,2.0529393 0 0 1 -2.05311,2.0531 2.0529393,2.0529393 0 0 1 -2.0531,-2.0531 z"
           style="opacity:1;fill:#ffffff;fill-opacity:1;fill-rule:nonzero;stroke:none;stroke-width:1.20776594;stroke-linecap:round;stroke-linejoin:round;stroke-miterlimit:4;stroke-dasharray:none;stroke-opacity:1;paint-order:markers fill stroke" />
      </g>
    </g>
    <g
       id="g5348"
       transform="translate(-0.19069993,1.9232218)">
      <rect
         ry="0"
         y="200.84454"
         x="129.11891"
         height="6.0829487"
         width="9.080801"
         id="rect4859"
         style="opacity:1;fill:#0000ff;fill-opacity:1;fill-rule:nonzero;stroke:none;stroke-width:9.23294926;stroke-linecap:round;stroke-linejoin:round;stroke-miterlimit:4;stroke-dasharray:none;stroke-opacity:1;paint-order:markers fill stroke" />
      <path
         inkscape:connector-curvature="0"
         id="path4861-8"
         d="m 142.95326,162.19762 c -1.81308,0 -3.27272,1.92199 -3.27272,4.31005 v 20.90307 h -0.42955 v 23.25678 h 7.40601 v -23.25678 h -0.43099 v -20.90307 c 0,-2.38806 -1.45964,-4.31005 -3.27275,-4.31005 z"
         style="opacity:1;fill:#0000ff;fill-opacity:1;fill-rule:nonzero;stroke:none;stroke-width:6.96086073;stroke-linecap:round;stroke-linejoin:round;stroke-miterlimit:4;stroke-dasharray:none;stroke-opacity:1;paint-order:markers fill stroke" />
      <circle
         r="2.0166297"
         cy="203.88602"
         cx="142.95396"
         id="circle4863"
         style="opacity:1;fill:#ffffff;fill-opacity:1;fill-rule:nonzero;stroke:none;stroke-width:11.30912018;stroke-linecap:round;stroke-linejoin:round;stroke-miterlimit:4;stroke-dasharray:none;stroke-opacity:1;paint-order:markers fill stroke" />
      <circle
         style="opacity:1;fill:#0000ff;fill-opacity:1;fill-rule:nonzero;stroke:none;stroke-width:8.34279346;stroke-linecap:round;stroke-linejoin:round;stroke-miterlimit:4;stroke-dasharray:none;stroke-opacity:1;paint-order:markers fill stroke"
         id="circle4865"
         cx="142.95396"
         cy="203.88602"
         r="1.4876777" />
    </g>
  </g>
</svg>
