<?xml version="1.0" encoding="UTF-8" standalone="no"?>
<!-- Created with Inkscape (http://www.inkscape.org/) -->

<svg
   xmlns:dc="http://purl.org/dc/elements/1.1/"
   xmlns:cc="http://creativecommons.org/ns#"
   xmlns:rdf="http://www.w3.org/1999/02/22-rdf-syntax-ns#"
   xmlns:svg="http://www.w3.org/2000/svg"
   xmlns="http://www.w3.org/2000/svg"
   xmlns:sodipodi="http://sodipodi.sourceforge.net/DTD/sodipodi-0.dtd"
   xmlns:inkscape="http://www.inkscape.org/namespaces/inkscape"
   width="655"
   height="532"
   viewBox="0 0 173.3021 140.75833"
   version="1.1"
   id="svg8"
   inkscape:version="0.92.2 (5c3e80d, 2017-08-06)"
   sodipodi:docname="SezioneLavaggio.svg">
  <sodipodi:namedview
     id="base"
     pagecolor="#ffffff"
     bordercolor="#666666"
     borderopacity="1.0"
     inkscape:pageopacity="0.0"
     inkscape:pageshadow="2"
     inkscape:zoom="0.70710678"
     inkscape:cx="302.75143"
     inkscape:cy="129.62331"
     inkscape:document-units="mm"
     inkscape:current-layer="layer1"
     showgrid="true"
     units="px"
     inkscape:window-width="1920"
     inkscape:window-height="1003"
     inkscape:window-x="-9"
     inkscape:window-y="-9"
     inkscape:window-maximized="1"
     showguides="true"
     inkscape:guide-bbox="true"
     inkscape:snap-bbox="true"
     inkscape:snap-bbox-edge-midpoints="true"
     inkscape:snap-midpoints="true"
     inkscape:snap-bbox-midpoints="true"
     inkscape:snap-grids="false"
     inkscape:snap-center="true"
     inkscape:snap-object-midpoints="true"
     inkscape:bbox-nodes="true"
     inkscape:bbox-paths="true"
     inkscape:snap-intersection-paths="true"
     inkscape:snap-smooth-nodes="true"
     inkscape:object-nodes="true"
     inkscape:object-paths="true"
     inkscape:snap-to-guides="true"
     inkscape:snap-page="false"
     inkscape:snap-others="true"
     inkscape:snap-global="true">
    <inkscape:grid
       type="xygrid"
       id="grid1756"
       spacingx="28.883682"
       spacingy="12.796214"
       empspacing="1" />
    <sodipodi:guide
       position="57.767368,140.75836"
       orientation="1,0"
       id="guide1758"
       inkscape:locked="false" />
    <sodipodi:guide
       position="115.53473,140.75836"
       orientation="1,0"
       id="guide3733"
       inkscape:locked="false" />
    <sodipodi:guide
       position="28.862164,125.49288"
       orientation="0,1"
       id="guide3739"
       inkscape:locked="false" />
    <sodipodi:guide
       position="28.862166,15.265493"
       orientation="0,1"
       id="guide3741"
       inkscape:locked="false" />
    <sodipodi:guide
       position="157.61413,105.93192"
       orientation="0,1"
       id="guide3820"
       inkscape:locked="false" />
    <sodipodi:guide
       position="147.24064,16.254"
       orientation="0,1"
       id="guide3822"
       inkscape:locked="false" />
  </sodipodi:namedview>
  <defs
     id="defs2" />
  <metadata
     id="metadata5">
    <rdf:RDF>
      <cc:Work
         rdf:about="">
        <dc:format>image/svg+xml</dc:format>
        <dc:type
           rdf:resource="http://purl.org/dc/dcmitype/StillImage" />
        <dc:title></dc:title>
      </cc:Work>
    </rdf:RDF>
  </metadata>
  <g
     inkscape:label="Sezione Lavaggio"
     inkscape:groupmode="layer"
     id="layer1"
     transform="translate(0,-156.24165)">
    <path
       style="opacity:1;fill:#0000ff;fill-opacity:1;fill-rule:nonzero;stroke:none;stroke-width:3.40325284;stroke-linecap:round;stroke-linejoin:round;stroke-miterlimit:4;stroke-dasharray:none;stroke-opacity:1;paint-order:markers fill stroke"
       d="m 18.511692,171.50711 c -2.413643,0.002 -4.356323,4.53814 -4.356323,10.17199 v 49.8197 5.07153 15.55408 3.1626 0.15762 h -0.0037 a 6.7162239,11.51058 0 0 1 -6.7127501,11.35279 4.4022186,7.468654 0 0 0 -0.4395507,0.0372 4.4022186,7.468654 0 0 0 -0.4354017,0.11162 4.4022186,7.468654 0 0 0 -0.4261775,0.18448 4.4022186,7.468654 0 0 0 -0.4132626,0.2558 4.4022186,7.468654 0 0 0 -0.3961983,0.32505 4.4022186,7.468654 0 0 0 -0.3749801,0.39015 4.4022186,7.468654 0 0 0 -0.3505341,0.45217 4.4022186,7.468654 0 0 0 -0.3219384,0.50901 4.4022186,7.468654 0 0 0 -0.2905756,0.56069 4.4022186,7.468654 0 0 0 -0.2555213,0.6072 4.4022186,7.468654 0 0 0 -0.2190859,0.64699 4.4022186,7.468654 0 0 0 -0.1798801,0.68213 4.4022186,7.468654 0 0 0 -0.1388303,0.70797 4.4022186,7.468654 0 0 0 -0.096396,0.72864 4.4022186,7.468654 0 0 0 -0.053042,0.74052 4.4022186,7.468654 0 0 0 -0.011531,0.52865 4.4022186,7.468654 0 0 0 0.021679,0.74621 4.4022186,7.468654 0 0 0 0.065957,0.73794 4.4022186,7.468654 0 0 0 0.1083881,0.72295 4.4022186,7.468654 0 0 0 0.1512848,0.70177 4.4022186,7.468654 0 0 0 0.191409,0.67179 4.4022186,7.468654 0 0 0 0.2296938,0.63665 4.4022186,7.468654 0 0 0 0.2665896,0.59428 4.4022186,7.468654 0 0 0 0.2998019,0.54622 4.4022186,7.468654 0 0 0 0.330702,0.493 4.4022186,7.468654 0 0 0 0.3574534,0.43408 4.4022186,7.468654 0 0 0 0.3818993,0.37155 4.4022186,7.468654 0 0 0 0.4017314,0.30489 4.4022186,7.468654 0 0 0 0.417414,0.23565 4.4022186,7.468654 0 0 0 0.4298661,0.16278 4.4022186,7.468654 0 0 0 0.3676006,0.0765 15.431884,26.447885 0 0 0 0.3805157,0.0326 15.431884,26.447885 0 0 0 15.431389,-26.44748 v -73.60842 c 0,-5.63386 -1.942677,-10.16974 -4.356321,-10.17148 h -4.62e-4 z m 10.350471,0 c -2.414287,0 -4.358166,4.0662 -4.358166,9.11676 v 86.98694 c -0.324666,3.13399 -4.67918,7.24559 -4.679184,9.34 -3e-6,3.59177 4.926573,4.78368 9.03735,4.78368 4.110775,0 8.946027,-1.04101 8.946027,-4.63279 -5e-6,-2.16107 -4.550103,-6.65317 -4.565721,-9.80612 -0.0011,-0.21156 -0.0101,-0.40509 -0.0226,-0.58963 v -86.08208 c 0,-5.05056 -1.943399,-9.11676 -4.357706,-9.11676 z m 10.350012,0 c -2.414293,0 -4.357706,4.53654 -4.357706,10.17148 v 73.60842 a 15.431884,26.447885 0 0 0 15.43139,26.44748 15.431884,26.447885 0 0 0 0.380513,-0.0326 4.4022186,7.468654 0 0 0 0.367602,-0.0765 4.4022186,7.468654 0 0 0 0.429867,-0.16278 4.4022186,7.468654 0 0 0 0.417413,-0.23565 4.4022186,7.468654 0 0 0 0.401731,-0.30489 4.4022186,7.468654 0 0 0 0.3819,-0.37155 4.4022186,7.468654 0 0 0 0.357454,-0.43408 4.4022186,7.468654 0 0 0 0.330702,-0.493 4.4022186,7.468654 0 0 0 0.299799,-0.54622 4.4022186,7.468654 0 0 0 0.266592,-0.59428 4.4022186,7.468654 0 0 0 0.229692,-0.63665 4.4022186,7.468654 0 0 0 0.191871,-0.67179 4.4022186,7.468654 0 0 0 0.150822,-0.70177 4.4022186,7.468654 0 0 0 0.108391,-0.72295 4.4022186,7.468654 0 0 0 0.06596,-0.73846 4.4022186,7.468654 0 0 0 0.02215,-0.74569 4.4022186,7.468654 0 0 0 -0.01107,-0.52865 4.4022186,7.468654 0 0 0 -0.05304,-0.74052 4.4022186,7.468654 0 0 0 -0.0964,-0.72864 4.4022186,7.468654 0 0 0 -0.138829,-0.70797 4.4022186,7.468654 0 0 0 -0.179882,-0.68213 4.4022186,7.468654 0 0 0 -0.219085,-0.6475 4.4022186,7.468654 0 0 0 -0.255521,-0.60669 4.4022186,7.468654 0 0 0 -0.290576,-0.56069 4.4022186,7.468654 0 0 0 -0.321939,-0.50901 4.4022186,7.468654 0 0 0 -0.350534,-0.45217 4.4022186,7.468654 0 0 0 -0.37498,-0.39015 4.4022186,7.468654 0 0 0 -0.396198,-0.32505 4.4022186,7.468654 0 0 0 -0.413262,-0.2558 4.4022186,7.468654 0 0 0 -0.426176,-0.18448 4.4022186,7.468654 0 0 0 -0.435404,-0.11214 4.4022186,7.468654 0 0 0 -0.43955,-0.0367 6.7162239,11.51058 0 0 1 -6.712749,-11.35279 h -0.0032 v -0.15762 -3.1626 -15.55408 -5.07153 -49.8197 c 0,-5.63494 -1.943412,-10.17199 -4.357705,-10.17199 z"
       id="path1922"
       inkscape:connector-curvature="0"
       inkscape:label="Acqua" />
    <path
       style="opacity:1;fill:#0000ff;fill-opacity:1;fill-rule:nonzero;stroke:none;stroke-width:13.27583122;stroke-linecap:round;stroke-linejoin:round;stroke-miterlimit:4;stroke-dasharray:none;stroke-opacity:1;paint-order:markers fill stroke"
       d="m 263.33008,57.695312 a 21.389912,21.389912 0 0 1 -21.39063,21.390626 21.389912,21.389912 0 0 1 -2.39257,-0.160157 V 474.30273 H 415.45312 V 78.939453 A 21.389912,21.389912 0 0 1 413.06055,79.085938 21.389912,21.389912 0 0 1 391.66992,57.695312 21.389912,21.389912 0 0 1 370.2793,79.085938 21.389912,21.389912 0 0 1 348.89062,57.695312 21.389912,21.389912 0 0 1 327.5,79.085938 21.389912,21.389912 0 0 1 306.10938,57.695312 21.389912,21.389912 0 0 1 284.7207,79.085938 21.389912,21.389912 0 0 1 263.33008,57.695312 Z"
       id="rect3737"
       inkscape:connector-curvature="0"
       transform="matrix(0.26458333,0,0,0.26458333,0,156.24165)" />
    <path
       style="opacity:1;fill:#ff00ff;fill-opacity:1;fill-rule:nonzero;stroke:none;stroke-width:4;stroke-linecap:round;stroke-linejoin:round;stroke-miterlimit:4;stroke-dasharray:none;stroke-opacity:1;paint-order:markers fill stroke"
       d="m 81.77261,327.30416 a 10.186458,10.186458 0 0 0 7.202917,12.47581 10.186458,10.186458 0 0 0 12.475813,-7.20291 10.186458,10.186458 0 0 0 -7.20292,-12.47581 10.186458,10.186458 0 0 0 -12.47581,7.20291 z m 2.224584,-0.2139 a 8.7463949,8.7463949 0 0 1 10.712406,-6.18439 8.7463949,8.7463949 0 0 1 6.18451,10.71191 8.7463949,8.7463949 0 0 1 -10.712029,6.18501 8.7463949,8.7463949 0 0 1 -6.184887,-10.71253 z"
       id="path3763"
       inkscape:connector-curvature="0" />
    <path
       inkscape:connector-curvature="0"
       id="path3772"
       d="m 62.925657,349.01708 a 4.4979152,4.4979152 0 0 0 3.18051,5.5088 4.4979152,4.4979152 0 0 0 5.5088,-3.1805 4.4979152,4.4979152 0 0 0 -3.18051,-5.5088 4.4979152,4.4979152 0 0 0 -5.5088,3.1805 z m 0.98228,-0.0944 a 3.8620434,3.8620434 0 0 1 4.73016,-2.73076 3.8620434,3.8620434 0 0 1 2.73082,4.72993 3.8620434,3.8620434 0 0 1 -4.72999,2.73104 3.8620434,3.8620434 0 0 1 -2.73099,-4.73021 z"
       style="opacity:1;fill:#ff00ff;fill-opacity:1;fill-rule:nonzero;stroke:none;stroke-width:1.76623321;stroke-linecap:round;stroke-linejoin:round;stroke-miterlimit:4;stroke-dasharray:none;stroke-opacity:1;paint-order:markers fill stroke" />
    <circle
       style="opacity:1;fill:#ffffff;fill-opacity:1;fill-rule:nonzero;stroke:none;stroke-width:6.25352144;stroke-linecap:round;stroke-linejoin:round;stroke-miterlimit:4;stroke-dasharray:none;stroke-opacity:1;paint-order:markers fill stroke"
       id="path3774"
       cx="81.293236"
       cy="256.84946"
       r="7.3421874" />
    <circle
       r="4.4317708"
       cy="226.28296"
       cx="93.295784"
       id="circle3776"
       style="opacity:1;fill:#ffffff;fill-opacity:1;fill-rule:nonzero;stroke:none;stroke-width:3.77464795;stroke-linecap:round;stroke-linejoin:round;stroke-miterlimit:4;stroke-dasharray:none;stroke-opacity:1;paint-order:markers fill stroke" />
    <circle
       style="opacity:1;fill:#ffffff;fill-opacity:1;fill-rule:nonzero;stroke:none;stroke-width:2.64788747;stroke-linecap:round;stroke-linejoin:round;stroke-miterlimit:4;stroke-dasharray:none;stroke-opacity:1;paint-order:markers fill stroke"
       id="circle3778"
       cx="79.486549"
       cy="211.2659"
       r="3.1088541" />
    <circle
       r="1.5213541"
       cy="202.47757"
       cx="96.109901"
       id="circle3780"
       style="opacity:1;fill:#ffffff;fill-opacity:1;fill-rule:nonzero;stroke:none;stroke-width:1.2957747;stroke-linecap:round;stroke-linejoin:round;stroke-miterlimit:4;stroke-dasharray:none;stroke-opacity:1;paint-order:markers fill stroke" />
    <circle
       style="opacity:1;fill:#ffffff;fill-opacity:1;fill-rule:nonzero;stroke:none;stroke-width:1.2957747;stroke-linecap:round;stroke-linejoin:round;stroke-miterlimit:4;stroke-dasharray:none;stroke-opacity:1;paint-order:markers fill stroke"
       id="circle3784"
       cx="101.02511"
       cy="249.28023"
       r="1.5213541" />
    <circle
       r="1.0536324"
       cy="184.26691"
       cx="98.592957"
       id="circle3788"
       style="opacity:1;fill:#ffffff;fill-opacity:1;fill-rule:nonzero;stroke:none;stroke-width:0.89740467;stroke-linecap:round;stroke-linejoin:round;stroke-miterlimit:4;stroke-dasharray:none;stroke-opacity:1;paint-order:markers fill stroke" />
    <circle
       style="opacity:1;fill:#ffffff;fill-opacity:1;fill-rule:nonzero;stroke:none;stroke-width:1.2957747;stroke-linecap:round;stroke-linejoin:round;stroke-miterlimit:4;stroke-dasharray:none;stroke-opacity:1;paint-order:markers fill stroke"
       id="circle3790"
       cx="74.645607"
       cy="235.99693"
       r="1.5213541" />
    <circle
       r="1.0536324"
       cy="184.54753"
       cx="72.868263"
       id="circle3792"
       style="opacity:1;fill:#ffffff;fill-opacity:1;fill-rule:nonzero;stroke:none;stroke-width:0.89740467;stroke-linecap:round;stroke-linejoin:round;stroke-miterlimit:4;stroke-dasharray:none;stroke-opacity:1;paint-order:markers fill stroke" />
    <circle
       r="2.3604994"
       cy="193.86665"
       cx="88.37326"
       id="circle3794"
       style="opacity:1;fill:#ffffff;fill-opacity:1;fill-rule:nonzero;stroke:none;stroke-width:2.01049542;stroke-linecap:round;stroke-linejoin:round;stroke-miterlimit:4;stroke-dasharray:none;stroke-opacity:1;paint-order:markers fill stroke" />
    <rect
       style="opacity:1;fill:#0000ff;fill-opacity:1;fill-rule:nonzero;stroke:none;stroke-width:3.97255421;stroke-linecap:round;stroke-linejoin:round;stroke-miterlimit:4;stroke-dasharray:none;stroke-opacity:1;paint-order:markers fill stroke"
       id="rect3796"
       width="24.882793"
       height="16.607708"
       x="118.27873"
       y="245.87073"
       ry="3.1370115" />
    <rect
       ry="3.1370115"
       y="264.13828"
       x="118.27873"
       height="16.607708"
       width="24.882793"
       id="rect3798"
       style="opacity:1;fill:#0000ff;fill-opacity:1;fill-rule:nonzero;stroke:none;stroke-width:3.97255421;stroke-linecap:round;stroke-linejoin:round;stroke-miterlimit:4;stroke-dasharray:none;stroke-opacity:1;paint-order:markers fill stroke" />
    <rect
       style="opacity:1;fill:#0000ff;fill-opacity:1;fill-rule:nonzero;stroke:none;stroke-width:3.97255421;stroke-linecap:round;stroke-linejoin:round;stroke-miterlimit:4;stroke-dasharray:none;stroke-opacity:1;paint-order:markers fill stroke"
       id="rect3800"
       width="24.882793"
       height="16.607708"
       x="145.17273"
       y="264.13828"
       ry="3.1370115" />
    <rect
       style="opacity:1;fill:#0000ff;fill-opacity:1;fill-rule:nonzero;stroke:none;stroke-width:3.97255421;stroke-linecap:round;stroke-linejoin:round;stroke-miterlimit:4;stroke-dasharray:none;stroke-opacity:1;paint-order:markers fill stroke"
       id="rect3802"
       width="24.882793"
       height="16.607708"
       x="118.27873"
       y="227.60316"
       ry="3.1370115" />
    <rect
       ry="3.1370115"
       y="209.33562"
       x="118.27873"
       height="16.607708"
       width="24.882793"
       id="rect3804"
       style="opacity:1;fill:#0000ff;fill-opacity:1;fill-rule:nonzero;stroke:none;stroke-width:3.97255421;stroke-linecap:round;stroke-linejoin:round;stroke-miterlimit:4;stroke-dasharray:none;stroke-opacity:1;paint-order:markers fill stroke" />
    <rect
       style="opacity:1;fill:#0000ff;fill-opacity:1;fill-rule:nonzero;stroke:none;stroke-width:3.97255421;stroke-linecap:round;stroke-linejoin:round;stroke-miterlimit:4;stroke-dasharray:none;stroke-opacity:1;paint-order:markers fill stroke"
       id="rect3806"
       width="24.882793"
       height="16.607708"
       x="118.27873"
       y="191.06807"
       ry="3.1370115" />
    <rect
       ry="3.1370115"
       y="245.87073"
       x="145.17273"
       height="16.607708"
       width="24.882793"
       id="rect3808"
       style="opacity:1;fill:#0000ff;fill-opacity:1;fill-rule:nonzero;stroke:none;stroke-width:3.97255421;stroke-linecap:round;stroke-linejoin:round;stroke-miterlimit:4;stroke-dasharray:none;stroke-opacity:1;paint-order:markers fill stroke" />
    <rect
       style="opacity:1;fill:#0000ff;fill-opacity:1;fill-rule:nonzero;stroke:none;stroke-width:3.97255421;stroke-linecap:round;stroke-linejoin:round;stroke-miterlimit:4;stroke-dasharray:none;stroke-opacity:1;paint-order:markers fill stroke"
       id="rect3810"
       width="24.882793"
       height="16.607708"
       x="145.17273"
       y="227.60318"
       ry="3.1370115" />
    <rect
       ry="3.1370115"
       y="209.33562"
       x="145.17273"
       height="16.607708"
       width="24.882793"
       id="rect3812"
       style="opacity:1;fill:#0000ff;fill-opacity:1;fill-rule:nonzero;stroke:none;stroke-width:3.97255421;stroke-linecap:round;stroke-linejoin:round;stroke-miterlimit:4;stroke-dasharray:none;stroke-opacity:1;paint-order:markers fill stroke" />
    <rect
       style="opacity:1;fill:#0000ff;fill-opacity:1;fill-rule:nonzero;stroke:none;stroke-width:3.97255421;stroke-linecap:round;stroke-linejoin:round;stroke-miterlimit:4;stroke-dasharray:none;stroke-opacity:1;paint-order:markers fill stroke"
       id="rect3814"
       width="24.882793"
       height="16.607708"
       x="145.17273"
       y="191.06807"
       ry="3.1370115" />
    <rect
       ry="3.1370115"
       y="172.80052"
       x="145.17273"
       height="16.607708"
       width="24.882793"
       id="rect3816"
       style="opacity:1;fill:#0000ff;fill-opacity:1;fill-rule:nonzero;stroke:none;stroke-width:3.97255421;stroke-linecap:round;stroke-linejoin:round;stroke-miterlimit:4;stroke-dasharray:none;stroke-opacity:1;paint-order:markers fill stroke" />
    <rect
       ry="2.50091"
       y="247.55452"
       x="147.69551"
       height="13.240112"
       width="19.837233"
       id="rect3824"
       style="opacity:1;fill:#ffffff;fill-opacity:1;fill-rule:nonzero;stroke:none;stroke-width:3.16702724;stroke-linecap:round;stroke-linejoin:round;stroke-miterlimit:4;stroke-dasharray:none;stroke-opacity:1;paint-order:markers fill stroke" />
    <rect
       style="opacity:1;fill:#ffffff;fill-opacity:1;fill-rule:nonzero;stroke:none;stroke-width:3.16702724;stroke-linecap:round;stroke-linejoin:round;stroke-miterlimit:4;stroke-dasharray:none;stroke-opacity:1;paint-order:markers fill stroke"
       id="rect3826"
       width="19.837233"
       height="13.240112"
       x="120.80151"
       y="211.01941"
       ry="2.50091" />
  </g>
</svg>
