<?xml version="1.0" encoding="UTF-8" standalone="no"?>
<!-- Created with Inkscape (http://www.inkscape.org/) -->

<svg
   xmlns:dc="http://purl.org/dc/elements/1.1/"
   xmlns:cc="http://creativecommons.org/ns#"
   xmlns:rdf="http://www.w3.org/1999/02/22-rdf-syntax-ns#"
   xmlns:svg="http://www.w3.org/2000/svg"
   xmlns="http://www.w3.org/2000/svg"
   xmlns:sodipodi="http://sodipodi.sourceforge.net/DTD/sodipodi-0.dtd"
   xmlns:inkscape="http://www.inkscape.org/namespaces/inkscape"
   width="655"
   height="532"
   viewBox="0 0 173.3021 140.75833"
   version="1.1"
   id="svg8"
   inkscape:version="0.92.2 (5c3e80d, 2017-08-06)"
   sodipodi:docname="SezioneStoccaggioL.svg"
   enable-background="new">
  <sodipodi:namedview
     id="base"
     pagecolor="#ffffff"
     bordercolor="#666666"
     borderopacity="1.0"
     inkscape:pageopacity="0.0"
     inkscape:pageshadow="2"
     inkscape:zoom="0.35355339"
     inkscape:cx="738.68406"
     inkscape:cy="55.855231"
     inkscape:document-units="mm"
     inkscape:current-layer="layer1"
     showgrid="true"
     units="px"
     inkscape:window-width="1920"
     inkscape:window-height="1003"
     inkscape:window-x="-9"
     inkscape:window-y="-9"
     inkscape:window-maximized="1"
     showguides="true"
     inkscape:guide-bbox="true"
     inkscape:snap-bbox="true"
     inkscape:snap-bbox-edge-midpoints="true"
     inkscape:snap-midpoints="true"
     inkscape:snap-bbox-midpoints="true"
     inkscape:snap-grids="false"
     inkscape:snap-center="true"
     inkscape:snap-object-midpoints="true"
     inkscape:bbox-nodes="true"
     inkscape:bbox-paths="true"
     inkscape:snap-intersection-paths="true"
     inkscape:snap-smooth-nodes="true"
     inkscape:object-nodes="true"
     inkscape:object-paths="true"
     inkscape:snap-to-guides="true"
     inkscape:snap-page="false"
     inkscape:snap-others="true"
     inkscape:snap-global="true"
     inkscape:measure-start="0,0"
     inkscape:measure-end="0,0">
    <inkscape:grid
       type="xygrid"
       id="grid1756"
       spacingx="28.883682"
       spacingy="12.796214"
       empspacing="1" />
    <sodipodi:guide
       position="86.651049,153.55457"
       orientation="1,0"
       id="guide3733"
       inkscape:locked="false" />
    <sodipodi:guide
       position="-252.10351,16.204667"
       orientation="1,0"
       id="guide4174"
       inkscape:locked="false" />
    <sodipodi:guide
       position="-110.58353,48.08179"
       orientation="1,0"
       id="guide4176"
       inkscape:locked="false" />
    <sodipodi:guide
       position="-310.92954,118.20855"
       orientation="1,0"
       id="guide4207"
       inkscape:locked="false" />
    <sodipodi:guide
       position="86.645443,124.64198"
       orientation="0,1"
       id="guide7233"
       inkscape:locked="false" />
    <sodipodi:guide
       position="86.65105,16.10651"
       orientation="0,1"
       id="guide7235"
       inkscape:locked="false" />
    <sodipodi:guide
       position="0,51.184858"
       orientation="0,1"
       id="guide1656"
       inkscape:locked="false" />
    <sodipodi:guide
       position="10.779695,63.764586"
       orientation="1,0"
       id="guide2091"
       inkscape:locked="false" />
    <sodipodi:guide
       position="162.5224,86.972468"
       orientation="1,0"
       id="guide2093"
       inkscape:locked="false" />
  </sodipodi:namedview>
  <defs
     id="defs2" />
  <metadata
     id="metadata5">
    <rdf:RDF>
      <cc:Work
         rdf:about="">
        <dc:format>image/svg+xml</dc:format>
        <dc:type
           rdf:resource="http://purl.org/dc/dcmitype/StillImage" />
        <dc:title />
      </cc:Work>
    </rdf:RDF>
  </metadata>
  <g
     inkscape:label="Sezione Lavaggio"
     inkscape:groupmode="layer"
     id="layer1"
     transform="translate(0,-156.24165)">
    <g
       id="g2447"
       transform="matrix(1.3979741,0,0,1.3979741,-94.063726,-56.552385)">
      <g
         id="g2369">
        <path
           inkscape:connector-curvature="0"
           id="path2363"
           d="m 129.25655,207.4387 c -0.48328,10e-6 -0.91707,0.20146 -1.22518,0.52394 l -0.002,-6e-4 -4.2875,3.80912 c -0.0322,0.0261 -0.0628,0.0541 -0.093,0.0825 l -0.032,0.0283 v 3.2e-4 c -0.31034,0.30677 -0.50239,0.7326 -0.50239,1.20547 v 4.23393 c 0,0.93865 0.75566,1.69431 1.69431,1.69431 h 13.81706 c 0.38481,0 0.73754,-0.12838 1.02138,-0.34293 l 0.002,0.001 0.0169,-0.0151 c 0.0606,-0.0471 0.11823,-0.0976 0.17178,-0.15238 l 4.33151,-3.84605 -0.001,-3.2e-4 c 0.36604,-0.31031 0.59812,-0.77355 0.59812,-1.2932 v -4.23393 c 0,-0.93865 -0.75566,-1.69431 -1.69431,-1.69431 z"
           style="opacity:1;fill:#0000ff;fill-opacity:1;fill-rule:nonzero;stroke:none;stroke-width:2.38276839;stroke-linecap:round;stroke-linejoin:round;stroke-miterlimit:4;stroke-dasharray:none;stroke-opacity:1;paint-order:markers fill stroke" />
        <rect
           style="opacity:1;fill:#ffffff;fill-opacity:1;fill-rule:nonzero;stroke:none;stroke-width:2.19456983;stroke-linecap:round;stroke-linejoin:round;stroke-miterlimit:4;stroke-dasharray:none;stroke-opacity:1;paint-order:markers fill stroke"
           id="rect2365"
           width="16.127882"
           height="6.8981967"
           x="123.65445"
           y="211.75571"
           ry="1.5332925" />
        <rect
           ry="1.4094331"
           y="212.03433"
           x="123.91579"
           height="6.340961"
           width="15.605203"
           id="rect2367"
           style="opacity:1;fill:#0000ff;fill-opacity:1;fill-rule:nonzero;stroke:none;stroke-width:2.06968951;stroke-linecap:round;stroke-linejoin:round;stroke-miterlimit:4;stroke-dasharray:none;stroke-opacity:1;paint-order:markers fill stroke" />
      </g>
      <g
         transform="translate(-0.467722)"
         id="g2375">
        <path
           style="opacity:1;fill:#0000ff;fill-opacity:1;fill-rule:nonzero;stroke:none;stroke-width:2.38276839;stroke-linecap:round;stroke-linejoin:round;stroke-miterlimit:4;stroke-dasharray:none;stroke-opacity:1;paint-order:markers fill stroke"
           d="m 146.69805,207.4387 c -0.48329,0 -0.91708,0.20146 -1.22519,0.52394 l -0.002,-6e-4 -4.2875,3.80912 c -0.0322,0.0261 -0.0628,0.0541 -0.093,0.0825 l -0.032,0.0283 v 3.2e-4 c -0.31034,0.30677 -0.50238,0.7326 -0.50238,1.20547 v 4.23393 c 0,0.93864 0.75566,1.69431 1.69431,1.69431 h 13.81705 c 0.38481,0 0.73755,-0.12838 1.02139,-0.34293 l 0.002,0.001 0.0169,-0.0151 c 0.0606,-0.0471 0.11823,-0.0976 0.17178,-0.15238 l 4.33151,-3.84605 -0.001,-3.2e-4 c 0.36603,-0.31031 0.59812,-0.77355 0.59812,-1.29321 v -4.23392 c 0,-0.93865 -0.75567,-1.69431 -1.69432,-1.69431 z"
           id="path2371"
           inkscape:connector-curvature="0" />
        <rect
           ry="1.5332925"
           y="211.75571"
           x="141.09595"
           height="6.8981967"
           width="16.127882"
           id="rect2373"
           style="opacity:1;fill:#ffffff;fill-opacity:1;fill-rule:nonzero;stroke:none;stroke-width:2.19456983;stroke-linecap:round;stroke-linejoin:round;stroke-miterlimit:4;stroke-dasharray:none;stroke-opacity:1;paint-order:markers fill stroke" />
      </g>
      <g
         transform="translate(0,-8.4189859)"
         id="g2383">
        <path
           style="opacity:1;fill:#0000ff;fill-opacity:1;fill-rule:nonzero;stroke:none;stroke-width:2.38276839;stroke-linecap:round;stroke-linejoin:round;stroke-miterlimit:4;stroke-dasharray:none;stroke-opacity:1;paint-order:markers fill stroke"
           d="m 129.25655,207.4387 c -0.48328,10e-6 -0.91707,0.20146 -1.22518,0.52394 l -0.002,-6e-4 -4.2875,3.80912 c -0.0322,0.0261 -0.0628,0.0541 -0.093,0.0825 l -0.032,0.0283 v 3.2e-4 c -0.31034,0.30677 -0.50239,0.7326 -0.50239,1.20547 v 4.23393 c 0,0.93865 0.75566,1.69431 1.69431,1.69431 h 13.81706 c 0.38481,0 0.73754,-0.12838 1.02138,-0.34293 l 0.002,0.001 0.0169,-0.0151 c 0.0606,-0.0471 0.11823,-0.0976 0.17178,-0.15238 l 4.33151,-3.84605 -0.001,-3.2e-4 c 0.36604,-0.31031 0.59812,-0.77355 0.59812,-1.2932 v -4.23393 c 0,-0.93865 -0.75566,-1.69431 -1.69431,-1.69431 z"
           id="path2377"
           inkscape:connector-curvature="0" />
        <rect
           ry="1.5332925"
           y="211.75571"
           x="123.65445"
           height="6.8981967"
           width="16.127882"
           id="rect2379"
           style="opacity:1;fill:#ffffff;fill-opacity:1;fill-rule:nonzero;stroke:none;stroke-width:2.19456983;stroke-linecap:round;stroke-linejoin:round;stroke-miterlimit:4;stroke-dasharray:none;stroke-opacity:1;paint-order:markers fill stroke" />
        <rect
           style="opacity:1;fill:#0000ff;fill-opacity:1;fill-rule:nonzero;stroke:none;stroke-width:2.06968951;stroke-linecap:round;stroke-linejoin:round;stroke-miterlimit:4;stroke-dasharray:none;stroke-opacity:1;paint-order:markers fill stroke"
           id="rect2381"
           width="15.605203"
           height="6.340961"
           x="123.91579"
           y="212.03433"
           ry="1.4094331" />
      </g>
      <g
         id="g2391"
         transform="translate(16.973778,-8.4189859)">
        <path
           inkscape:connector-curvature="0"
           id="path2385"
           d="m 129.25655,207.4387 c -0.48328,10e-6 -0.91707,0.20146 -1.22518,0.52394 l -0.002,-6e-4 -4.2875,3.80912 c -0.0322,0.0261 -0.0628,0.0541 -0.093,0.0825 l -0.032,0.0283 v 3.2e-4 c -0.31034,0.30677 -0.50239,0.7326 -0.50239,1.20547 v 4.23393 c 0,0.93865 0.75566,1.69431 1.69431,1.69431 h 13.81706 c 0.38481,0 0.73754,-0.12838 1.02138,-0.34293 l 0.002,0.001 0.0169,-0.0151 c 0.0606,-0.0471 0.11823,-0.0976 0.17178,-0.15238 l 4.33151,-3.84605 -0.001,-3.2e-4 c 0.36604,-0.31031 0.59812,-0.77355 0.59812,-1.2932 v -4.23393 c 0,-0.93865 -0.75566,-1.69431 -1.69431,-1.69431 z"
           style="opacity:1;fill:#0000ff;fill-opacity:1;fill-rule:nonzero;stroke:none;stroke-width:2.38276839;stroke-linecap:round;stroke-linejoin:round;stroke-miterlimit:4;stroke-dasharray:none;stroke-opacity:1;paint-order:markers fill stroke" />
        <rect
           style="opacity:1;fill:#ffffff;fill-opacity:1;fill-rule:nonzero;stroke:none;stroke-width:2.19456983;stroke-linecap:round;stroke-linejoin:round;stroke-miterlimit:4;stroke-dasharray:none;stroke-opacity:1;paint-order:markers fill stroke"
           id="rect2387"
           width="16.127882"
           height="6.8981967"
           x="123.65445"
           y="211.75571"
           ry="1.5332925" />
        <rect
           ry="1.4094331"
           y="212.03433"
           x="123.91579"
           height="6.340961"
           width="15.605203"
           id="rect2389"
           style="opacity:1;fill:#0000ff;fill-opacity:1;fill-rule:nonzero;stroke:none;stroke-width:2.06968951;stroke-linecap:round;stroke-linejoin:round;stroke-miterlimit:4;stroke-dasharray:none;stroke-opacity:1;paint-order:markers fill stroke" />
      </g>
      <g
         id="g2399"
         transform="translate(0,-16.837988)">
        <path
           inkscape:connector-curvature="0"
           id="path2393"
           d="m 129.25655,207.4387 c -0.48328,10e-6 -0.91707,0.20146 -1.22518,0.52394 l -0.002,-6e-4 -4.2875,3.80912 c -0.0322,0.0261 -0.0628,0.0541 -0.093,0.0825 l -0.032,0.0283 v 3.2e-4 c -0.31034,0.30677 -0.50239,0.7326 -0.50239,1.20547 v 4.23393 c 0,0.93865 0.75566,1.69431 1.69431,1.69431 h 13.81706 c 0.38481,0 0.73754,-0.12838 1.02138,-0.34293 l 0.002,0.001 0.0169,-0.0151 c 0.0606,-0.0471 0.11823,-0.0976 0.17178,-0.15238 l 4.33151,-3.84605 -0.001,-3.2e-4 c 0.36604,-0.31031 0.59812,-0.77355 0.59812,-1.2932 v -4.23393 c 0,-0.93865 -0.75566,-1.69431 -1.69431,-1.69431 z"
           style="opacity:1;fill:#0000ff;fill-opacity:1;fill-rule:nonzero;stroke:none;stroke-width:2.38276839;stroke-linecap:round;stroke-linejoin:round;stroke-miterlimit:4;stroke-dasharray:none;stroke-opacity:1;paint-order:markers fill stroke" />
        <rect
           style="opacity:1;fill:#ffffff;fill-opacity:1;fill-rule:nonzero;stroke:none;stroke-width:2.19456983;stroke-linecap:round;stroke-linejoin:round;stroke-miterlimit:4;stroke-dasharray:none;stroke-opacity:1;paint-order:markers fill stroke"
           id="rect2395"
           width="16.127882"
           height="6.8981967"
           x="123.65445"
           y="211.75571"
           ry="1.5332925" />
        <rect
           ry="1.4094331"
           y="212.03433"
           x="123.91579"
           height="6.340961"
           width="15.605203"
           id="rect2397"
           style="opacity:1;fill:#0000ff;fill-opacity:1;fill-rule:nonzero;stroke:none;stroke-width:2.06968951;stroke-linecap:round;stroke-linejoin:round;stroke-miterlimit:4;stroke-dasharray:none;stroke-opacity:1;paint-order:markers fill stroke" />
      </g>
      <g
         transform="translate(16.973778,-16.837988)"
         id="g2407">
        <path
           style="opacity:1;fill:#0000ff;fill-opacity:1;fill-rule:nonzero;stroke:none;stroke-width:2.38276839;stroke-linecap:round;stroke-linejoin:round;stroke-miterlimit:4;stroke-dasharray:none;stroke-opacity:1;paint-order:markers fill stroke"
           d="m 129.25655,207.4387 c -0.48328,10e-6 -0.91707,0.20146 -1.22518,0.52394 l -0.002,-6e-4 -4.2875,3.80912 c -0.0322,0.0261 -0.0628,0.0541 -0.093,0.0825 l -0.032,0.0283 v 3.2e-4 c -0.31034,0.30677 -0.50239,0.7326 -0.50239,1.20547 v 4.23393 c 0,0.93865 0.75566,1.69431 1.69431,1.69431 h 13.81706 c 0.38481,0 0.73754,-0.12838 1.02138,-0.34293 l 0.002,0.001 0.0169,-0.0151 c 0.0606,-0.0471 0.11823,-0.0976 0.17178,-0.15238 l 4.33151,-3.84605 -0.001,-3.2e-4 c 0.36604,-0.31031 0.59812,-0.77355 0.59812,-1.2932 v -4.23393 c 0,-0.93865 -0.75566,-1.69431 -1.69431,-1.69431 z"
           id="path2401"
           inkscape:connector-curvature="0" />
        <rect
           ry="1.5332925"
           y="211.75571"
           x="123.65445"
           height="6.8981967"
           width="16.127882"
           id="rect2403"
           style="opacity:1;fill:#ffffff;fill-opacity:1;fill-rule:nonzero;stroke:none;stroke-width:2.19456983;stroke-linecap:round;stroke-linejoin:round;stroke-miterlimit:4;stroke-dasharray:none;stroke-opacity:1;paint-order:markers fill stroke" />
        <rect
           style="opacity:1;fill:#0000ff;fill-opacity:1;fill-rule:nonzero;stroke:none;stroke-width:2.06968951;stroke-linecap:round;stroke-linejoin:round;stroke-miterlimit:4;stroke-dasharray:none;stroke-opacity:1;paint-order:markers fill stroke"
           id="rect2405"
           width="15.605203"
           height="6.340961"
           x="123.91579"
           y="212.03433"
           ry="1.4094331" />
      </g>
      <g
         transform="translate(-17.4415,-25.25697)"
         id="g2413">
        <path
           inkscape:connector-curvature="0"
           id="path2409"
           d="m 146.69805,207.4387 c -0.48329,0 -0.91708,0.20146 -1.22519,0.52394 l -0.002,-6e-4 -4.2875,3.80912 c -0.0322,0.0261 -0.0628,0.0541 -0.093,0.0825 l -0.032,0.0283 v 3.2e-4 c -0.31034,0.30677 -0.50238,0.7326 -0.50238,1.20547 v 4.23393 c 0,0.93864 0.75566,1.69431 1.69431,1.69431 h 13.81705 c 0.38481,0 0.73755,-0.12838 1.02139,-0.34293 l 0.002,0.001 0.0169,-0.0151 c 0.0606,-0.0471 0.11823,-0.0976 0.17178,-0.15238 l 4.33151,-3.84605 -0.001,-3.2e-4 c 0.36603,-0.31031 0.59812,-0.77355 0.59812,-1.29321 v -4.23392 c 0,-0.93865 -0.75567,-1.69431 -1.69432,-1.69431 z"
           style="opacity:1;fill:#0000ff;fill-opacity:1;fill-rule:nonzero;stroke:none;stroke-width:2.38276839;stroke-linecap:round;stroke-linejoin:round;stroke-miterlimit:4;stroke-dasharray:none;stroke-opacity:1;paint-order:markers fill stroke" />
        <rect
           style="opacity:1;fill:#ffffff;fill-opacity:1;fill-rule:nonzero;stroke:none;stroke-width:2.19456983;stroke-linecap:round;stroke-linejoin:round;stroke-miterlimit:4;stroke-dasharray:none;stroke-opacity:1;paint-order:markers fill stroke"
           id="rect2411"
           width="16.127882"
           height="6.8981967"
           x="141.09595"
           y="211.75571"
           ry="1.5332925" />
      </g>
      <g
         id="g2421"
         transform="translate(16.973778,-25.25697)">
        <path
           inkscape:connector-curvature="0"
           id="path2415"
           d="m 129.25655,207.4387 c -0.48328,10e-6 -0.91707,0.20146 -1.22518,0.52394 l -0.002,-6e-4 -4.2875,3.80912 c -0.0322,0.0261 -0.0628,0.0541 -0.093,0.0825 l -0.032,0.0283 v 3.2e-4 c -0.31034,0.30677 -0.50239,0.7326 -0.50239,1.20547 v 4.23393 c 0,0.93865 0.75566,1.69431 1.69431,1.69431 h 13.81706 c 0.38481,0 0.73754,-0.12838 1.02138,-0.34293 l 0.002,0.001 0.0169,-0.0151 c 0.0606,-0.0471 0.11823,-0.0976 0.17178,-0.15238 l 4.33151,-3.84605 -0.001,-3.2e-4 c 0.36604,-0.31031 0.59812,-0.77355 0.59812,-1.2932 v -4.23393 c 0,-0.93865 -0.75566,-1.69431 -1.69431,-1.69431 z"
           style="opacity:1;fill:#0000ff;fill-opacity:1;fill-rule:nonzero;stroke:none;stroke-width:2.38276839;stroke-linecap:round;stroke-linejoin:round;stroke-miterlimit:4;stroke-dasharray:none;stroke-opacity:1;paint-order:markers fill stroke" />
        <rect
           style="opacity:1;fill:#ffffff;fill-opacity:1;fill-rule:nonzero;stroke:none;stroke-width:2.19456983;stroke-linecap:round;stroke-linejoin:round;stroke-miterlimit:4;stroke-dasharray:none;stroke-opacity:1;paint-order:markers fill stroke"
           id="rect2417"
           width="16.127882"
           height="6.8981967"
           x="123.65445"
           y="211.75571"
           ry="1.5332925" />
        <rect
           ry="1.4094331"
           y="212.03433"
           x="123.91579"
           height="6.340961"
           width="15.605203"
           id="rect2419"
           style="opacity:1;fill:#0000ff;fill-opacity:1;fill-rule:nonzero;stroke:none;stroke-width:2.06968951;stroke-linecap:round;stroke-linejoin:round;stroke-miterlimit:4;stroke-dasharray:none;stroke-opacity:1;paint-order:markers fill stroke" />
      </g>
      <g
         transform="translate(0,-33.67596)"
         id="g2429">
        <path
           style="opacity:1;fill:#0000ff;fill-opacity:1;fill-rule:nonzero;stroke:none;stroke-width:2.38276839;stroke-linecap:round;stroke-linejoin:round;stroke-miterlimit:4;stroke-dasharray:none;stroke-opacity:1;paint-order:markers fill stroke"
           d="m 129.25655,207.4387 c -0.48328,10e-6 -0.91707,0.20146 -1.22518,0.52394 l -0.002,-6e-4 -4.2875,3.80912 c -0.0322,0.0261 -0.0628,0.0541 -0.093,0.0825 l -0.032,0.0283 v 3.2e-4 c -0.31034,0.30677 -0.50239,0.7326 -0.50239,1.20547 v 4.23393 c 0,0.93865 0.75566,1.69431 1.69431,1.69431 h 13.81706 c 0.38481,0 0.73754,-0.12838 1.02138,-0.34293 l 0.002,0.001 0.0169,-0.0151 c 0.0606,-0.0471 0.11823,-0.0976 0.17178,-0.15238 l 4.33151,-3.84605 -0.001,-3.2e-4 c 0.36604,-0.31031 0.59812,-0.77355 0.59812,-1.2932 v -4.23393 c 0,-0.93865 -0.75566,-1.69431 -1.69431,-1.69431 z"
           id="path2423"
           inkscape:connector-curvature="0" />
        <rect
           ry="1.5332925"
           y="211.75571"
           x="123.65445"
           height="6.8981967"
           width="16.127882"
           id="rect2425"
           style="opacity:1;fill:#ffffff;fill-opacity:1;fill-rule:nonzero;stroke:none;stroke-width:2.19456983;stroke-linecap:round;stroke-linejoin:round;stroke-miterlimit:4;stroke-dasharray:none;stroke-opacity:1;paint-order:markers fill stroke" />
        <rect
           style="opacity:1;fill:#0000ff;fill-opacity:1;fill-rule:nonzero;stroke:none;stroke-width:2.06968951;stroke-linecap:round;stroke-linejoin:round;stroke-miterlimit:4;stroke-dasharray:none;stroke-opacity:1;paint-order:markers fill stroke"
           id="rect2427"
           width="15.605203"
           height="6.340961"
           x="123.91579"
           y="212.03433"
           ry="1.4094331" />
      </g>
      <g
         id="g2437"
         transform="translate(16.973778,-33.67596)">
        <path
           inkscape:connector-curvature="0"
           id="path2431"
           d="m 129.25655,207.4387 c -0.48328,10e-6 -0.91707,0.20146 -1.22518,0.52394 l -0.002,-6e-4 -4.2875,3.80912 c -0.0322,0.0261 -0.0628,0.0541 -0.093,0.0825 l -0.032,0.0283 v 3.2e-4 c -0.31034,0.30677 -0.50239,0.7326 -0.50239,1.20547 v 4.23393 c 0,0.93865 0.75566,1.69431 1.69431,1.69431 h 13.81706 c 0.38481,0 0.73754,-0.12838 1.02138,-0.34293 l 0.002,0.001 0.0169,-0.0151 c 0.0606,-0.0471 0.11823,-0.0976 0.17178,-0.15238 l 4.33151,-3.84605 -0.001,-3.2e-4 c 0.36604,-0.31031 0.59812,-0.77355 0.59812,-1.2932 v -4.23393 c 0,-0.93865 -0.75566,-1.69431 -1.69431,-1.69431 z"
           style="opacity:1;fill:#0000ff;fill-opacity:1;fill-rule:nonzero;stroke:none;stroke-width:2.38276839;stroke-linecap:round;stroke-linejoin:round;stroke-miterlimit:4;stroke-dasharray:none;stroke-opacity:1;paint-order:markers fill stroke" />
        <rect
           style="opacity:1;fill:#ffffff;fill-opacity:1;fill-rule:nonzero;stroke:none;stroke-width:2.19456983;stroke-linecap:round;stroke-linejoin:round;stroke-miterlimit:4;stroke-dasharray:none;stroke-opacity:1;paint-order:markers fill stroke"
           id="rect2433"
           width="16.127882"
           height="6.8981967"
           x="123.65445"
           y="211.75571"
           ry="1.5332925" />
        <rect
           ry="1.4094331"
           y="212.03433"
           x="123.91579"
           height="6.340961"
           width="15.605203"
           id="rect2435"
           style="opacity:1;fill:#0000ff;fill-opacity:1;fill-rule:nonzero;stroke:none;stroke-width:2.06968951;stroke-linecap:round;stroke-linejoin:round;stroke-miterlimit:4;stroke-dasharray:none;stroke-opacity:1;paint-order:markers fill stroke" />
      </g>
      <g
         transform="translate(16.973778,-42.094951)"
         id="g2445">
        <path
           style="opacity:1;fill:#0000ff;fill-opacity:1;fill-rule:nonzero;stroke:none;stroke-width:2.38276839;stroke-linecap:round;stroke-linejoin:round;stroke-miterlimit:4;stroke-dasharray:none;stroke-opacity:1;paint-order:markers fill stroke"
           d="m 129.25655,207.4387 c -0.48328,10e-6 -0.91707,0.20146 -1.22518,0.52394 l -0.002,-6e-4 -4.2875,3.80912 c -0.0322,0.0261 -0.0628,0.0541 -0.093,0.0825 l -0.032,0.0283 v 3.2e-4 c -0.31034,0.30677 -0.50239,0.7326 -0.50239,1.20547 v 4.23393 c 0,0.93865 0.75566,1.69431 1.69431,1.69431 h 13.81706 c 0.38481,0 0.73754,-0.12838 1.02138,-0.34293 l 0.002,0.001 0.0169,-0.0151 c 0.0606,-0.0471 0.11823,-0.0976 0.17178,-0.15238 l 4.33151,-3.84605 -0.001,-3.2e-4 c 0.36604,-0.31031 0.59812,-0.77355 0.59812,-1.2932 v -4.23393 c 0,-0.93865 -0.75566,-1.69431 -1.69431,-1.69431 z"
           id="path2439"
           inkscape:connector-curvature="0" />
        <rect
           ry="1.5332925"
           y="211.75571"
           x="123.65445"
           height="6.8981967"
           width="16.127882"
           id="rect2441"
           style="opacity:1;fill:#ffffff;fill-opacity:1;fill-rule:nonzero;stroke:none;stroke-width:2.19456983;stroke-linecap:round;stroke-linejoin:round;stroke-miterlimit:4;stroke-dasharray:none;stroke-opacity:1;paint-order:markers fill stroke" />
        <rect
           style="opacity:1;fill:#0000ff;fill-opacity:1;fill-rule:nonzero;stroke:none;stroke-width:2.06968951;stroke-linecap:round;stroke-linejoin:round;stroke-miterlimit:4;stroke-dasharray:none;stroke-opacity:1;paint-order:markers fill stroke"
           id="rect2443"
           width="15.605203"
           height="6.340961"
           x="123.91579"
           y="212.03433"
           ry="1.4094331" />
      </g>
    </g>
    <path
       inkscape:connector-curvature="0"
       id="path2449"
       d="m 39.128294,202.45871 c -5.64507,-0.11839 -16.968819,10.17746 -16.96649,18.95053 v 52.68111 h 61.281141 c 5.170105,-0.006 11.55261,-4.81884 6.247117,-4.9966 H 28.890093 l 6.632166,-4.92492 h 61.281068 c 5.170123,-0.006 11.552683,-4.81955 6.247173,-4.9973 H 42.250533 v -52.68112 c 0.0097,-2.79585 -1.240543,-3.99222 -3.122239,-4.0317 z m -2.363649,12.22967 c 1.239165,0.0248 2.062383,0.81415 2.055784,2.65536 v 34.69216 l -13.229162,9.82476 v -34.6922 c -0.0013,-5.77735 7.455924,-12.558 11.173378,-12.48008 z"
       style="opacity:1;fill:#0000ff;fill-opacity:1;fill-rule:nonzero;stroke:none;stroke-width:3.82090068;stroke-linecap:round;stroke-linejoin:round;stroke-miterlimit:4;stroke-dasharray:none;stroke-opacity:1;paint-order:markers fill stroke" />
  </g>
</svg>
