<?xml version="1.0" encoding="UTF-8" standalone="no"?>
<!-- Created with Inkscape (http://www.inkscape.org/) -->

<svg
   xmlns:dc="http://purl.org/dc/elements/1.1/"
   xmlns:cc="http://creativecommons.org/ns#"
   xmlns:rdf="http://www.w3.org/1999/02/22-rdf-syntax-ns#"
   xmlns:svg="http://www.w3.org/2000/svg"
   xmlns="http://www.w3.org/2000/svg"
   xmlns:sodipodi="http://sodipodi.sourceforge.net/DTD/sodipodi-0.dtd"
   xmlns:inkscape="http://www.inkscape.org/namespaces/inkscape"
   width="655"
   height="532"
   viewBox="0 0 173.3021 140.75833"
   version="1.1"
   id="svg8"
   inkscape:version="0.92.2 (5c3e80d, 2017-08-06)"
   sodipodi:docname="SezioneStoccaggioD.svg"
   enable-background="new">
  <sodipodi:namedview
     id="base"
     pagecolor="#ffffff"
     bordercolor="#666666"
     borderopacity="1.0"
     inkscape:pageopacity="0.0"
     inkscape:pageshadow="2"
     inkscape:zoom="0.1767767"
     inkscape:cx="2657.2033"
     inkscape:cy="469.01093"
     inkscape:document-units="mm"
     inkscape:current-layer="svg8"
     showgrid="true"
     units="px"
     inkscape:window-width="1920"
     inkscape:window-height="1003"
     inkscape:window-x="-9"
     inkscape:window-y="-9"
     inkscape:window-maximized="1"
     showguides="true"
     inkscape:guide-bbox="true"
     inkscape:snap-bbox="true"
     inkscape:snap-bbox-edge-midpoints="true"
     inkscape:snap-midpoints="true"
     inkscape:snap-bbox-midpoints="true"
     inkscape:snap-grids="false"
     inkscape:snap-center="true"
     inkscape:snap-object-midpoints="true"
     inkscape:bbox-nodes="true"
     inkscape:bbox-paths="true"
     inkscape:snap-intersection-paths="true"
     inkscape:snap-smooth-nodes="true"
     inkscape:object-nodes="true"
     inkscape:object-paths="true"
     inkscape:snap-to-guides="true"
     inkscape:snap-page="false"
     inkscape:snap-others="true"
     inkscape:snap-global="false"
     inkscape:measure-start="0,0"
     inkscape:measure-end="0,0">
    <inkscape:grid
       empspacing="1"
       spacingy="12.796214"
       spacingx="28.883682"
       id="grid1756"
       type="xygrid" />
  </sodipodi:namedview>
  <defs
     id="defs2" />
  <metadata
     id="metadata5">
    <rdf:RDF>
      <cc:Work
         rdf:about="">
        <dc:format>image/svg+xml</dc:format>
        <dc:type
           rdf:resource="http://purl.org/dc/dcmitype/StillImage" />
        <dc:title />
      </cc:Work>
    </rdf:RDF>
  </metadata>
  <g
     transform="translate(0,-156.24165)"
     id="layer1"
     inkscape:groupmode="layer"
     inkscape:label="Sezione Lavaggio">
    <g
       transform="matrix(1.3979741,0,0,1.3979741,-67.87006,-56.552385)"
       id="g2447">
      <g
         id="g2369">
        <path
           style="opacity:1;fill:#0000ff;fill-opacity:1;fill-rule:nonzero;stroke:none;stroke-width:2.38276839;stroke-linecap:round;stroke-linejoin:round;stroke-miterlimit:4;stroke-dasharray:none;stroke-opacity:1;paint-order:markers fill stroke"
           d="m 129.25655,207.4387 c -0.48328,10e-6 -0.91707,0.20146 -1.22518,0.52394 l -0.002,-6e-4 -4.2875,3.80912 c -0.0322,0.0261 -0.0628,0.0541 -0.093,0.0825 l -0.032,0.0283 v 3.2e-4 c -0.31034,0.30677 -0.50239,0.7326 -0.50239,1.20547 v 4.23393 c 0,0.93865 0.75566,1.69431 1.69431,1.69431 h 13.81706 c 0.38481,0 0.73754,-0.12838 1.02138,-0.34293 l 0.002,0.001 0.0169,-0.0151 c 0.0606,-0.0471 0.11823,-0.0976 0.17178,-0.15238 l 4.33151,-3.84605 -0.001,-3.2e-4 c 0.36604,-0.31031 0.59812,-0.77355 0.59812,-1.2932 v -4.23393 c 0,-0.93865 -0.75566,-1.69431 -1.69431,-1.69431 z"
           id="path2363"
           inkscape:connector-curvature="0" />
        <rect
           ry="1.5332925"
           y="211.75571"
           x="123.65445"
           height="6.8981967"
           width="16.127882"
           id="rect2365"
           style="opacity:1;fill:#ffffff;fill-opacity:1;fill-rule:nonzero;stroke:none;stroke-width:2.19456983;stroke-linecap:round;stroke-linejoin:round;stroke-miterlimit:4;stroke-dasharray:none;stroke-opacity:1;paint-order:markers fill stroke" />
        <rect
           style="opacity:1;fill:#0000ff;fill-opacity:1;fill-rule:nonzero;stroke:none;stroke-width:2.06968951;stroke-linecap:round;stroke-linejoin:round;stroke-miterlimit:4;stroke-dasharray:none;stroke-opacity:1;paint-order:markers fill stroke"
           id="rect2367"
           width="15.605203"
           height="6.340961"
           x="123.91579"
           y="212.03433"
           ry="1.4094331" />
      </g>
      <g
         id="g2375"
         transform="translate(-0.467722)">
        <path
           inkscape:connector-curvature="0"
           id="path2371"
           d="m 146.69805,207.4387 c -0.48329,0 -0.91708,0.20146 -1.22519,0.52394 l -0.002,-6e-4 -4.2875,3.80912 c -0.0322,0.0261 -0.0628,0.0541 -0.093,0.0825 l -0.032,0.0283 v 3.2e-4 c -0.31034,0.30677 -0.50238,0.7326 -0.50238,1.20547 v 4.23393 c 0,0.93864 0.75566,1.69431 1.69431,1.69431 h 13.81705 c 0.38481,0 0.73755,-0.12838 1.02139,-0.34293 l 0.002,0.001 0.0169,-0.0151 c 0.0606,-0.0471 0.11823,-0.0976 0.17178,-0.15238 l 4.33151,-3.84605 -0.001,-3.2e-4 c 0.36603,-0.31031 0.59812,-0.77355 0.59812,-1.29321 v -4.23392 c 0,-0.93865 -0.75567,-1.69431 -1.69432,-1.69431 z"
           style="opacity:1;fill:#0000ff;fill-opacity:1;fill-rule:nonzero;stroke:none;stroke-width:2.38276839;stroke-linecap:round;stroke-linejoin:round;stroke-miterlimit:4;stroke-dasharray:none;stroke-opacity:1;paint-order:markers fill stroke" />
        <rect
           style="opacity:1;fill:#ffffff;fill-opacity:1;fill-rule:nonzero;stroke:none;stroke-width:2.19456983;stroke-linecap:round;stroke-linejoin:round;stroke-miterlimit:4;stroke-dasharray:none;stroke-opacity:1;paint-order:markers fill stroke"
           id="rect2373"
           width="16.127882"
           height="6.8981967"
           x="141.09595"
           y="211.75571"
           ry="1.5332925" />
      </g>
      <g
         id="g2383"
         transform="translate(0,-8.4189859)">
        <path
           inkscape:connector-curvature="0"
           id="path2377"
           d="m 129.25655,207.4387 c -0.48328,10e-6 -0.91707,0.20146 -1.22518,0.52394 l -0.002,-6e-4 -4.2875,3.80912 c -0.0322,0.0261 -0.0628,0.0541 -0.093,0.0825 l -0.032,0.0283 v 3.2e-4 c -0.31034,0.30677 -0.50239,0.7326 -0.50239,1.20547 v 4.23393 c 0,0.93865 0.75566,1.69431 1.69431,1.69431 h 13.81706 c 0.38481,0 0.73754,-0.12838 1.02138,-0.34293 l 0.002,0.001 0.0169,-0.0151 c 0.0606,-0.0471 0.11823,-0.0976 0.17178,-0.15238 l 4.33151,-3.84605 -0.001,-3.2e-4 c 0.36604,-0.31031 0.59812,-0.77355 0.59812,-1.2932 v -4.23393 c 0,-0.93865 -0.75566,-1.69431 -1.69431,-1.69431 z"
           style="opacity:1;fill:#0000ff;fill-opacity:1;fill-rule:nonzero;stroke:none;stroke-width:2.38276839;stroke-linecap:round;stroke-linejoin:round;stroke-miterlimit:4;stroke-dasharray:none;stroke-opacity:1;paint-order:markers fill stroke" />
        <rect
           style="opacity:1;fill:#ffffff;fill-opacity:1;fill-rule:nonzero;stroke:none;stroke-width:2.19456983;stroke-linecap:round;stroke-linejoin:round;stroke-miterlimit:4;stroke-dasharray:none;stroke-opacity:1;paint-order:markers fill stroke"
           id="rect2379"
           width="16.127882"
           height="6.8981967"
           x="123.65445"
           y="211.75571"
           ry="1.5332925" />
        <rect
           ry="1.4094331"
           y="212.03433"
           x="123.91579"
           height="6.340961"
           width="15.605203"
           id="rect2381"
           style="opacity:1;fill:#0000ff;fill-opacity:1;fill-rule:nonzero;stroke:none;stroke-width:2.06968951;stroke-linecap:round;stroke-linejoin:round;stroke-miterlimit:4;stroke-dasharray:none;stroke-opacity:1;paint-order:markers fill stroke" />
      </g>
      <g
         transform="translate(16.973778,-8.4189859)"
         id="g2391">
        <path
           style="opacity:1;fill:#0000ff;fill-opacity:1;fill-rule:nonzero;stroke:none;stroke-width:2.38276839;stroke-linecap:round;stroke-linejoin:round;stroke-miterlimit:4;stroke-dasharray:none;stroke-opacity:1;paint-order:markers fill stroke"
           d="m 129.25655,207.4387 c -0.48328,10e-6 -0.91707,0.20146 -1.22518,0.52394 l -0.002,-6e-4 -4.2875,3.80912 c -0.0322,0.0261 -0.0628,0.0541 -0.093,0.0825 l -0.032,0.0283 v 3.2e-4 c -0.31034,0.30677 -0.50239,0.7326 -0.50239,1.20547 v 4.23393 c 0,0.93865 0.75566,1.69431 1.69431,1.69431 h 13.81706 c 0.38481,0 0.73754,-0.12838 1.02138,-0.34293 l 0.002,0.001 0.0169,-0.0151 c 0.0606,-0.0471 0.11823,-0.0976 0.17178,-0.15238 l 4.33151,-3.84605 -0.001,-3.2e-4 c 0.36604,-0.31031 0.59812,-0.77355 0.59812,-1.2932 v -4.23393 c 0,-0.93865 -0.75566,-1.69431 -1.69431,-1.69431 z"
           id="path2385"
           inkscape:connector-curvature="0" />
        <rect
           ry="1.5332925"
           y="211.75571"
           x="123.65445"
           height="6.8981967"
           width="16.127882"
           id="rect2387"
           style="opacity:1;fill:#ffffff;fill-opacity:1;fill-rule:nonzero;stroke:none;stroke-width:2.19456983;stroke-linecap:round;stroke-linejoin:round;stroke-miterlimit:4;stroke-dasharray:none;stroke-opacity:1;paint-order:markers fill stroke" />
        <rect
           style="opacity:1;fill:#0000ff;fill-opacity:1;fill-rule:nonzero;stroke:none;stroke-width:2.06968951;stroke-linecap:round;stroke-linejoin:round;stroke-miterlimit:4;stroke-dasharray:none;stroke-opacity:1;paint-order:markers fill stroke"
           id="rect2389"
           width="15.605203"
           height="6.340961"
           x="123.91579"
           y="212.03433"
           ry="1.4094331" />
      </g>
      <g
         transform="translate(0,-16.837988)"
         id="g2399">
        <path
           style="opacity:1;fill:#0000ff;fill-opacity:1;fill-rule:nonzero;stroke:none;stroke-width:2.38276839;stroke-linecap:round;stroke-linejoin:round;stroke-miterlimit:4;stroke-dasharray:none;stroke-opacity:1;paint-order:markers fill stroke"
           d="m 129.25655,207.4387 c -0.48328,10e-6 -0.91707,0.20146 -1.22518,0.52394 l -0.002,-6e-4 -4.2875,3.80912 c -0.0322,0.0261 -0.0628,0.0541 -0.093,0.0825 l -0.032,0.0283 v 3.2e-4 c -0.31034,0.30677 -0.50239,0.7326 -0.50239,1.20547 v 4.23393 c 0,0.93865 0.75566,1.69431 1.69431,1.69431 h 13.81706 c 0.38481,0 0.73754,-0.12838 1.02138,-0.34293 l 0.002,0.001 0.0169,-0.0151 c 0.0606,-0.0471 0.11823,-0.0976 0.17178,-0.15238 l 4.33151,-3.84605 -0.001,-3.2e-4 c 0.36604,-0.31031 0.59812,-0.77355 0.59812,-1.2932 v -4.23393 c 0,-0.93865 -0.75566,-1.69431 -1.69431,-1.69431 z"
           id="path2393"
           inkscape:connector-curvature="0" />
        <rect
           ry="1.5332925"
           y="211.75571"
           x="123.65445"
           height="6.8981967"
           width="16.127882"
           id="rect2395"
           style="opacity:1;fill:#ffffff;fill-opacity:1;fill-rule:nonzero;stroke:none;stroke-width:2.19456983;stroke-linecap:round;stroke-linejoin:round;stroke-miterlimit:4;stroke-dasharray:none;stroke-opacity:1;paint-order:markers fill stroke" />
        <rect
           style="opacity:1;fill:#0000ff;fill-opacity:1;fill-rule:nonzero;stroke:none;stroke-width:2.06968951;stroke-linecap:round;stroke-linejoin:round;stroke-miterlimit:4;stroke-dasharray:none;stroke-opacity:1;paint-order:markers fill stroke"
           id="rect2397"
           width="15.605203"
           height="6.340961"
           x="123.91579"
           y="212.03433"
           ry="1.4094331" />
      </g>
      <g
         id="g2407"
         transform="translate(16.973778,-16.837988)">
        <path
           inkscape:connector-curvature="0"
           id="path2401"
           d="m 129.25655,207.4387 c -0.48328,10e-6 -0.91707,0.20146 -1.22518,0.52394 l -0.002,-6e-4 -4.2875,3.80912 c -0.0322,0.0261 -0.0628,0.0541 -0.093,0.0825 l -0.032,0.0283 v 3.2e-4 c -0.31034,0.30677 -0.50239,0.7326 -0.50239,1.20547 v 4.23393 c 0,0.93865 0.75566,1.69431 1.69431,1.69431 h 13.81706 c 0.38481,0 0.73754,-0.12838 1.02138,-0.34293 l 0.002,0.001 0.0169,-0.0151 c 0.0606,-0.0471 0.11823,-0.0976 0.17178,-0.15238 l 4.33151,-3.84605 -0.001,-3.2e-4 c 0.36604,-0.31031 0.59812,-0.77355 0.59812,-1.2932 v -4.23393 c 0,-0.93865 -0.75566,-1.69431 -1.69431,-1.69431 z"
           style="opacity:1;fill:#0000ff;fill-opacity:1;fill-rule:nonzero;stroke:none;stroke-width:2.38276839;stroke-linecap:round;stroke-linejoin:round;stroke-miterlimit:4;stroke-dasharray:none;stroke-opacity:1;paint-order:markers fill stroke" />
        <rect
           style="opacity:1;fill:#ffffff;fill-opacity:1;fill-rule:nonzero;stroke:none;stroke-width:2.19456983;stroke-linecap:round;stroke-linejoin:round;stroke-miterlimit:4;stroke-dasharray:none;stroke-opacity:1;paint-order:markers fill stroke"
           id="rect2403"
           width="16.127882"
           height="6.8981967"
           x="123.65445"
           y="211.75571"
           ry="1.5332925" />
        <rect
           ry="1.4094331"
           y="212.03433"
           x="123.91579"
           height="6.340961"
           width="15.605203"
           id="rect2405"
           style="opacity:1;fill:#0000ff;fill-opacity:1;fill-rule:nonzero;stroke:none;stroke-width:2.06968951;stroke-linecap:round;stroke-linejoin:round;stroke-miterlimit:4;stroke-dasharray:none;stroke-opacity:1;paint-order:markers fill stroke" />
      </g>
      <g
         id="g2413"
         transform="translate(-17.4415,-25.25697)">
        <path
           style="opacity:1;fill:#0000ff;fill-opacity:1;fill-rule:nonzero;stroke:none;stroke-width:2.38276839;stroke-linecap:round;stroke-linejoin:round;stroke-miterlimit:4;stroke-dasharray:none;stroke-opacity:1;paint-order:markers fill stroke"
           d="m 146.69805,207.4387 c -0.48329,0 -0.91708,0.20146 -1.22519,0.52394 l -0.002,-6e-4 -4.2875,3.80912 c -0.0322,0.0261 -0.0628,0.0541 -0.093,0.0825 l -0.032,0.0283 v 3.2e-4 c -0.31034,0.30677 -0.50238,0.7326 -0.50238,1.20547 v 4.23393 c 0,0.93864 0.75566,1.69431 1.69431,1.69431 h 13.81705 c 0.38481,0 0.73755,-0.12838 1.02139,-0.34293 l 0.002,0.001 0.0169,-0.0151 c 0.0606,-0.0471 0.11823,-0.0976 0.17178,-0.15238 l 4.33151,-3.84605 -0.001,-3.2e-4 c 0.36603,-0.31031 0.59812,-0.77355 0.59812,-1.29321 v -4.23392 c 0,-0.93865 -0.75567,-1.69431 -1.69432,-1.69431 z"
           id="path2409"
           inkscape:connector-curvature="0" />
        <rect
           ry="1.5332925"
           y="211.75571"
           x="141.09595"
           height="6.8981967"
           width="16.127882"
           id="rect2411"
           style="opacity:1;fill:#ffffff;fill-opacity:1;fill-rule:nonzero;stroke:none;stroke-width:2.19456983;stroke-linecap:round;stroke-linejoin:round;stroke-miterlimit:4;stroke-dasharray:none;stroke-opacity:1;paint-order:markers fill stroke" />
      </g>
      <g
         transform="translate(16.973778,-25.25697)"
         id="g2421">
        <path
           style="opacity:1;fill:#0000ff;fill-opacity:1;fill-rule:nonzero;stroke:none;stroke-width:2.38276839;stroke-linecap:round;stroke-linejoin:round;stroke-miterlimit:4;stroke-dasharray:none;stroke-opacity:1;paint-order:markers fill stroke"
           d="m 129.25655,207.4387 c -0.48328,10e-6 -0.91707,0.20146 -1.22518,0.52394 l -0.002,-6e-4 -4.2875,3.80912 c -0.0322,0.0261 -0.0628,0.0541 -0.093,0.0825 l -0.032,0.0283 v 3.2e-4 c -0.31034,0.30677 -0.50239,0.7326 -0.50239,1.20547 v 4.23393 c 0,0.93865 0.75566,1.69431 1.69431,1.69431 h 13.81706 c 0.38481,0 0.73754,-0.12838 1.02138,-0.34293 l 0.002,0.001 0.0169,-0.0151 c 0.0606,-0.0471 0.11823,-0.0976 0.17178,-0.15238 l 4.33151,-3.84605 -0.001,-3.2e-4 c 0.36604,-0.31031 0.59812,-0.77355 0.59812,-1.2932 v -4.23393 c 0,-0.93865 -0.75566,-1.69431 -1.69431,-1.69431 z"
           id="path2415"
           inkscape:connector-curvature="0" />
        <rect
           ry="1.5332925"
           y="211.75571"
           x="123.65445"
           height="6.8981967"
           width="16.127882"
           id="rect2417"
           style="opacity:1;fill:#ffffff;fill-opacity:1;fill-rule:nonzero;stroke:none;stroke-width:2.19456983;stroke-linecap:round;stroke-linejoin:round;stroke-miterlimit:4;stroke-dasharray:none;stroke-opacity:1;paint-order:markers fill stroke" />
        <rect
           style="opacity:1;fill:#0000ff;fill-opacity:1;fill-rule:nonzero;stroke:none;stroke-width:2.06968951;stroke-linecap:round;stroke-linejoin:round;stroke-miterlimit:4;stroke-dasharray:none;stroke-opacity:1;paint-order:markers fill stroke"
           id="rect2419"
           width="15.605203"
           height="6.340961"
           x="123.91579"
           y="212.03433"
           ry="1.4094331" />
      </g>
      <g
         id="g2429"
         transform="translate(0,-33.67596)">
        <path
           inkscape:connector-curvature="0"
           id="path2423"
           d="m 129.25655,207.4387 c -0.48328,10e-6 -0.91707,0.20146 -1.22518,0.52394 l -0.002,-6e-4 -4.2875,3.80912 c -0.0322,0.0261 -0.0628,0.0541 -0.093,0.0825 l -0.032,0.0283 v 3.2e-4 c -0.31034,0.30677 -0.50239,0.7326 -0.50239,1.20547 v 4.23393 c 0,0.93865 0.75566,1.69431 1.69431,1.69431 h 13.81706 c 0.38481,0 0.73754,-0.12838 1.02138,-0.34293 l 0.002,0.001 0.0169,-0.0151 c 0.0606,-0.0471 0.11823,-0.0976 0.17178,-0.15238 l 4.33151,-3.84605 -0.001,-3.2e-4 c 0.36604,-0.31031 0.59812,-0.77355 0.59812,-1.2932 v -4.23393 c 0,-0.93865 -0.75566,-1.69431 -1.69431,-1.69431 z"
           style="opacity:1;fill:#0000ff;fill-opacity:1;fill-rule:nonzero;stroke:none;stroke-width:2.38276839;stroke-linecap:round;stroke-linejoin:round;stroke-miterlimit:4;stroke-dasharray:none;stroke-opacity:1;paint-order:markers fill stroke" />
        <rect
           style="opacity:1;fill:#ffffff;fill-opacity:1;fill-rule:nonzero;stroke:none;stroke-width:2.19456983;stroke-linecap:round;stroke-linejoin:round;stroke-miterlimit:4;stroke-dasharray:none;stroke-opacity:1;paint-order:markers fill stroke"
           id="rect2425"
           width="16.127882"
           height="6.8981967"
           x="123.65445"
           y="211.75571"
           ry="1.5332925" />
        <rect
           ry="1.4094331"
           y="212.03433"
           x="123.91579"
           height="6.340961"
           width="15.605203"
           id="rect2427"
           style="opacity:1;fill:#0000ff;fill-opacity:1;fill-rule:nonzero;stroke:none;stroke-width:2.06968951;stroke-linecap:round;stroke-linejoin:round;stroke-miterlimit:4;stroke-dasharray:none;stroke-opacity:1;paint-order:markers fill stroke" />
      </g>
      <g
         transform="translate(16.973778,-33.67596)"
         id="g2437">
        <path
           style="opacity:1;fill:#0000ff;fill-opacity:1;fill-rule:nonzero;stroke:none;stroke-width:2.38276839;stroke-linecap:round;stroke-linejoin:round;stroke-miterlimit:4;stroke-dasharray:none;stroke-opacity:1;paint-order:markers fill stroke"
           d="m 129.25655,207.4387 c -0.48328,10e-6 -0.91707,0.20146 -1.22518,0.52394 l -0.002,-6e-4 -4.2875,3.80912 c -0.0322,0.0261 -0.0628,0.0541 -0.093,0.0825 l -0.032,0.0283 v 3.2e-4 c -0.31034,0.30677 -0.50239,0.7326 -0.50239,1.20547 v 4.23393 c 0,0.93865 0.75566,1.69431 1.69431,1.69431 h 13.81706 c 0.38481,0 0.73754,-0.12838 1.02138,-0.34293 l 0.002,0.001 0.0169,-0.0151 c 0.0606,-0.0471 0.11823,-0.0976 0.17178,-0.15238 l 4.33151,-3.84605 -0.001,-3.2e-4 c 0.36604,-0.31031 0.59812,-0.77355 0.59812,-1.2932 v -4.23393 c 0,-0.93865 -0.75566,-1.69431 -1.69431,-1.69431 z"
           id="path2431"
           inkscape:connector-curvature="0" />
        <rect
           ry="1.5332925"
           y="211.75571"
           x="123.65445"
           height="6.8981967"
           width="16.127882"
           id="rect2433"
           style="opacity:1;fill:#ffffff;fill-opacity:1;fill-rule:nonzero;stroke:none;stroke-width:2.19456983;stroke-linecap:round;stroke-linejoin:round;stroke-miterlimit:4;stroke-dasharray:none;stroke-opacity:1;paint-order:markers fill stroke" />
        <rect
           style="opacity:1;fill:#0000ff;fill-opacity:1;fill-rule:nonzero;stroke:none;stroke-width:2.06968951;stroke-linecap:round;stroke-linejoin:round;stroke-miterlimit:4;stroke-dasharray:none;stroke-opacity:1;paint-order:markers fill stroke"
           id="rect2435"
           width="15.605203"
           height="6.340961"
           x="123.91579"
           y="212.03433"
           ry="1.4094331" />
      </g>
      <g
         id="g2445"
         transform="translate(16.973778,-42.094951)">
        <path
           inkscape:connector-curvature="0"
           id="path2439"
           d="m 129.25655,207.4387 c -0.48328,10e-6 -0.91707,0.20146 -1.22518,0.52394 l -0.002,-6e-4 -4.2875,3.80912 c -0.0322,0.0261 -0.0628,0.0541 -0.093,0.0825 l -0.032,0.0283 v 3.2e-4 c -0.31034,0.30677 -0.50239,0.7326 -0.50239,1.20547 v 4.23393 c 0,0.93865 0.75566,1.69431 1.69431,1.69431 h 13.81706 c 0.38481,0 0.73754,-0.12838 1.02138,-0.34293 l 0.002,0.001 0.0169,-0.0151 c 0.0606,-0.0471 0.11823,-0.0976 0.17178,-0.15238 l 4.33151,-3.84605 -0.001,-3.2e-4 c 0.36604,-0.31031 0.59812,-0.77355 0.59812,-1.2932 v -4.23393 c 0,-0.93865 -0.75566,-1.69431 -1.69431,-1.69431 z"
           style="opacity:1;fill:#0000ff;fill-opacity:1;fill-rule:nonzero;stroke:none;stroke-width:2.38276839;stroke-linecap:round;stroke-linejoin:round;stroke-miterlimit:4;stroke-dasharray:none;stroke-opacity:1;paint-order:markers fill stroke" />
        <rect
           style="opacity:1;fill:#ffffff;fill-opacity:1;fill-rule:nonzero;stroke:none;stroke-width:2.19456983;stroke-linecap:round;stroke-linejoin:round;stroke-miterlimit:4;stroke-dasharray:none;stroke-opacity:1;paint-order:markers fill stroke"
           id="rect2441"
           width="16.127882"
           height="6.8981967"
           x="123.65445"
           y="211.75571"
           ry="1.5332925" />
        <rect
           ry="1.4094331"
           y="212.03433"
           x="123.91579"
           height="6.340961"
           width="15.605203"
           id="rect2443"
           style="opacity:1;fill:#0000ff;fill-opacity:1;fill-rule:nonzero;stroke:none;stroke-width:2.06968951;stroke-linecap:round;stroke-linejoin:round;stroke-miterlimit:4;stroke-dasharray:none;stroke-opacity:1;paint-order:markers fill stroke" />
      </g>
    </g>
    <path
       style="opacity:1;fill:#0000ff;fill-opacity:1;fill-rule:nonzero;stroke:none;stroke-width:3.82090068;stroke-linecap:round;stroke-linejoin:round;stroke-miterlimit:4;stroke-dasharray:none;stroke-opacity:1;paint-order:markers fill stroke"
       d="m 39.128294,202.45871 c -5.64507,-0.11839 -16.968819,10.17746 -16.96649,18.95053 v 52.68111 h 61.281141 c 5.170105,-0.006 11.55261,-4.81884 6.247117,-4.9966 H 28.890093 l 6.632166,-4.92492 h 61.281068 c 5.170123,-0.006 11.552683,-4.81955 6.247173,-4.9973 H 42.250533 v -52.68112 c 0.0097,-2.79585 -1.240543,-3.99222 -3.122239,-4.0317 z m -2.363649,12.22967 c 1.239165,0.0248 2.062383,0.81415 2.055784,2.65536 v 34.69216 l -13.229162,9.82476 v -34.6922 c -0.0013,-5.77735 7.455924,-12.558 11.173378,-12.48008 z"
       id="path2449"
       inkscape:connector-curvature="0" />
  </g>
  <g
     id="g15213"
     transform="translate(25.6007,-0.41681507)">
    <rect
       ry="0.98053801"
       y="27.220762"
       x="108.47335"
       height="4.8099804"
       width="11.847402"
       id="rect15178"
       style="opacity:1;fill:#ffffff;fill-opacity:1;fill-rule:nonzero;stroke:none;stroke-width:1.3803829;stroke-linecap:round;stroke-linejoin:round;stroke-miterlimit:4;stroke-dasharray:none;stroke-opacity:1;paint-order:markers fill stroke" />
    <g
       id="barcode"
       style="fill:#0000ff"
       transform="matrix(0.09130646,0,0,0.09130646,110.06051,27.839458)">
      <rect
         style="fill:#0000ff"
         x="0"
         y="0"
         id="barcode_bar1"
         width="1"
         height="34" />
      <rect
         style="fill:#0000ff"
         x="2"
         y="0"
         id="barcode_bar3"
         width="1"
         height="34" />
      <rect
         style="fill:#0000ff"
         x="5"
         y="0"
         id="barcode_bar5"
         width="1"
         height="30" />
      <rect
         style="fill:#0000ff"
         x="8"
         y="0"
         id="barcode_bar7"
         width="2"
         height="30" />
      <rect
         style="fill:#0000ff"
         x="11"
         y="0"
         id="barcode_bar9"
         width="4"
         height="30" />
      <rect
         style="fill:#0000ff"
         x="16"
         y="0"
         id="barcode_bar11"
         width="1"
         height="30" />
      <rect
         style="fill:#0000ff"
         x="19"
         y="0"
         id="barcode_bar13"
         width="3"
         height="30" />
      <rect
         style="fill:#0000ff"
         x="23"
         y="0"
         id="barcode_bar15"
         width="1"
         height="30" />
      <rect
         style="fill:#0000ff"
         x="25"
         y="0"
         id="barcode_bar17"
         width="2"
         height="30" />
      <rect
         style="fill:#0000ff"
         x="30"
         y="0"
         id="barcode_bar19"
         width="1"
         height="30" />
      <rect
         style="fill:#0000ff"
         x="35"
         y="0"
         id="barcode_bar21"
         width="1"
         height="30" />
      <rect
         style="fill:#0000ff"
         x="37"
         y="0"
         id="barcode_bar23"
         width="1"
         height="30" />
      <rect
         style="fill:#0000ff"
         x="40"
         y="0"
         id="barcode_bar25"
         width="1"
         height="30" />
      <rect
         style="fill:#0000ff"
         x="44"
         y="0"
         id="barcode_bar27"
         width="1"
         height="30" />
      <rect
         style="fill:#0000ff"
         x="46"
         y="0"
         id="barcode_bar29"
         width="1"
         height="34" />
      <rect
         style="fill:#0000ff"
         x="48"
         y="0"
         id="barcode_bar31"
         width="1"
         height="34" />
      <rect
         style="fill:#0000ff"
         x="50"
         y="0"
         id="barcode_bar33"
         width="1"
         height="30" />
      <rect
         style="fill:#0000ff"
         x="53"
         y="0"
         id="barcode_bar35"
         width="1"
         height="30" />
      <rect
         style="fill:#0000ff"
         x="57"
         y="0"
         id="barcode_bar37"
         width="3"
         height="30" />
      <rect
         style="fill:#0000ff"
         x="61"
         y="0"
         id="barcode_bar39"
         width="1"
         height="30" />
      <rect
         style="fill:#0000ff"
         x="64"
         y="0"
         id="barcode_bar41"
         width="3"
         height="30" />
      <rect
         style="fill:#0000ff"
         x="69"
         y="0"
         id="barcode_bar43"
         width="1"
         height="30" />
      <rect
         style="fill:#0000ff"
         x="71"
         y="0"
         id="barcode_bar45"
         width="2"
         height="30" />
      <rect
         style="fill:#0000ff"
         x="75"
         y="0"
         id="barcode_bar47"
         width="2"
         height="30" />
      <rect
         style="fill:#0000ff"
         x="78"
         y="0"
         id="barcode_bar49"
         width="2"
         height="30" />
      <rect
         style="fill:#0000ff"
         x="81"
         y="0"
         id="barcode_bar51"
         width="2"
         height="30" />
      <rect
         style="fill:#0000ff"
         x="85"
         y="0"
         id="barcode_bar53"
         width="1"
         height="30" />
      <rect
         style="fill:#0000ff"
         x="88"
         y="0"
         id="barcode_bar55"
         width="1"
         height="30" />
      <rect
         style="fill:#0000ff"
         x="92"
         y="0"
         id="barcode_bar57"
         width="1"
         height="34" />
      <rect
         style="fill:#0000ff"
         x="94"
         y="0"
         id="barcode_bar59"
         width="1"
         height="34" />
      <text
         x="47"
         y="39"
         style="font-size:9px;text-align:center;text-anchor:middle;fill:#0000ff"
         xml:space="preserve"
         id="barcode_text">1    234567     890128       </text>
    </g>
  </g>
  <g
     transform="translate(25.645839,23.122369)"
     id="g15287">
    <rect
       style="opacity:1;fill:#ffffff;fill-opacity:1;fill-rule:nonzero;stroke:none;stroke-width:1.3803829;stroke-linecap:round;stroke-linejoin:round;stroke-miterlimit:4;stroke-dasharray:none;stroke-opacity:1;paint-order:markers fill stroke"
       id="rect15221"
       width="11.847402"
       height="4.8099804"
       x="108.47335"
       y="27.220762"
       ry="0.98053801" />
    <g
       transform="matrix(0.09130646,0,0,0.09130646,110.06051,27.839458)"
       style="fill:#0000ff"
       id="g15285">
      <rect
         height="34"
         width="1"
         id="rect15223"
         y="0"
         x="0"
         style="fill:#0000ff" />
      <rect
         height="34"
         width="1"
         id="rect15225"
         y="0"
         x="2"
         style="fill:#0000ff" />
      <rect
         height="30"
         width="1"
         id="rect15227"
         y="0"
         x="5"
         style="fill:#0000ff" />
      <rect
         height="30"
         width="2"
         id="rect15229"
         y="0"
         x="8"
         style="fill:#0000ff" />
      <rect
         height="30"
         width="4"
         id="rect15231"
         y="0"
         x="11"
         style="fill:#0000ff" />
      <rect
         height="30"
         width="1"
         id="rect15233"
         y="0"
         x="16"
         style="fill:#0000ff" />
      <rect
         height="30"
         width="3"
         id="rect15235"
         y="0"
         x="19"
         style="fill:#0000ff" />
      <rect
         height="30"
         width="1"
         id="rect15237"
         y="0"
         x="23"
         style="fill:#0000ff" />
      <rect
         height="30"
         width="2"
         id="rect15239"
         y="0"
         x="25"
         style="fill:#0000ff" />
      <rect
         height="30"
         width="1"
         id="rect15241"
         y="0"
         x="30"
         style="fill:#0000ff" />
      <rect
         height="30"
         width="1"
         id="rect15243"
         y="0"
         x="35"
         style="fill:#0000ff" />
      <rect
         height="30"
         width="1"
         id="rect15245"
         y="0"
         x="37"
         style="fill:#0000ff" />
      <rect
         height="30"
         width="1"
         id="rect15247"
         y="0"
         x="40"
         style="fill:#0000ff" />
      <rect
         height="30"
         width="1"
         id="rect15249"
         y="0"
         x="44"
         style="fill:#0000ff" />
      <rect
         height="34"
         width="1"
         id="rect15251"
         y="0"
         x="46"
         style="fill:#0000ff" />
      <rect
         height="34"
         width="1"
         id="rect15253"
         y="0"
         x="48"
         style="fill:#0000ff" />
      <rect
         height="30"
         width="1"
         id="rect15255"
         y="0"
         x="50"
         style="fill:#0000ff" />
      <rect
         height="30"
         width="1"
         id="rect15257"
         y="0"
         x="53"
         style="fill:#0000ff" />
      <rect
         height="30"
         width="3"
         id="rect15259"
         y="0"
         x="57"
         style="fill:#0000ff" />
      <rect
         height="30"
         width="1"
         id="rect15261"
         y="0"
         x="61"
         style="fill:#0000ff" />
      <rect
         height="30"
         width="3"
         id="rect15263"
         y="0"
         x="64"
         style="fill:#0000ff" />
      <rect
         height="30"
         width="1"
         id="rect15265"
         y="0"
         x="69"
         style="fill:#0000ff" />
      <rect
         height="30"
         width="2"
         id="rect15267"
         y="0"
         x="71"
         style="fill:#0000ff" />
      <rect
         height="30"
         width="2"
         id="rect15269"
         y="0"
         x="75"
         style="fill:#0000ff" />
      <rect
         height="30"
         width="2"
         id="rect15271"
         y="0"
         x="78"
         style="fill:#0000ff" />
      <rect
         height="30"
         width="2"
         id="rect15273"
         y="0"
         x="81"
         style="fill:#0000ff" />
      <rect
         height="30"
         width="1"
         id="rect15275"
         y="0"
         x="85"
         style="fill:#0000ff" />
      <rect
         height="30"
         width="1"
         id="rect15277"
         y="0"
         x="88"
         style="fill:#0000ff" />
      <rect
         height="34"
         width="1"
         id="rect15279"
         y="0"
         x="92"
         style="fill:#0000ff" />
      <rect
         height="34"
         width="1"
         id="rect15281"
         y="0"
         x="94"
         style="fill:#0000ff" />
      <text
         id="text15283"
         xml:space="preserve"
         style="font-size:9px;text-align:center;text-anchor:middle;fill:#0000ff"
         y="39"
         x="47">1    234567     890128       </text>
    </g>
  </g>
  <g
     id="g15361"
     transform="translate(1.8717934,46.66131)">
    <rect
       ry="0.98053801"
       y="27.220762"
       x="108.47335"
       height="4.8099804"
       width="11.847402"
       id="rect15295"
       style="opacity:1;fill:#ffffff;fill-opacity:1;fill-rule:nonzero;stroke:none;stroke-width:1.3803829;stroke-linecap:round;stroke-linejoin:round;stroke-miterlimit:4;stroke-dasharray:none;stroke-opacity:1;paint-order:markers fill stroke" />
    <g
       id="g15359"
       style="fill:#0000ff"
       transform="matrix(0.09130646,0,0,0.09130646,110.06051,27.839458)">
      <rect
         style="fill:#0000ff"
         x="0"
         y="0"
         id="rect15297"
         width="1"
         height="34" />
      <rect
         style="fill:#0000ff"
         x="2"
         y="0"
         id="rect15299"
         width="1"
         height="34" />
      <rect
         style="fill:#0000ff"
         x="5"
         y="0"
         id="rect15301"
         width="1"
         height="30" />
      <rect
         style="fill:#0000ff"
         x="8"
         y="0"
         id="rect15303"
         width="2"
         height="30" />
      <rect
         style="fill:#0000ff"
         x="11"
         y="0"
         id="rect15305"
         width="4"
         height="30" />
      <rect
         style="fill:#0000ff"
         x="16"
         y="0"
         id="rect15307"
         width="1"
         height="30" />
      <rect
         style="fill:#0000ff"
         x="19"
         y="0"
         id="rect15309"
         width="3"
         height="30" />
      <rect
         style="fill:#0000ff"
         x="23"
         y="0"
         id="rect15311"
         width="1"
         height="30" />
      <rect
         style="fill:#0000ff"
         x="25"
         y="0"
         id="rect15313"
         width="2"
         height="30" />
      <rect
         style="fill:#0000ff"
         x="30"
         y="0"
         id="rect15315"
         width="1"
         height="30" />
      <rect
         style="fill:#0000ff"
         x="35"
         y="0"
         id="rect15317"
         width="1"
         height="30" />
      <rect
         style="fill:#0000ff"
         x="37"
         y="0"
         id="rect15319"
         width="1"
         height="30" />
      <rect
         style="fill:#0000ff"
         x="40"
         y="0"
         id="rect15321"
         width="1"
         height="30" />
      <rect
         style="fill:#0000ff"
         x="44"
         y="0"
         id="rect15323"
         width="1"
         height="30" />
      <rect
         style="fill:#0000ff"
         x="46"
         y="0"
         id="rect15325"
         width="1"
         height="34" />
      <rect
         style="fill:#0000ff"
         x="48"
         y="0"
         id="rect15327"
         width="1"
         height="34" />
      <rect
         style="fill:#0000ff"
         x="50"
         y="0"
         id="rect15329"
         width="1"
         height="30" />
      <rect
         style="fill:#0000ff"
         x="53"
         y="0"
         id="rect15331"
         width="1"
         height="30" />
      <rect
         style="fill:#0000ff"
         x="57"
         y="0"
         id="rect15333"
         width="3"
         height="30" />
      <rect
         style="fill:#0000ff"
         x="61"
         y="0"
         id="rect15335"
         width="1"
         height="30" />
      <rect
         style="fill:#0000ff"
         x="64"
         y="0"
         id="rect15337"
         width="3"
         height="30" />
      <rect
         style="fill:#0000ff"
         x="69"
         y="0"
         id="rect15339"
         width="1"
         height="30" />
      <rect
         style="fill:#0000ff"
         x="71"
         y="0"
         id="rect15341"
         width="2"
         height="30" />
      <rect
         style="fill:#0000ff"
         x="75"
         y="0"
         id="rect15343"
         width="2"
         height="30" />
      <rect
         style="fill:#0000ff"
         x="78"
         y="0"
         id="rect15345"
         width="2"
         height="30" />
      <rect
         style="fill:#0000ff"
         x="81"
         y="0"
         id="rect15347"
         width="2"
         height="30" />
      <rect
         style="fill:#0000ff"
         x="85"
         y="0"
         id="rect15349"
         width="1"
         height="30" />
      <rect
         style="fill:#0000ff"
         x="88"
         y="0"
         id="rect15351"
         width="1"
         height="30" />
      <rect
         style="fill:#0000ff"
         x="92"
         y="0"
         id="rect15353"
         width="1"
         height="34" />
      <rect
         style="fill:#0000ff"
         x="94"
         y="0"
         id="rect15355"
         width="1"
         height="34" />
      <text
         x="47"
         y="39"
         style="font-size:9px;text-align:center;text-anchor:middle;fill:#0000ff"
         xml:space="preserve"
         id="text15357">1    234567     890128       </text>
    </g>
  </g>
  <g
     transform="matrix(3.9998022,0,0,3.9998022,-392.66116,-92.246758)"
     id="g15429">
    <rect
       style="opacity:1;fill:#ffffff;fill-opacity:1;fill-rule:nonzero;stroke:none;stroke-width:1.3803829;stroke-linecap:round;stroke-linejoin:round;stroke-miterlimit:4;stroke-dasharray:none;stroke-opacity:1;paint-order:markers fill stroke"
       id="rect15363"
       width="11.847402"
       height="4.8099804"
       x="108.47335"
       y="27.220762"
       ry="0.98053801" />
    <g
       transform="matrix(0.09130646,0,0,0.09130646,110.06051,27.839458)"
       style="fill:#0000ff"
       id="g15427">
      <rect
         height="34"
         width="1"
         id="rect15365"
         y="0"
         x="0"
         style="fill:#0000ff" />
      <rect
         height="34"
         width="1"
         id="rect15367"
         y="0"
         x="2"
         style="fill:#0000ff" />
      <rect
         height="30"
         width="1"
         id="rect15369"
         y="0"
         x="5"
         style="fill:#0000ff" />
      <rect
         height="30"
         width="2"
         id="rect15371"
         y="0"
         x="8"
         style="fill:#0000ff" />
      <rect
         height="30"
         width="4"
         id="rect15373"
         y="0"
         x="11"
         style="fill:#0000ff" />
      <rect
         height="30"
         width="1"
         id="rect15375"
         y="0"
         x="16"
         style="fill:#0000ff" />
      <rect
         height="30"
         width="3"
         id="rect15377"
         y="0"
         x="19"
         style="fill:#0000ff" />
      <rect
         height="30"
         width="1"
         id="rect15379"
         y="0"
         x="23"
         style="fill:#0000ff" />
      <rect
         height="30"
         width="2"
         id="rect15381"
         y="0"
         x="25"
         style="fill:#0000ff" />
      <rect
         height="30"
         width="1"
         id="rect15383"
         y="0"
         x="30"
         style="fill:#0000ff" />
      <rect
         height="30"
         width="1"
         id="rect15385"
         y="0"
         x="35"
         style="fill:#0000ff" />
      <rect
         height="30"
         width="1"
         id="rect15387"
         y="0"
         x="37"
         style="fill:#0000ff" />
      <rect
         height="30"
         width="1"
         id="rect15389"
         y="0"
         x="40"
         style="fill:#0000ff" />
      <rect
         height="30"
         width="1"
         id="rect15391"
         y="0"
         x="44"
         style="fill:#0000ff" />
      <rect
         height="34"
         width="1"
         id="rect15393"
         y="0"
         x="46"
         style="fill:#0000ff" />
      <rect
         height="34"
         width="1"
         id="rect15395"
         y="0"
         x="48"
         style="fill:#0000ff" />
      <rect
         height="30"
         width="1"
         id="rect15397"
         y="0"
         x="50"
         style="fill:#0000ff" />
      <rect
         height="30"
         width="1"
         id="rect15399"
         y="0"
         x="53"
         style="fill:#0000ff" />
      <rect
         height="30"
         width="3"
         id="rect15401"
         y="0"
         x="57"
         style="fill:#0000ff" />
      <rect
         height="30"
         width="1"
         id="rect15403"
         y="0"
         x="61"
         style="fill:#0000ff" />
      <rect
         height="30"
         width="3"
         id="rect15405"
         y="0"
         x="64"
         style="fill:#0000ff" />
      <rect
         height="30"
         width="1"
         id="rect15407"
         y="0"
         x="69"
         style="fill:#0000ff" />
      <rect
         height="30"
         width="2"
         id="rect15409"
         y="0"
         x="71"
         style="fill:#0000ff" />
      <rect
         height="30"
         width="2"
         id="rect15411"
         y="0"
         x="75"
         style="fill:#0000ff" />
      <rect
         height="30"
         width="2"
         id="rect15413"
         y="0"
         x="78"
         style="fill:#0000ff" />
      <rect
         height="30"
         width="2"
         id="rect15415"
         y="0"
         x="81"
         style="fill:#0000ff" />
      <rect
         height="30"
         width="1"
         id="rect15417"
         y="0"
         x="85"
         style="fill:#0000ff" />
      <rect
         height="30"
         width="1"
         id="rect15419"
         y="0"
         x="88"
         style="fill:#0000ff" />
      <rect
         height="34"
         width="1"
         id="rect15421"
         y="0"
         x="92"
         style="fill:#0000ff" />
      <rect
         height="34"
         width="1"
         id="rect15423"
         y="0"
         x="94"
         style="fill:#0000ff" />
      <text
         id="text15425"
         xml:space="preserve"
         style="font-size:9px;text-align:center;text-anchor:middle;fill:#0000ff"
         y="39"
         x="47">1    234567     890128       </text>
    </g>
  </g>
  <path
     style="color:#000000;font-style:normal;font-variant:normal;font-weight:normal;font-stretch:normal;font-size:medium;line-height:normal;font-family:sans-serif;font-variant-ligatures:normal;font-variant-position:normal;font-variant-caps:normal;font-variant-numeric:normal;font-variant-alternates:normal;font-feature-settings:normal;text-indent:0;text-align:start;text-decoration:none;text-decoration-line:none;text-decoration-style:solid;text-decoration-color:#000000;letter-spacing:normal;word-spacing:normal;text-transform:none;writing-mode:lr-tb;direction:ltr;text-orientation:mixed;dominant-baseline:auto;baseline-shift:baseline;text-anchor:start;white-space:normal;shape-padding:0;clip-rule:nonzero;display:inline;overflow:visible;visibility:visible;opacity:1;isolation:auto;mix-blend-mode:normal;color-interpolation:sRGB;color-interpolation-filters:linearRGB;solid-color:#000000;solid-opacity:1;vector-effect:none;fill:#0000ff;fill-opacity:1;fill-rule:nonzero;stroke:none;stroke-width:2.02196407;stroke-linecap:round;stroke-linejoin:round;stroke-miterlimit:4;stroke-dasharray:none;stroke-dashoffset:0;stroke-opacity:1;paint-order:markers fill stroke;color-rendering:auto;image-rendering:auto;shape-rendering:auto;text-rendering:auto;enable-background:accumulate"
     d="m 64.903113,10.785805 c -8.558595,0 -16.314246,1.665533 -22.017821,4.423046 -5.703573,2.757513 -9.506916,6.702923 -9.506916,11.341954 0,4.639032 3.803343,8.584442 9.506916,11.341955 5.703575,2.757513 13.459226,4.420414 22.017821,4.420414 0.295477,0 -11.157228,14.64304 -10.863715,14.639099 8.208152,-0.110197 27.374871,-16.397201 32.881533,-19.059513 5.703577,-2.757513 9.509547,-6.702923 9.509547,-11.341955 0,-4.639031 -3.80597,-8.584441 -9.509547,-11.341954 -5.703573,-2.757513 -13.459224,-4.423046 -22.017818,-4.423046 z m 0,2.021964 c 8.294437,0 15.797749,1.638237 21.138474,4.220322 5.340731,2.582088 8.366931,6.013792 8.366931,9.522714 0,3.508923 -3.02621,6.937993 -8.366931,9.52008 -4.346544,2.101429 -21.411029,17.416651 -27.883059,17.893482 -0.547871,0.04036 10.64734,-13.711007 9.997509,-13.696074 -1.106006,0.02541 -2.280345,0.02291 -3.252924,0.02291 -8.294439,0 -15.797751,-1.638237 -21.138477,-4.220324 -5.340725,-2.582086 -8.364296,-6.011158 -8.364296,-9.520081 0,-3.508921 3.023571,-6.940626 8.364296,-9.522713 5.340726,-2.582084 12.844038,-4.220321 21.138477,-4.220321 z"
     id="path15431"
     inkscape:connector-curvature="0"
     sodipodi:nodetypes="sssssssssssssssssssss" />
</svg>
