<?xml version="1.0" encoding="UTF-8" standalone="no"?>
<!-- Created with Inkscape (http://www.inkscape.org/) -->

<svg
   xmlns:dc="http://purl.org/dc/elements/1.1/"
   xmlns:cc="http://creativecommons.org/ns#"
   xmlns:rdf="http://www.w3.org/1999/02/22-rdf-syntax-ns#"
   xmlns:svg="http://www.w3.org/2000/svg"
   xmlns="http://www.w3.org/2000/svg"
   xmlns:sodipodi="http://sodipodi.sourceforge.net/DTD/sodipodi-0.dtd"
   xmlns:inkscape="http://www.inkscape.org/namespaces/inkscape"
   width="655"
   height="532"
   viewBox="0 0 173.3021 140.75833"
   version="1.1"
   id="svg8"
   inkscape:version="0.92.2 (5c3e80d, 2017-08-06)"
   sodipodi:docname="SezioneLavaggio.svg">
  <sodipodi:namedview
     id="base"
     pagecolor="#ffffff"
     bordercolor="#666666"
     borderopacity="1.0"
     inkscape:pageopacity="0.0"
     inkscape:pageshadow="2"
     inkscape:zoom="1"
     inkscape:cx="112.51737"
     inkscape:cy="196.65238"
     inkscape:document-units="mm"
     inkscape:current-layer="layer1"
     showgrid="true"
     units="px"
     inkscape:window-width="1920"
     inkscape:window-height="1003"
     inkscape:window-x="-9"
     inkscape:window-y="-9"
     inkscape:window-maximized="1"
     showguides="true"
     inkscape:guide-bbox="true"
     inkscape:snap-bbox="true"
     inkscape:snap-bbox-edge-midpoints="false"
     inkscape:snap-midpoints="false"
     inkscape:snap-bbox-midpoints="true"
     inkscape:snap-grids="true"
     inkscape:snap-center="false"
     inkscape:snap-object-midpoints="false"
     inkscape:bbox-nodes="true"
     inkscape:bbox-paths="false"
     inkscape:snap-intersection-paths="false"
     inkscape:snap-smooth-nodes="false"
     inkscape:object-nodes="false"
     inkscape:object-paths="false"
     inkscape:snap-to-guides="false"
     inkscape:snap-page="false"
     inkscape:snap-others="false">
    <inkscape:grid
       type="xygrid"
       id="grid1756"
       spacingx="28.883682"
       spacingy="12.796214"
       empspacing="1" />
    <sodipodi:guide
       position="57.767368,140.75836"
       orientation="1,0"
       id="guide1758"
       inkscape:locked="false" />
    <sodipodi:guide
       position="115.53474,76.777282"
       orientation="0,1"
       id="guide1762"
       inkscape:locked="false" />
    <sodipodi:guide
       position="-158.48542,83.343753"
       orientation="1,0"
       id="guide1783"
       inkscape:locked="false" />
    <sodipodi:guide
       position="-155.60757,56.966548"
       orientation="0,1"
       id="guide1950"
       inkscape:locked="false" />
  </sodipodi:namedview>
  <defs
     id="defs2" />
  <metadata
     id="metadata5">
    <rdf:RDF>
      <cc:Work
         rdf:about="">
        <dc:format>image/svg+xml</dc:format>
        <dc:type
           rdf:resource="http://purl.org/dc/dcmitype/StillImage" />
        <dc:title></dc:title>
      </cc:Work>
    </rdf:RDF>
  </metadata>
  <g
     inkscape:label="Sezione Lavaggio"
     inkscape:groupmode="layer"
     id="layer1"
     transform="translate(0,-156.24165)">
    <path
       style="opacity:1;fill:#0000ff;fill-opacity:1;fill-rule:nonzero;stroke:none;stroke-width:3.40325284;stroke-linecap:round;stroke-linejoin:round;stroke-miterlimit:4;stroke-dasharray:none;stroke-opacity:1;paint-order:markers fill stroke"
       d="m 18.511692,171.50711 c -2.413643,0.002 -4.356323,4.53814 -4.356323,10.17199 v 49.8197 5.07153 15.55408 3.1626 0.15762 h -0.0037 a 6.7162239,11.51058 0 0 1 -6.7127501,11.35279 4.4022186,7.468654 0 0 0 -0.4395507,0.0372 4.4022186,7.468654 0 0 0 -0.4354017,0.11162 4.4022186,7.468654 0 0 0 -0.4261775,0.18448 4.4022186,7.468654 0 0 0 -0.4132626,0.2558 4.4022186,7.468654 0 0 0 -0.3961983,0.32505 4.4022186,7.468654 0 0 0 -0.3749801,0.39015 4.4022186,7.468654 0 0 0 -0.3505341,0.45217 4.4022186,7.468654 0 0 0 -0.3219384,0.50901 4.4022186,7.468654 0 0 0 -0.2905756,0.56069 4.4022186,7.468654 0 0 0 -0.2555213,0.6072 4.4022186,7.468654 0 0 0 -0.2190859,0.64699 4.4022186,7.468654 0 0 0 -0.1798801,0.68213 4.4022186,7.468654 0 0 0 -0.1388303,0.70797 4.4022186,7.468654 0 0 0 -0.096396,0.72864 4.4022186,7.468654 0 0 0 -0.053042,0.74052 4.4022186,7.468654 0 0 0 -0.011531,0.52865 4.4022186,7.468654 0 0 0 0.021679,0.74621 4.4022186,7.468654 0 0 0 0.065957,0.73794 4.4022186,7.468654 0 0 0 0.1083881,0.72295 4.4022186,7.468654 0 0 0 0.1512848,0.70177 4.4022186,7.468654 0 0 0 0.191409,0.67179 4.4022186,7.468654 0 0 0 0.2296938,0.63665 4.4022186,7.468654 0 0 0 0.2665896,0.59428 4.4022186,7.468654 0 0 0 0.2998019,0.54622 4.4022186,7.468654 0 0 0 0.330702,0.493 4.4022186,7.468654 0 0 0 0.3574534,0.43408 4.4022186,7.468654 0 0 0 0.3818993,0.37155 4.4022186,7.468654 0 0 0 0.4017314,0.30489 4.4022186,7.468654 0 0 0 0.417414,0.23565 4.4022186,7.468654 0 0 0 0.4298661,0.16278 4.4022186,7.468654 0 0 0 0.3676006,0.0765 15.431884,26.447885 0 0 0 0.3805157,0.0326 15.431884,26.447885 0 0 0 15.431389,-26.44748 v -73.60842 c 0,-5.63386 -1.942677,-10.16974 -4.356321,-10.17148 h -4.62e-4 z m 10.350471,0 c -2.414287,0 -4.358166,4.0662 -4.358166,9.11676 v 86.98694 c -0.324666,3.13399 -4.67918,7.24559 -4.679184,9.34 -3e-6,3.59177 4.926573,4.78368 9.03735,4.78368 4.110775,0 8.946027,-1.04101 8.946027,-4.63279 -5e-6,-2.16107 -4.550103,-6.65317 -4.565721,-9.80612 -0.0011,-0.21156 -0.0101,-0.40509 -0.0226,-0.58963 v -86.08208 c 0,-5.05056 -1.943399,-9.11676 -4.357706,-9.11676 z m 10.350012,0 c -2.414293,0 -4.357706,4.53654 -4.357706,10.17148 v 73.60842 a 15.431884,26.447885 0 0 0 15.43139,26.44748 15.431884,26.447885 0 0 0 0.380513,-0.0326 4.4022186,7.468654 0 0 0 0.367602,-0.0765 4.4022186,7.468654 0 0 0 0.429867,-0.16278 4.4022186,7.468654 0 0 0 0.417413,-0.23565 4.4022186,7.468654 0 0 0 0.401731,-0.30489 4.4022186,7.468654 0 0 0 0.3819,-0.37155 4.4022186,7.468654 0 0 0 0.357454,-0.43408 4.4022186,7.468654 0 0 0 0.330702,-0.493 4.4022186,7.468654 0 0 0 0.299799,-0.54622 4.4022186,7.468654 0 0 0 0.266592,-0.59428 4.4022186,7.468654 0 0 0 0.229692,-0.63665 4.4022186,7.468654 0 0 0 0.191871,-0.67179 4.4022186,7.468654 0 0 0 0.150822,-0.70177 4.4022186,7.468654 0 0 0 0.108391,-0.72295 4.4022186,7.468654 0 0 0 0.06596,-0.73846 4.4022186,7.468654 0 0 0 0.02215,-0.74569 4.4022186,7.468654 0 0 0 -0.01107,-0.52865 4.4022186,7.468654 0 0 0 -0.05304,-0.74052 4.4022186,7.468654 0 0 0 -0.0964,-0.72864 4.4022186,7.468654 0 0 0 -0.138829,-0.70797 4.4022186,7.468654 0 0 0 -0.179882,-0.68213 4.4022186,7.468654 0 0 0 -0.219085,-0.6475 4.4022186,7.468654 0 0 0 -0.255521,-0.60669 4.4022186,7.468654 0 0 0 -0.290576,-0.56069 4.4022186,7.468654 0 0 0 -0.321939,-0.50901 4.4022186,7.468654 0 0 0 -0.350534,-0.45217 4.4022186,7.468654 0 0 0 -0.37498,-0.39015 4.4022186,7.468654 0 0 0 -0.396198,-0.32505 4.4022186,7.468654 0 0 0 -0.413262,-0.2558 4.4022186,7.468654 0 0 0 -0.426176,-0.18448 4.4022186,7.468654 0 0 0 -0.435404,-0.11214 4.4022186,7.468654 0 0 0 -0.43955,-0.0367 6.7162239,11.51058 0 0 1 -6.712749,-11.35279 h -0.0032 v -0.15762 -3.1626 -15.55408 -5.07153 -49.8197 c 0,-5.63494 -1.943412,-10.17199 -4.357705,-10.17199 z"
       id="path1922"
       inkscape:connector-curvature="0"
       inkscape:label="Acqua" />
    <path
       inkscape:label="Acqua"
       inkscape:connector-curvature="0"
       id="path1960"
       d="m 76.279051,171.50711 c -2.413642,0.002 -4.356323,4.53814 -4.356323,10.17199 v 49.8197 5.07153 15.55408 3.1626 0.15762 h -0.0037 a 6.7162239,11.51058 0 0 1 -6.712749,11.35279 4.4022186,7.468654 0 0 0 -0.439551,0.0372 4.4022186,7.468654 0 0 0 -0.435401,0.11162 4.4022186,7.468654 0 0 0 -0.426178,0.18448 4.4022186,7.468654 0 0 0 -0.413263,0.2558 4.4022186,7.468654 0 0 0 -0.396199,0.32505 4.4022186,7.468654 0 0 0 -0.37498,0.39015 4.4022186,7.468654 0 0 0 -0.350533,0.45217 4.4022186,7.468654 0 0 0 -0.321939,0.50901 4.4022186,7.468654 0 0 0 -0.290575,0.56069 4.4022186,7.468654 0 0 0 -0.255521,0.6072 4.4022186,7.468654 0 0 0 -0.219086,0.64699 4.4022186,7.468654 0 0 0 -0.17988,0.68213 4.4022186,7.468654 0 0 0 -0.138831,0.70797 4.4022186,7.468654 0 0 0 -0.09639,0.72864 4.4022186,7.468654 0 0 0 -0.05304,0.74052 4.4022186,7.468654 0 0 0 -0.01153,0.52865 4.4022186,7.468654 0 0 0 0.02168,0.74621 4.4022186,7.468654 0 0 0 0.06596,0.73794 4.4022186,7.468654 0 0 0 0.108388,0.72295 4.4022186,7.468654 0 0 0 0.151285,0.70177 4.4022186,7.468654 0 0 0 0.191409,0.67179 4.4022186,7.468654 0 0 0 0.229694,0.63665 4.4022186,7.468654 0 0 0 0.26659,0.59428 4.4022186,7.468654 0 0 0 0.299801,0.54622 4.4022186,7.468654 0 0 0 0.330702,0.493 4.4022186,7.468654 0 0 0 0.357453,0.43408 4.4022186,7.468654 0 0 0 0.3819,0.37155 4.4022186,7.468654 0 0 0 0.401732,0.30489 4.4022186,7.468654 0 0 0 0.417414,0.23565 4.4022186,7.468654 0 0 0 0.429866,0.16278 4.4022186,7.468654 0 0 0 0.367601,0.0765 15.431884,26.447885 0 0 0 0.380515,0.0326 15.431884,26.447885 0 0 0 15.431389,-26.44748 v -73.60842 c 0,-5.63386 -1.942677,-10.16974 -4.356321,-10.17148 h -4.62e-4 z m 10.350471,0 c -2.414286,0 -4.358165,4.0662 -4.358165,9.11676 v 86.98694 c -0.324666,3.13399 -4.679181,7.24559 -4.679185,9.34 -2e-6,3.59177 4.926573,4.78368 9.03735,4.78368 4.110776,0 8.946027,-1.04101 8.946027,-4.63279 -5e-6,-2.16107 -4.550102,-6.65317 -4.565721,-9.80612 -0.0011,-0.21156 -0.01009,-0.40509 -0.0226,-0.58963 v -86.08208 c 0,-5.05056 -1.943399,-9.11676 -4.357708,-9.11676 z m 10.350013,0 c -2.414293,0 -4.357707,4.53654 -4.357707,10.17148 v 73.60842 a 15.431884,26.447885 0 0 0 15.431392,26.44748 15.431884,26.447885 0 0 0 0.38052,-0.0326 4.4022186,7.468654 0 0 0 0.3676,-0.0765 4.4022186,7.468654 0 0 0 0.42986,-0.16278 4.4022186,7.468654 0 0 0 0.41742,-0.23565 4.4022186,7.468654 0 0 0 0.40173,-0.30489 4.4022186,7.468654 0 0 0 0.3819,-0.37155 4.4022186,7.468654 0 0 0 0.35745,-0.43408 4.4022186,7.468654 0 0 0 0.33071,-0.493 4.4022186,7.468654 0 0 0 0.29979,-0.54622 4.4022186,7.468654 0 0 0 0.26659,-0.59428 4.4022186,7.468654 0 0 0 0.2297,-0.63665 4.4022186,7.468654 0 0 0 0.19188,-0.67179 4.4022186,7.468654 0 0 0 0.15081,-0.70177 4.4022186,7.468654 0 0 0 0.1084,-0.72295 4.4022186,7.468654 0 0 0 0.0659,-0.73846 4.4022186,7.468654 0 0 0 0.0222,-0.74569 4.4022186,7.468654 0 0 0 -0.0111,-0.52865 4.4022186,7.468654 0 0 0 -0.053,-0.74052 4.4022186,7.468654 0 0 0 -0.0964,-0.72864 4.4022186,7.468654 0 0 0 -0.13884,-0.70797 4.4022186,7.468654 0 0 0 -0.17988,-0.68213 4.4022186,7.468654 0 0 0 -0.21908,-0.6475 4.4022186,7.468654 0 0 0 -0.25552,-0.60669 4.4022186,7.468654 0 0 0 -0.29058,-0.56069 4.4022186,7.468654 0 0 0 -0.32194,-0.50901 4.4022186,7.468654 0 0 0 -0.35053,-0.45217 4.4022186,7.468654 0 0 0 -0.37498,-0.39015 4.4022186,7.468654 0 0 0 -0.3962,-0.32505 4.4022186,7.468654 0 0 0 -0.41326,-0.2558 4.4022186,7.468654 0 0 0 -0.42617,-0.18448 4.4022186,7.468654 0 0 0 -0.43541,-0.11214 4.4022186,7.468654 0 0 0 -0.43955,-0.0367 6.7162239,11.51058 0 0 1 -6.71275,-11.35279 h -0.003 v -0.15762 -3.1626 -15.55408 -5.07153 -49.8197 c 0,-5.63494 -1.94342,-10.17199 -4.357712,-10.17199 z"
       style="opacity:1;fill:#ff0000;fill-opacity:1;fill-rule:nonzero;stroke:none;stroke-width:3.40325284;stroke-linecap:round;stroke-linejoin:round;stroke-miterlimit:4;stroke-dasharray:none;stroke-opacity:1;paint-order:markers fill stroke" />
    <path
       style="opacity:1;fill:#00ff00;fill-opacity:1;fill-rule:nonzero;stroke:none;stroke-width:3.40325284;stroke-linecap:round;stroke-linejoin:round;stroke-miterlimit:4;stroke-dasharray:none;stroke-opacity:1;paint-order:markers fill stroke"
       d="m 134.08962,171.50711 c -2.41364,0.002 -4.35632,4.53814 -4.35632,10.17199 v 49.8197 5.07153 15.55408 3.1626 0.15762 h -0.004 a 6.7162239,11.51058 0 0 1 -6.71274,11.35279 4.4022186,7.468654 0 0 0 -0.43956,0.0372 4.4022186,7.468654 0 0 0 -0.4354,0.11162 4.4022186,7.468654 0 0 0 -0.42618,0.18448 4.4022186,7.468654 0 0 0 -0.41326,0.2558 4.4022186,7.468654 0 0 0 -0.3962,0.32505 4.4022186,7.468654 0 0 0 -0.37498,0.39015 4.4022186,7.468654 0 0 0 -0.35053,0.45217 4.4022186,7.468654 0 0 0 -0.32194,0.50901 4.4022186,7.468654 0 0 0 -0.29058,0.56069 4.4022186,7.468654 0 0 0 -0.25551,0.6072 4.4022186,7.468654 0 0 0 -0.21909,0.64699 4.4022186,7.468654 0 0 0 -0.17988,0.68213 4.4022186,7.468654 0 0 0 -0.13884,0.70797 4.4022186,7.468654 0 0 0 -0.0964,0.72864 4.4022186,7.468654 0 0 0 -0.053,0.74052 4.4022186,7.468654 0 0 0 -0.0116,0.52865 4.4022186,7.468654 0 0 0 0.0217,0.74621 4.4022186,7.468654 0 0 0 0.0659,0.73794 4.4022186,7.468654 0 0 0 0.1084,0.72295 4.4022186,7.468654 0 0 0 0.15128,0.70177 4.4022186,7.468654 0 0 0 0.19141,0.67179 4.4022186,7.468654 0 0 0 0.22969,0.63665 4.4022186,7.468654 0 0 0 0.2666,0.59428 4.4022186,7.468654 0 0 0 0.29979,0.54622 4.4022186,7.468654 0 0 0 0.3307,0.493 4.4022186,7.468654 0 0 0 0.35745,0.43408 4.4022186,7.468654 0 0 0 0.3819,0.37155 4.4022186,7.468654 0 0 0 0.40174,0.30489 4.4022186,7.468654 0 0 0 0.41741,0.23565 4.4022186,7.468654 0 0 0 0.42987,0.16278 4.4022186,7.468654 0 0 0 0.36759,0.0765 15.431884,26.447885 0 0 0 0.38052,0.0326 15.431884,26.447885 0 0 0 15.43139,-26.44748 v -73.60842 c 0,-5.63386 -1.94268,-10.16974 -4.35632,-10.17148 h -4.6e-4 z m 10.35047,0 c -2.41428,0 -4.35817,4.0662 -4.35817,9.11676 v 86.98694 c -0.32466,3.13399 -4.67917,7.24559 -4.67918,9.34 0,3.59177 4.92658,4.78368 9.03735,4.78368 4.11077,0 8.94604,-1.04101 8.94604,-4.63279 0,-2.16107 -4.55012,-6.65317 -4.56574,-9.80612 -9.7e-4,-0.21156 -0.0101,-0.40509 -0.0226,-0.58963 v -86.08208 c 0,-5.05056 -1.9434,-9.11676 -4.3577,-9.11676 z m 10.35002,0 c -2.41429,0 -4.35771,4.53654 -4.35771,10.17148 v 73.60842 a 15.431884,26.447885 0 0 0 15.43139,26.44748 15.431884,26.447885 0 0 0 0.38051,-0.0326 4.4022186,7.468654 0 0 0 0.3676,-0.0765 4.4022186,7.468654 0 0 0 0.42987,-0.16278 4.4022186,7.468654 0 0 0 0.41741,-0.23565 4.4022186,7.468654 0 0 0 0.40173,-0.30489 4.4022186,7.468654 0 0 0 0.38191,-0.37155 4.4022186,7.468654 0 0 0 0.35744,-0.43408 4.4022186,7.468654 0 0 0 0.33071,-0.493 4.4022186,7.468654 0 0 0 0.29979,-0.54622 4.4022186,7.468654 0 0 0 0.2666,-0.59428 4.4022186,7.468654 0 0 0 0.22969,-0.63665 4.4022186,7.468654 0 0 0 0.19188,-0.67179 4.4022186,7.468654 0 0 0 0.15081,-0.70177 4.4022186,7.468654 0 0 0 0.1084,-0.72295 4.4022186,7.468654 0 0 0 0.0659,-0.73846 4.4022186,7.468654 0 0 0 0.0222,-0.74569 4.4022186,7.468654 0 0 0 -0.0111,-0.52865 4.4022186,7.468654 0 0 0 -0.053,-0.74052 4.4022186,7.468654 0 0 0 -0.0964,-0.72864 4.4022186,7.468654 0 0 0 -0.13884,-0.70797 4.4022186,7.468654 0 0 0 -0.17987,-0.68213 4.4022186,7.468654 0 0 0 -0.21909,-0.6475 4.4022186,7.468654 0 0 0 -0.25552,-0.60669 4.4022186,7.468654 0 0 0 -0.29058,-0.56069 4.4022186,7.468654 0 0 0 -0.32194,-0.50901 4.4022186,7.468654 0 0 0 -0.35053,-0.45217 4.4022186,7.468654 0 0 0 -0.37498,-0.39015 4.4022186,7.468654 0 0 0 -0.39619,-0.32505 4.4022186,7.468654 0 0 0 -0.41327,-0.2558 4.4022186,7.468654 0 0 0 -0.42617,-0.18448 4.4022186,7.468654 0 0 0 -0.43541,-0.11214 4.4022186,7.468654 0 0 0 -0.43955,-0.0367 6.7162239,11.51058 0 0 1 -6.71274,-11.35279 h -0.003 v -0.15762 -3.1626 -15.55408 -5.07153 -49.8197 c 0,-5.63494 -1.94341,-10.17199 -4.3577,-10.17199 z"
       id="path1962"
       inkscape:connector-curvature="0"
       inkscape:label="Acqua" />
  </g>
</svg>
