<?xml version="1.0" encoding="UTF-8" standalone="no"?>
<svg
   xmlns:dc="http://purl.org/dc/elements/1.1/"
   xmlns:cc="http://creativecommons.org/ns#"
   xmlns:rdf="http://www.w3.org/1999/02/22-rdf-syntax-ns#"
   xmlns:svg="http://www.w3.org/2000/svg"
   xmlns="http://www.w3.org/2000/svg"
   xmlns:sodipodi="http://sodipodi.sourceforge.net/DTD/sodipodi-0.dtd"
   xmlns:inkscape="http://www.inkscape.org/namespaces/inkscape"
   id="svg8"
   version="1.1"
   viewBox="0 0 173.3021 140.75833"
   height="532"
   width="655"
   sodipodi:docname="SezioneLavaggioL.svg"
   inkscape:version="0.92.2 (5c3e80d, 2017-08-06)">
  <sodipodi:namedview
     pagecolor="#ffffff"
     bordercolor="#666666"
     borderopacity="1"
     objecttolerance="10"
     gridtolerance="10"
     guidetolerance="10"
     inkscape:pageopacity="0"
     inkscape:pageshadow="2"
     inkscape:window-width="1920"
     inkscape:window-height="1003"
     id="namedview839"
     showgrid="false"
     inkscape:zoom="0.70710678"
     inkscape:cx="627.61959"
     inkscape:cy="269.77192"
     inkscape:window-x="-9"
     inkscape:window-y="-9"
     inkscape:window-maximized="1"
     inkscape:current-layer="svg8" />
  <defs
     id="defs2" />
  <metadata
     id="metadata5">
    <rdf:RDF>
      <cc:Work
         rdf:about="">
        <dc:format>image/svg+xml</dc:format>
        <dc:type
           rdf:resource="http://purl.org/dc/dcmitype/StillImage" />
        <dc:title></dc:title>
      </cc:Work>
    </rdf:RDF>
  </metadata>
  <g
     transform="matrix(1.11949,0,0,1.11949,11.304591,-141.12709)"
     id="g5361">
    <path
       inkscape:connector-curvature="0"
       style="opacity:1;fill:#0000ff;fill-opacity:1;fill-rule:nonzero;stroke:none;stroke-width:1.2648145;stroke-linecap:round;stroke-linejoin:round;stroke-miterlimit:4;stroke-dasharray:none;stroke-opacity:1;paint-order:markers fill stroke"
       d="m 25.548337,179.04275 c -4.179599,0.12622 -14.73943,7.98648 -14.744483,10.99798 h -6.64e-4 v 14.24594 h 0.0033 c 0.0396,0.58813 0.513784,0.97477 1.562293,1.0564 h 28.440101 c 4.128133,-0.12466 14.48021,-7.79392 14.739418,-10.88442 h 0.0056 v -14.43467 h -0.01111 c -0.07421,-0.54573 -0.551368,-0.90313 -1.55445,-0.98123 z m 1.189899,0.94659 H 50.74308 c 5.318251,0.41409 -6.851853,10.1165 -11.123968,10.24552 H 15.614267 c -5.31825,-0.41409 6.851853,-10.1165 11.123969,-10.24552 z m 0.76734,1.61131 c -3.743522,0.0936 -14.407843,7.13638 -9.747628,7.43695 H 38.79262 c 3.743526,-0.0936 14.407849,-7.13637 9.747628,-7.43695 z m -0.609656,0.41946 a 2.1559932,2.1559932 0 0 0 2.155936,2.15593 2.1559932,2.1559932 0 0 0 2.156099,-2.15593 2.1559932,2.1559932 0 0 0 2.155936,2.15593 2.1559932,2.1559932 0 0 0 2.155935,-2.15593 2.1559932,2.1559932 0 0 0 2.1561,2.15593 2.1559932,2.1559932 0 0 0 2.155936,-2.15593 2.1559932,2.1559932 0 0 0 2.155936,2.15593 2.1559932,2.1559932 0 0 0 2.156099,-2.15446 2.1559932,2.1559932 0 0 0 1.580921,2.07619 v 0.85787 a 2.1559932,2.1559932 0 0 1 -1.580921,-2.07619 2.1559932,2.1559932 0 0 1 -2.156099,2.15446 2.1559932,2.1559932 0 0 1 -2.155936,-2.15593 2.1559932,2.1559932 0 0 1 -2.155936,2.15593 2.1559932,2.1559932 0 0 1 -2.1561,-2.15593 2.1559932,2.1559932 0 0 1 -2.155935,2.15593 2.1559932,2.1559932 0 0 1 -2.155936,-2.15593 2.1559932,2.1559932 0 0 1 -2.156099,2.15593 2.1559932,2.1559932 0 0 1 -2.155936,-2.15593 2.1559932,2.1559932 0 0 1 -1.581085,2.07554 v -0.85787 a 2.1559932,2.1559932 0 0 0 1.581085,-2.07554 z m -5.521705,2.88635 a 2.1559932,2.1559932 0 0 0 2.155935,2.15593 2.1559932,2.1559932 0 0 0 2.156099,-2.15593 2.1559932,2.1559932 0 0 0 2.155936,2.15593 2.1559932,2.1559932 0 0 0 2.155936,-2.15593 2.1559932,2.1559932 0 0 0 2.156099,2.15593 2.1559932,2.1559932 0 0 0 2.155936,-2.15593 2.1559932,2.1559932 0 0 0 2.155936,2.15593 2.1559932,2.1559932 0 0 0 2.156099,-2.15446 2.1559932,2.1559932 0 0 0 1.580922,2.07619 v 0.85787 a 2.1559932,2.1559932 0 0 1 -1.580922,-2.0762 2.1559932,2.1559932 0 0 1 -2.156099,2.15447 2.1559932,2.1559932 0 0 1 -2.155936,-2.15594 2.1559932,2.1559932 0 0 1 -2.155936,2.15594 2.1559932,2.1559932 0 0 1 -2.156099,-2.15594 2.1559932,2.1559932 0 0 1 -2.155936,2.15594 2.1559932,2.1559932 0 0 1 -2.155936,-2.15594 2.1559932,2.1559932 0 0 1 -2.156099,2.15594 2.1559932,2.1559932 0 0 1 -2.155935,-2.15594 2.1559932,2.1559932 0 0 1 -1.581086,2.07554 V 186.982 a 2.1559932,2.1559932 0 0 0 1.581086,-2.07554 z"
       id="path5307" />
    <g
       id="g5359"
       transform="matrix(0.22521498,0,0,0.22521498,46.592348,139.24027)">
      <path
         inkscape:connector-curvature="0"
         style="opacity:1;fill:#0000ff;fill-opacity:1;fill-rule:nonzero;stroke:none;stroke-width:2.66666698;stroke-linecap:round;stroke-linejoin:round;stroke-miterlimit:4;stroke-dasharray:none;stroke-opacity:1;paint-order:markers fill stroke"
         d="m -131.05712,149.44672 v 0.0284 a 9.6278953,12.796214 0 0 0 -9.19789,12.7677 9.6278953,12.796214 0 0 0 9.19789,12.77596 v 0.0202 a 25.267707,25.267707 0 0 1 25.26771,25.26771 h 0.0584 a 4.2714862,4.2714862 0 0 0 -0.0584,0.67128 4.2714862,4.2714862 0 0 0 4.27157,4.27157 4.2714862,4.2714862 0 0 0 4.271578,-4.27157 4.2714862,4.2714862 0 0 0 -0.05581,-0.67128 h 0.113689 a 4.2714862,4.2714862 0 0 0 -0.05788,0.67128 4.2714862,4.2714862 0 0 0 4.271574,4.27157 4.2714862,4.2714862 0 0 0 4.271057,-4.27157 4.2714862,4.2714862 0 0 0 -0.0553,-0.67128 h 0.113689 a 4.2714862,4.2714862 0 0 0 -0.05839,0.67128 4.2714862,4.2714862 0 0 0 4.271574,4.27157 4.2714862,4.2714862 0 0 0 4.271573,-4.27157 4.2714862,4.2714862 0 0 0 -0.05529,-0.67128 h 0.05529 a 50.897271,50.878612 0 0 0 -50.529734,-50.84703 h 16.03727 v -0.0129 h -15.97422 a 9.6278953,12.796214 0 0 0 -0.14883,0.01 50.897271,50.878612 0 0 0 -0.28112,-0.01 z"
         id="path5309" />
      <path
         inkscape:connector-curvature="0"
         style="opacity:1;fill:#0000ff;fill-opacity:1;fill-rule:nonzero;stroke:none;stroke-width:4.52380943;stroke-linecap:round;stroke-linejoin:round;stroke-miterlimit:4;stroke-dasharray:none;stroke-opacity:1;paint-order:markers fill stroke"
         d="m -179.83967,140.53512 a 16.333034,21.707863 0 0 0 -16.33285,21.70772 16.333034,21.707863 0 0 0 16.33285,21.70771 16.333034,21.707863 0 0 0 16.33337,-21.70771 16.333034,21.707863 0 0 0 -16.33337,-21.70772 z m 0,7.13393 a 10.965171,14.573558 0 0 1 10.96522,14.57379 10.965171,14.573558 0 0 1 -10.96522,14.57378 10.965171,14.573558 0 0 1 -10.96522,-14.57378 10.965171,14.573558 0 0 1 10.96522,-14.57379 z"
         id="path5311" />
      <path
         inkscape:connector-curvature="0"
         style="opacity:1;fill:#0000ff;fill-opacity:1;fill-rule:nonzero;stroke:none;stroke-width:2.66666698;stroke-linecap:round;stroke-linejoin:round;stroke-miterlimit:4;stroke-dasharray:none;stroke-opacity:1;paint-order:markers fill stroke"
         d="m -139.21871,174.27889 a 10.965171,14.573558 0 0 0 0.92449,0.75344 10.965171,14.573558 0 0 0 0.01,0.006 10.96517,14.573558 0 0 1 -0.93431,-0.75964 z"
         id="path5313" />
      <path
         inkscape:connector-curvature="0"
         style="opacity:1;fill:#0000ff;fill-opacity:1;fill-rule:nonzero;stroke:none;stroke-width:2.66666698;stroke-linecap:round;stroke-linejoin:round;stroke-miterlimit:4;stroke-dasharray:none;stroke-opacity:1;paint-order:markers fill stroke"
         d="m -140.09205,173.39884 a 10.965171,14.573558 0 0 0 0.86352,0.8723 10.965171,14.573558 0 0 0 0.01,0.008 10.96517,14.573558 0 0 1 -0.87333,-0.88005 z"
         id="path5315" />
      <path
         inkscape:connector-curvature="0"
         style="opacity:1;fill:#0000ff;fill-opacity:1;fill-rule:nonzero;stroke:none;stroke-width:2.66666698;stroke-linecap:round;stroke-linejoin:round;stroke-miterlimit:4;stroke-dasharray:none;stroke-opacity:1;paint-order:markers fill stroke"
         d="m -140.86202,172.44799 a 10.965171,14.573558 0 0 0 0.76067,0.94155 10.965171,14.573558 0 0 0 0.009,0.009 10.96517,14.573558 0 0 1 -0.76997,-0.95085 z"
         id="path5317" />
      <path
         inkscape:connector-curvature="0"
         style="opacity:1;fill:#0000ff;fill-opacity:1;fill-rule:nonzero;stroke:none;stroke-width:2.66666698;stroke-linecap:round;stroke-linejoin:round;stroke-miterlimit:4;stroke-dasharray:none;stroke-opacity:1;paint-order:markers fill stroke"
         d="m -141.50333,171.48836 a 10.965171,14.573558 0 0 0 0.59997,0.90796 10.965171,14.573558 0 0 0 0.008,0.01 10.96517,14.573558 0 0 1 -0.60772,-0.91778 z"
         id="path5319" />
      <path
         inkscape:connector-curvature="0"
         style="opacity:1;fill:#0000ff;fill-opacity:1;fill-rule:nonzero;stroke:none;stroke-width:2.66666698;stroke-linecap:round;stroke-linejoin:round;stroke-miterlimit:4;stroke-dasharray:none;stroke-opacity:1;paint-order:markers fill stroke"
         d="m -142.06763,170.48171 a 10.965171,14.573558 0 0 0 0.44131,0.8201 10.965171,14.573558 0 0 0 0.006,0.009 10.96517,14.573558 0 0 1 -0.44752,-0.82941 z"
         id="path5321" />
      <path
         inkscape:connector-curvature="0"
         style="opacity:1;fill:#0000ff;fill-opacity:1;fill-rule:nonzero;stroke:none;stroke-width:2.66666698;stroke-linecap:round;stroke-linejoin:round;stroke-miterlimit:4;stroke-dasharray:none;stroke-opacity:1;paint-order:markers fill stroke"
         d="m -142.80402,168.8663 a 10.965171,14.573558 0 0 0 0.54002,1.25057 10.965171,14.573558 0 0 0 0.004,0.008 10.96517,14.573558 0 0 1 -0.54416,-1.25832 z"
         id="path5323" />
      <path
         inkscape:connector-curvature="0"
         style="opacity:1;fill:#0000ff;fill-opacity:1;fill-rule:nonzero;stroke:none;stroke-width:2.66666698;stroke-linecap:round;stroke-linejoin:round;stroke-miterlimit:4;stroke-dasharray:none;stroke-opacity:1;paint-order:markers fill stroke"
         d="m -143.12028,167.93096 a 10.965171,14.573558 0 0 0 0.31057,0.92242 10.965171,14.573558 0 0 0 0.006,0.0129 10.96517,14.573558 0 0 1 -0.31626,-0.93534 z"
         id="path5325" />
      <path
         inkscape:connector-curvature="0"
         style="opacity:1;fill:#0000ff;fill-opacity:1;fill-rule:nonzero;stroke:none;stroke-width:2.66666698;stroke-linecap:round;stroke-linejoin:round;stroke-miterlimit:4;stroke-dasharray:none;stroke-opacity:1;paint-order:markers fill stroke"
         d="m -143.46962,166.67574 a 10.965171,14.573558 0 0 0 0.21239,0.84801 10.965171,14.573558 0 0 0 0.003,0.007 10.96517,14.573558 0 0 1 -0.21497,-0.85525 z"
         id="path5327" />
      <path
         inkscape:connector-curvature="0"
         style="opacity:1;fill:#0000ff;fill-opacity:1;fill-rule:nonzero;stroke:none;stroke-width:2.66666698;stroke-linecap:round;stroke-linejoin:round;stroke-miterlimit:4;stroke-dasharray:none;stroke-opacity:1;paint-order:markers fill stroke"
         d="m -143.76055,165.20761 a 10.965171,14.573558 0 0 0 0.15761,0.93379 10.965171,14.573558 0 0 0 0.002,0.009 10.96517,14.573558 0 0 1 -0.15968,-0.94309 z"
         id="path5329" />
      <path
         inkscape:connector-curvature="0"
         style="opacity:1;fill:#0000ff;fill-opacity:1;fill-rule:nonzero;stroke:none;stroke-width:2.66666698;stroke-linecap:round;stroke-linejoin:round;stroke-miterlimit:4;stroke-dasharray:none;stroke-opacity:1;paint-order:markers fill stroke"
         d="m -143.93677,163.69452 a 10.965171,14.573558 0 0 0 0.094,1.02526 10.965171,14.573558 0 0 0 0.002,0.01 10.96517,14.573558 0 0 1 -0.0956,-1.03507 z"
         id="path5331" />
      <path
         inkscape:connector-curvature="0"
         style="opacity:1;fill:#0000ff;fill-opacity:1;fill-rule:nonzero;stroke:none;stroke-width:2.66666698;stroke-linecap:round;stroke-linejoin:round;stroke-miterlimit:4;stroke-dasharray:none;stroke-opacity:1;paint-order:markers fill stroke"
         d="m -144.0024,162.24293 a 10.965171,14.573558 0 0 0 0.0274,1.03095 10.965171,14.573558 0 0 0 0.001,0.01 10.96517,14.573558 0 0 1 -0.0284,-1.04077 z"
         id="path5333" />
      <path
         inkscape:connector-curvature="0"
         style="opacity:1;fill:#0000ff;fill-opacity:1;fill-rule:nonzero;stroke:none;stroke-width:2.66666698;stroke-linecap:round;stroke-linejoin:round;stroke-miterlimit:4;stroke-dasharray:none;stroke-opacity:1;paint-order:markers fill stroke"
         d="m -138.28233,149.4618 a 10.965171,14.573558 0 0 0 -0.67955,0.5178 10.965171,14.573558 0 0 0 -0.89142,0.84749 10.965171,14.573558 0 0 0 -0.82321,0.96118 10.965171,14.573558 0 0 0 -0.74724,1.06609 10.965171,14.573558 0 0 0 -0.66352,1.15962 10.965171,14.573558 0 0 0 -0.57258,1.24178 10.965171,14.573558 0 0 0 -0.47697,1.31207 10.965171,14.573558 0 0 0 -0.37569,1.36839 10.965171,14.573558 0 0 0 -0.2713,1.41128 10.965171,14.573558 0 0 0 -0.16381,1.44074 10.965171,14.573558 0 0 0 -0.0548,1.45469 10.96517,14.573558 0 0 1 5.72006,-12.78113 z"
         id="path5335" />
      <path
         inkscape:connector-curvature="0"
         style="opacity:1;fill:#0000ff;fill-opacity:1;fill-rule:nonzero;stroke:none;stroke-width:2.66666698;stroke-linecap:round;stroke-linejoin:round;stroke-miterlimit:4;stroke-dasharray:none;stroke-opacity:1;paint-order:markers fill stroke"
         d="m -138.26322,149.44682 h -41.57627 a 9.6278953,12.796215 0 0 0 -9.62784,12.79611 9.6278953,12.796215 0 0 0 9.62784,12.79612 h 41.5556 a 10.96517,14.573558 0 0 1 -5.2e-4,-5.3e-4 10.965171,14.573558 0 0 1 -0.01,-0.006 10.965171,14.573558 0 0 1 -0.9245,-0.75344 10.965171,14.573558 0 0 1 -0.01,-0.008 10.965171,14.573558 0 0 1 -0.86351,-0.8723 10.965171,14.573558 0 0 1 -0.009,-0.009 10.965171,14.573558 0 0 1 -0.76068,-0.94154 10.96517,14.573558 0 0 1 -0.0336,-0.0419 10.965171,14.573558 0 0 1 -0.008,-0.01 10.965171,14.573558 0 0 1 -0.59996,-0.90796 10.96517,14.573558 0 0 1 -0.11679,-0.17725 10.965171,14.573558 0 0 1 -0.006,-0.009 10.965171,14.573558 0 0 1 -0.44131,-0.8201 10.96517,14.573558 0 0 1 -0.19224,-0.35709 10.965171,14.573558 0 0 1 -0.004,-0.008 10.965171,14.573558 0 0 1 -0.54002,-1.25057 10.965171,14.573558 0 0 1 -0.006,-0.0129 10.965171,14.573558 0 0 1 -0.31058,-0.92242 10.96517,14.573558 0 0 1 -0.13435,-0.39998 10.965171,14.573558 0 0 1 -0.003,-0.007 10.965171,14.573558 0 0 1 -0.21239,-0.84801 10.96517,14.573558 0 0 1 -0.13126,-0.52503 10.965171,14.573558 0 0 1 -0.002,-0.009 10.965171,14.573558 0 0 1 -0.15762,-0.93379 10.96517,14.573558 0 0 1 -0.0806,-0.47801 10.965171,14.573558 0 0 1 -0.002,-0.01 10.965171,14.573558 0 0 1 -0.0941,-1.02526 10.96517,14.573558 0 0 1 -0.0372,-0.41083 10.965171,14.573558 0 0 1 -0.001,-0.01 10.965171,14.573558 0 0 1 -0.0274,-1.03094 10.965171,14.573558 0 0 1 0.0548,-1.45469 10.965171,14.573558 0 0 1 0.16382,-1.44074 10.965171,14.573558 0 0 1 0.2713,-1.41128 10.965171,14.573558 0 0 1 0.37568,-1.3684 10.965171,14.573558 0 0 1 0.47698,-1.31206 10.965171,14.573558 0 0 1 0.57258,-1.24178 10.965171,14.573558 0 0 1 0.66352,-1.15963 10.965171,14.573558 0 0 1 0.74724,-1.06608 10.965171,14.573558 0 0 1 0.82321,-0.96118 10.965171,14.573558 0 0 1 0.89141,-0.84749 10.965171,14.573558 0 0 1 0.67955,-0.5178 10.96517,14.573558 0 0 1 0.0191,-0.015 z"
         id="path5337" />
      <path
         inkscape:connector-curvature="0"
         style="opacity:1;fill:#0000ff;fill-opacity:1;fill-rule:nonzero;stroke:none;stroke-width:4.52380943;stroke-linecap:round;stroke-linejoin:round;stroke-miterlimit:4;stroke-dasharray:none;stroke-opacity:1;paint-order:markers fill stroke"
         d="m -133.03736,140.53512 a 16.333034,21.707863 0 0 0 -16.33285,21.70772 16.333034,21.707863 0 0 0 16.33285,21.70771 16.333034,21.707863 0 0 0 11.20655,-5.95209 27.492674,27.492674 0 0 0 -7.66723,-1.98076 10.965171,14.573558 0 0 1 -3.53932,0.79892 10.965171,14.573558 0 0 1 -10.96522,-14.57378 10.965171,14.573558 0 0 1 10.96522,-14.57379 10.965171,14.573558 0 0 1 2.28358,0.32608 h 10.0242 a 16.333034,21.707863 0 0 0 -12.30778,-7.46001 z m 2.32492,7.47396 a 10.965171,14.573558 0 0 1 0.17829,0.0605 55.379066,55.358765 0 0 1 10.72751,1.48001 16.333034,21.707863 0 0 0 -0.91312,-1.54047 z"
         id="path5339" />
      <circle
         style="opacity:1;fill:#ffffff;fill-opacity:1;fill-rule:nonzero;stroke:none;stroke-width:4;stroke-linecap:round;stroke-linejoin:round;stroke-miterlimit:4;stroke-dasharray:none;stroke-opacity:1;paint-order:markers fill stroke"
         id="circle5341"
         cx="-179.1118"
         cy="143.90855"
         r="1.1244792" />
      <circle
         r="1.1244792"
         cy="147.69962"
         cx="-187.34598"
         id="circle5343"
         style="opacity:1;fill:#ffffff;fill-opacity:1;fill-rule:nonzero;stroke:none;stroke-width:4;stroke-linecap:round;stroke-linejoin:round;stroke-miterlimit:4;stroke-dasharray:none;stroke-opacity:1;paint-order:markers fill stroke" />
      <circle
         style="opacity:1;fill:#ffffff;fill-opacity:1;fill-rule:nonzero;stroke:none;stroke-width:4;stroke-linecap:round;stroke-linejoin:round;stroke-miterlimit:4;stroke-dasharray:none;stroke-opacity:1;paint-order:markers fill stroke"
         id="circle5345"
         cx="-192.49596"
         cy="155.30833"
         r="1.1244792" />
      <circle
         r="1.1244792"
         cy="165.30106"
         cx="-193.15741"
         id="circle5347"
         style="opacity:1;fill:#ffffff;fill-opacity:1;fill-rule:nonzero;stroke:none;stroke-width:4;stroke-linecap:round;stroke-linejoin:round;stroke-miterlimit:4;stroke-dasharray:none;stroke-opacity:1;paint-order:markers fill stroke" />
      <circle
         style="opacity:1;fill:#ffffff;fill-opacity:1;fill-rule:nonzero;stroke:none;stroke-width:4;stroke-linecap:round;stroke-linejoin:round;stroke-miterlimit:4;stroke-dasharray:none;stroke-opacity:1;paint-order:markers fill stroke"
         id="circle5349"
         cx="-190.12134"
         cy="173.76106"
         r="1.1244792" />
      <circle
         r="1.1244792"
         cy="179.73689"
         cx="-183.60695"
         id="circle5351"
         style="opacity:1;fill:#ffffff;fill-opacity:1;fill-rule:nonzero;stroke:none;stroke-width:4;stroke-linecap:round;stroke-linejoin:round;stroke-miterlimit:4;stroke-dasharray:none;stroke-opacity:1;paint-order:markers fill stroke" />
      <circle
         style="opacity:1;fill:#ffffff;fill-opacity:1;fill-rule:nonzero;stroke:none;stroke-width:4;stroke-linecap:round;stroke-linejoin:round;stroke-miterlimit:4;stroke-dasharray:none;stroke-opacity:1;paint-order:markers fill stroke"
         id="circle5353"
         cx="-176.36966"
         cy="180.00812"
         r="1.1244792" />
      <circle
         r="1.1244792"
         cy="148.0096"
         cx="-170.77742"
         id="circle5355"
         style="opacity:1;fill:#ffffff;fill-opacity:1;fill-rule:nonzero;stroke:none;stroke-width:4;stroke-linecap:round;stroke-linejoin:round;stroke-miterlimit:4;stroke-dasharray:none;stroke-opacity:1;paint-order:markers fill stroke" />
      <circle
         style="opacity:1;fill:#ffffff;fill-opacity:1;fill-rule:nonzero;stroke:none;stroke-width:4;stroke-linecap:round;stroke-linejoin:round;stroke-miterlimit:4;stroke-dasharray:none;stroke-opacity:1;paint-order:markers fill stroke"
         id="circle5357"
         cx="-170.31635"
         cy="175.89771"
         r="1.1244792" />
    </g>
  </g>
  <g
     transform="matrix(1.3041712,0,0,1.3041712,83.720767,-260.40997)"
     id="g5389">
    <path
       inkscape:connector-curvature="0"
       id="path5363"
       d="m 22.108754,218.20108 c -4.179599,0.12622 -14.7394303,7.98648 -14.7444833,10.99798 h -6.64e-4 V 243.445 h 0.0033 c 0.0396,0.58813 0.513784,0.97477 1.562293,1.0564 H 37.369301 c 4.128133,-0.12466 14.48021,-7.79392 14.739418,-10.88442 h 0.0056 v -14.43467 h -0.01111 c -0.07421,-0.54573 -0.551368,-0.90313 -1.55445,-0.98123 z m 1.189899,0.94659 h 24.004844 c 5.318251,0.41409 -6.851853,10.1165 -11.123968,10.24552 H 12.174684 c -5.3182503,-0.41409 6.851853,-10.1165 11.123969,-10.24552 z m 0.76734,1.61131 c -3.743522,0.0936 -14.4078433,7.13638 -9.747628,7.43695 h 21.034672 c 3.743526,-0.0936 14.407849,-7.13637 9.747628,-7.43695 z m -0.609656,0.41946 a 2.1559932,2.1559932 0 0 0 2.155936,2.15593 2.1559932,2.1559932 0 0 0 2.156099,-2.15593 2.1559932,2.1559932 0 0 0 2.155936,2.15593 2.1559932,2.1559932 0 0 0 2.155935,-2.15593 2.1559932,2.1559932 0 0 0 2.1561,2.15593 2.1559932,2.1559932 0 0 0 2.155936,-2.15593 2.1559932,2.1559932 0 0 0 2.155936,2.15593 2.1559932,2.1559932 0 0 0 2.156099,-2.15446 2.1559932,2.1559932 0 0 0 1.580921,2.07619 v 0.85787 a 2.1559932,2.1559932 0 0 1 -1.580921,-2.07619 2.1559932,2.1559932 0 0 1 -2.156099,2.15446 2.1559932,2.1559932 0 0 1 -2.155936,-2.15593 2.1559932,2.1559932 0 0 1 -2.155936,2.15593 2.1559932,2.1559932 0 0 1 -2.1561,-2.15593 2.1559932,2.1559932 0 0 1 -2.155935,2.15593 2.1559932,2.1559932 0 0 1 -2.155936,-2.15593 2.1559932,2.1559932 0 0 1 -2.156099,2.15593 2.1559932,2.1559932 0 0 1 -2.155936,-2.15593 2.1559932,2.1559932 0 0 1 -1.581085,2.07554 v -0.85787 a 2.1559932,2.1559932 0 0 0 1.581085,-2.07554 z m -5.521705,2.88635 a 2.1559932,2.1559932 0 0 0 2.155935,2.15593 2.1559932,2.1559932 0 0 0 2.156099,-2.15593 2.1559932,2.1559932 0 0 0 2.155936,2.15593 2.1559932,2.1559932 0 0 0 2.155936,-2.15593 2.1559932,2.1559932 0 0 0 2.156099,2.15593 2.1559932,2.1559932 0 0 0 2.155936,-2.15593 2.1559932,2.1559932 0 0 0 2.155936,2.15593 2.1559932,2.1559932 0 0 0 2.156099,-2.15446 2.1559932,2.1559932 0 0 0 1.580922,2.07619 v 0.85787 a 2.1559932,2.1559932 0 0 1 -1.580922,-2.0762 2.1559932,2.1559932 0 0 1 -2.156099,2.15447 2.1559932,2.1559932 0 0 1 -2.155936,-2.15594 2.1559932,2.1559932 0 0 1 -2.155936,2.15594 2.1559932,2.1559932 0 0 1 -2.156099,-2.15594 2.1559932,2.1559932 0 0 1 -2.155936,2.15594 2.1559932,2.1559932 0 0 1 -2.155936,-2.15594 2.1559932,2.1559932 0 0 1 -2.156099,2.15594 2.1559932,2.1559932 0 0 1 -2.155935,-2.15594 2.1559932,2.1559932 0 0 1 -1.581086,2.07554 v -0.85786 a 2.1559932,2.1559932 0 0 0 1.581086,-2.07554 z"
       style="opacity:1;fill:#0000ff;fill-opacity:1;fill-rule:nonzero;stroke:none;stroke-width:1.2648145;stroke-linecap:round;stroke-linejoin:round;stroke-miterlimit:4;stroke-dasharray:none;stroke-opacity:1;paint-order:markers fill stroke" />
    <circle
       style="opacity:1;fill:#0000ff;fill-opacity:1;fill-rule:nonzero;stroke:none;stroke-width:4;stroke-linecap:round;stroke-linejoin:round;stroke-miterlimit:4;stroke-dasharray:none;stroke-opacity:1;paint-order:markers fill stroke"
       id="circle5365"
       cx="27.715103"
       cy="219.31544"
       r="1.9182291" />
    <circle
       style="opacity:1;fill:#0000ff;fill-opacity:1;fill-rule:nonzero;stroke:none;stroke-width:4;stroke-linecap:round;stroke-linejoin:round;stroke-miterlimit:4;stroke-dasharray:none;stroke-opacity:1;paint-order:markers fill stroke"
       id="circle5367"
       cx="44.516148"
       cy="217.23087"
       r="1.9182291" />
    <circle
       r="0.66145825"
       cy="215.70676"
       cx="34.858852"
       id="circle5369"
       style="opacity:1;fill:#0000ff;fill-opacity:1;fill-rule:nonzero;stroke:none;stroke-width:1.37931025;stroke-linecap:round;stroke-linejoin:round;stroke-miterlimit:4;stroke-dasharray:none;stroke-opacity:1;paint-order:markers fill stroke" />
    <circle
       style="opacity:1;fill:#0000ff;fill-opacity:1;fill-rule:nonzero;stroke:none;stroke-width:1.37931025;stroke-linecap:round;stroke-linejoin:round;stroke-miterlimit:4;stroke-dasharray:none;stroke-opacity:1;paint-order:markers fill stroke"
       id="circle5371"
       cx="23.316572"
       cy="209.40685"
       r="0.66145825" />
    <circle
       r="1.9182291"
       cy="210.28279"
       cx="32.808334"
       id="circle5373"
       style="opacity:1;fill:#0000ff;fill-opacity:1;fill-rule:nonzero;stroke:none;stroke-width:4;stroke-linecap:round;stroke-linejoin:round;stroke-miterlimit:4;stroke-dasharray:none;stroke-opacity:1;paint-order:markers fill stroke" />
    <circle
       style="opacity:1;fill:#0000ff;fill-opacity:1;fill-rule:nonzero;stroke:none;stroke-width:1.37931025;stroke-linecap:round;stroke-linejoin:round;stroke-miterlimit:4;stroke-dasharray:none;stroke-opacity:1;paint-order:markers fill stroke"
       id="circle5375"
       cx="15.983785"
       cy="219.47926"
       r="0.66145825" />
    <circle
       style="opacity:1;fill:#0000ff;fill-opacity:1;fill-rule:nonzero;stroke:none;stroke-width:1.37931025;stroke-linecap:round;stroke-linejoin:round;stroke-miterlimit:4;stroke-dasharray:none;stroke-opacity:1;paint-order:markers fill stroke"
       id="circle5377"
       cx="26.524477"
       cy="213.98697"
       r="0.66145825" />
    <circle
       r="0.66145825"
       cy="210.05891"
       cx="14.344242"
       id="circle5379"
       style="opacity:1;fill:#0000ff;fill-opacity:1;fill-rule:nonzero;stroke:none;stroke-width:1.37931025;stroke-linecap:round;stroke-linejoin:round;stroke-miterlimit:4;stroke-dasharray:none;stroke-opacity:1;paint-order:markers fill stroke" />
    <circle
       style="opacity:1;fill:#0000ff;fill-opacity:1;fill-rule:nonzero;stroke:none;stroke-width:1.37931025;stroke-linecap:round;stroke-linejoin:round;stroke-miterlimit:4;stroke-dasharray:none;stroke-opacity:1;paint-order:markers fill stroke"
       id="circle5381"
       cx="39.489059"
       cy="212.86249"
       r="0.66145825" />
    <circle
       r="0.66145825"
       cy="208.62915"
       cx="42.928642"
       id="circle5383"
       style="opacity:1;fill:#0000ff;fill-opacity:1;fill-rule:nonzero;stroke:none;stroke-width:1.37931025;stroke-linecap:round;stroke-linejoin:round;stroke-miterlimit:4;stroke-dasharray:none;stroke-opacity:1;paint-order:markers fill stroke" />
    <circle
       style="opacity:1;fill:#0000ff;fill-opacity:1;fill-rule:nonzero;stroke:none;stroke-width:4;stroke-linecap:round;stroke-linejoin:round;stroke-miterlimit:4;stroke-dasharray:none;stroke-opacity:1;paint-order:markers fill stroke"
       id="circle5385"
       cx="20.233978"
       cy="215.49973"
       r="1.9182291" />
    <circle
       style="opacity:1;fill:#0000ff;fill-opacity:1;fill-rule:nonzero;stroke:none;stroke-width:1.37931025;stroke-linecap:round;stroke-linejoin:round;stroke-miterlimit:4;stroke-dasharray:none;stroke-opacity:1;paint-order:markers fill stroke"
       id="circle5387"
       cx="46.169788"
       cy="211.27498"
       r="0.66145825" />
  </g>
  <path
     inkscape:connector-curvature="0"
     id="path5391"
     d="m 126.11573,87.637753 a 4.6888503,4.6888503 0 0 0 -4.68881,4.68883 h 1.09675 a 3.5919876,3.5919876 0 0 1 3.59206,-3.59189 3.5919876,3.5919876 0 0 1 3.59209,3.59189 4.6888503,4.6888503 0 0 0 4.68881,4.68881 4.6888503,4.6888503 0 0 0 4.6888,-4.68881 3.5919876,3.5919876 0 0 1 0.0181,-0.35865 3.5919876,3.5919876 0 0 1 3.57408,-3.23324 3.5919876,3.5919876 0 0 1 3.59208,3.59189 4.6888503,4.6888503 0 0 0 4.35725,4.67708 4.6888503,4.6888503 0 0 0 0.33156,0.0114 4.6888503,4.6888503 0 0 0 4.68882,-4.68879 h -1.09675 a 3.5919876,3.5919876 0 0 1 -3.59207,3.59185 3.5919876,3.5919876 0 0 1 -3.59208,-3.59185 4.6888503,4.6888503 0 0 0 -4.68881,-4.68883 4.6888503,4.6888503 0 0 0 -4.67707,4.35707 4.6888503,4.6888503 0 0 0 -0.0114,0.33176 3.5919876,3.5919876 0 0 1 -3.59207,3.59185 3.5919876,3.5919876 0 0 1 -3.59207,-3.59185 4.6888503,4.6888503 0 0 0 -4.68881,-4.68883 z m -24.48798,0.73585 c -4.314277,0.0483 -5.816997,1.27265 -5.816997,2.92079 0.0485,2.56918 2.22795,3.75113 3.24592,3.75113 1.686267,0.49538 1.892997,0.34598 2.713087,1.08236 0.60754,0.54553 -0.0114,3.41235 0.93049,3.45328 1.31966,0 1.06266,-0.77129 1.06266,-4.73029 0,-2.00519 0.43501,-6.42879 -2.13516,-6.47727 z m 11.47626,6.44717 c -2.56918,0.0485 -3.75114,2.22794 -3.75114,3.24594 -0.49539,1.68625 -0.34598,1.89298 -1.08236,2.713077 -0.54552,0.60753 -3.41234,-0.01 -3.45327,0.93048 0,1.31967 0.77129,1.06266 4.73029,1.06266 2.00519,0 6.4288,0.43501 6.47728,-2.13516 -0.0485,-4.314277 -1.27265,-5.816997 -2.9208,-5.816997 z m 13.01172,2.19462 a 4.6888503,4.6888503 0 0 0 -4.68881,4.688817 h 1.09675 a 3.5919876,3.5919876 0 0 1 3.59206,-3.591887 3.5919876,3.5919876 0 0 1 3.59209,3.591887 4.6888503,4.6888503 0 0 0 4.68881,4.68882 4.6888503,4.6888503 0 0 0 4.6888,-4.68882 3.5919876,3.5919876 0 0 1 0.0181,-0.35863 3.5919876,3.5919876 0 0 1 3.57408,-3.233257 3.5919876,3.5919876 0 0 1 3.59208,3.591887 4.6888503,4.6888503 0 0 0 4.35725,4.67706 4.6888503,4.6888503 0 0 0 0.33156,0.0114 4.6888503,4.6888503 0 0 0 4.68882,-4.68881 h -1.09675 a 3.5919876,3.5919876 0 0 1 -3.59207,3.59188 3.5919876,3.5919876 0 0 1 -3.59208,-3.59188 4.6888503,4.6888503 0 0 0 -4.68881,-4.688817 4.6888503,4.6888503 0 0 0 -4.67707,4.357057 4.6888503,4.6888503 0 0 0 -0.0114,0.33176 3.5919876,3.5919876 0 0 1 -3.59207,3.59188 3.5919876,3.5919876 0 0 1 -3.59207,-3.59188 4.6888503,4.6888503 0 0 0 -4.68881,-4.688817 z m -23.42154,3.428467 a 1.2603487,1.2603487 0 0 0 -1.26034,1.26035 1.2603487,1.2603487 0 0 0 1.26034,1.26034 1.2603487,1.2603487 0 0 0 1.26035,-1.26034 1.2603487,1.2603487 0 0 0 -1.26035,-1.26035 z m -8.704467,0.16398 c -2.092347,-0.003 -4.589762,0.23518 -4.626112,2.16281 0.0485,4.31428 1.272644,5.817 2.920785,5.817 2.569167,-0.0485 3.751127,-2.22796 3.751127,-3.24592 0.49539,-1.68625 0.34599,-1.893 1.08234,-2.71308 0.54554,-0.60753 3.412337,0.01 3.453287,-0.9305 0,-1.31967 -0.771287,-1.06266 -4.730287,-1.06266 -0.5013,0 -1.15369,-0.027 -1.85114,-0.0275 z m 8.698407,3.21942 c -1.31967,0 -1.06266,0.7713 -1.06266,4.73028 0,2.0052 -0.43501,6.42882 2.13517,6.47728 4.31428,-0.0485 5.81699,-1.27267 5.81699,-2.92081 -0.0485,-2.56916 -2.22794,-3.75113 -3.24593,-3.75113 -1.68625,-0.49538 -1.893,-0.34597 -2.71307,-1.08236 -0.60754,-0.54551 0.0114,-3.41232 -0.9305,-3.45326 z m 23.4276,2.56577 a 4.6888503,4.6888503 0 0 0 -4.68881,4.68881 h 1.09675 a 3.5919876,3.5919876 0 0 1 3.59206,-3.59187 3.5919876,3.5919876 0 0 1 3.59209,3.59187 4.6888503,4.6888503 0 0 0 4.68881,4.68881 4.6888503,4.6888503 0 0 0 4.6888,-4.68881 3.5919876,3.5919876 0 0 1 0.0181,-0.35864 3.5919876,3.5919876 0 0 1 3.57408,-3.23323 3.5919876,3.5919876 0 0 1 3.59208,3.59187 4.6888503,4.6888503 0 0 0 4.35725,4.67707 4.6888503,4.6888503 0 0 0 0.33156,0.0114 4.6888503,4.6888503 0 0 0 4.68882,-4.68882 h -1.09675 a 3.5919876,3.5919876 0 0 1 -3.59207,3.59188 3.5919876,3.5919876 0 0 1 -3.59208,-3.59188 4.6888503,4.6888503 0 0 0 -4.68881,-4.68883 4.6888503,4.6888503 0 0 0 -4.67707,4.35707 4.6888503,4.6888503 0 0 0 -0.0114,0.33176 3.5919876,3.5919876 0 0 1 -3.59207,3.59188 3.5919876,3.5919876 0 0 1 -3.59207,-3.59188 4.6888503,4.6888503 0 0 0 -4.68881,-4.68883 z"
     style="opacity:1;fill:#0000ff;fill-opacity:1;fill-rule:nonzero;stroke:none;stroke-width:1.46569932;stroke-linecap:round;stroke-linejoin:round;stroke-miterlimit:4;stroke-dasharray:none;stroke-opacity:1;paint-order:markers fill stroke" />
</svg>
